<svg width="142" height="48" viewBox="0 0 142 48" fill="none" xmlns="http://www.w3.org/2000/svg">
<path d="M5.88509 0H136.115C139.292 0 141.873 2.5824 141.873 5.76V42.24C141.873 45.4176 139.292 48 136.115 48H5.88509C2.70852 48 0.126953 45.4176 0.126953 42.24V5.76C0.126953 2.5824 2.70852 0 5.88509 0Z" fill="#001C3C"/>
<path d="M31.1538 22.9055C31.125 19.4687 33.9657 17.7983 34.0905 17.7215C32.4782 15.3791 29.983 15.0527 29.1097 15.0239C27.0175 14.8031 24.983 16.2815 23.9178 16.2815C22.8333 16.2815 21.1826 15.0527 19.4168 15.0815C17.1423 15.1199 15.0022 16.4351 13.841 18.4895C11.4322 22.6655 13.2268 28.8095 15.5397 32.1887C16.7009 33.8399 18.0444 35.6927 19.8199 35.6255C21.5473 35.5583 22.1999 34.5215 24.2824 34.5215C26.3554 34.5215 26.96 35.6255 28.7642 35.5871C30.626 35.5583 31.7872 33.9263 32.91 32.2559C34.244 30.3647 34.7814 28.4927 34.8006 28.3967C34.7527 28.3775 31.1922 27.0143 31.1538 22.9055Z" fill="white"/>
<path d="M27.7468 12.8064C28.6777 11.6448 29.3111 10.0608 29.1383 8.448C27.7948 8.5056 26.1057 9.3792 25.1364 10.5216C24.2823 11.5296 23.5145 13.1712 23.7065 14.7168C25.2228 14.832 26.7775 13.9488 27.7468 12.8064Z" fill="white"/>
<path d="M56.2209 35.3857H53.8025L52.4781 31.2193H47.8716L46.6144 35.3857H44.2632L48.8217 21.2065H51.6432L56.2209 35.3857ZM52.0847 29.4721L50.885 25.7761C50.7603 25.3921 50.5204 24.5089 50.1749 23.1073H50.1269C49.9829 23.7121 49.7622 24.6049 49.4551 25.7761L48.2747 29.4721H52.0847Z" fill="white"/>
<path d="M67.9387 30.1536C67.9387 31.8912 67.4685 33.264 66.5184 34.272C65.6738 35.1744 64.6182 35.616 63.3706 35.616C62.0174 35.616 61.0481 35.136 60.4531 34.1664V39.5328H58.1787V28.5216C58.1787 27.4272 58.1499 26.3136 58.0923 25.1616H60.0884L60.2132 26.784H60.2516C61.0097 25.5648 62.1614 24.9504 63.6969 24.9504C64.9061 24.9504 65.9042 25.4304 66.7103 26.3808C67.5356 27.3408 67.9387 28.5888 67.9387 30.1536ZM65.6259 30.2304C65.6259 29.232 65.4051 28.416 64.9541 27.7728C64.4646 27.1008 63.8024 26.7648 62.9771 26.7648C62.4205 26.7648 61.9119 26.9568 61.4512 27.3216C61.0001 27.696 60.693 28.176 60.5587 28.7808C60.4915 29.0592 60.4531 29.2896 60.4531 29.472V31.1808C60.4531 31.92 60.6834 32.5536 61.1345 33.0624C61.5856 33.5712 62.1806 33.8304 62.9099 33.8304C63.7641 33.8304 64.4262 33.4944 64.9061 32.8416C65.3859 32.1792 65.6259 31.3152 65.6259 30.2304Z" fill="white"/>
<path d="M79.6853 30.1536C79.6853 31.8912 79.215 33.264 78.2649 34.272C77.4204 35.1744 76.3648 35.616 75.1172 35.616C73.764 35.616 72.7947 35.136 72.1997 34.1664V39.5328H69.9252V28.5216C69.9252 27.4272 69.8964 26.3136 69.8389 25.1616H71.835L71.9598 26.784H71.9982C72.7563 25.5648 73.908 24.9504 75.4435 24.9504C76.6527 24.9504 77.6507 25.4304 78.4569 26.3808C79.2822 27.3408 79.6853 28.5888 79.6853 30.1536ZM77.3724 30.2304C77.3724 29.232 77.1517 28.416 76.7007 27.7728C76.2112 27.1008 75.549 26.7648 74.7237 26.7648C74.1671 26.7648 73.6584 26.9568 73.1978 27.3216C72.7467 27.696 72.4492 28.176 72.3053 28.7808C72.2381 29.0592 72.1997 29.2896 72.1997 29.472V31.1808C72.1997 31.92 72.43 32.5536 72.8811 33.0624C73.3321 33.5712 73.9271 33.8304 74.6565 33.8304C75.5106 33.8304 76.1824 33.4944 76.6527 32.8416C77.1421 32.1792 77.3724 31.3152 77.3724 30.2304Z" fill="white"/>
<path d="M92.8329 31.4113C92.8329 32.6209 92.4107 33.6001 91.5757 34.3585C90.6544 35.1841 89.3684 35.5969 87.7178 35.5969C86.1919 35.5969 84.9731 35.2993 84.0518 34.7137L84.5796 32.8225C85.5777 33.4081 86.6717 33.7057 87.8617 33.7057C88.7159 33.7057 89.3876 33.5137 89.8579 33.1297C90.3377 32.7457 90.5777 32.2273 90.5777 31.5841C90.5777 31.0081 90.3761 30.5281 89.9922 30.1345C89.5988 29.7409 88.9462 29.3761 88.0345 29.0401C85.5297 28.1089 84.2917 26.7553 84.2917 24.9793C84.2917 23.8177 84.7331 22.8673 85.6065 22.1185C86.4798 21.3793 87.641 21.0049 89.0901 21.0049C90.3761 21.0049 91.451 21.2257 92.3051 21.6769L91.7293 23.5201C90.9231 23.0881 90.021 22.8673 89.0038 22.8673C88.2072 22.8673 87.5738 23.0689 87.1228 23.4529C86.7485 23.8081 86.5565 24.2305 86.5565 24.7393C86.5565 25.2961 86.7773 25.7665 87.2091 26.1217C87.5834 26.4577 88.2744 26.8225 89.2725 27.2161C90.4913 27.7057 91.3838 28.2817 91.9596 28.9441C92.545 29.6065 92.8329 30.4321 92.8329 31.4113Z" fill="white"/>
<path d="M100.357 26.8705H97.8522V31.8337C97.8522 33.0913 98.2936 33.7249 99.1766 33.7249C99.5796 33.7249 99.9155 33.6865 100.184 33.6193L100.251 35.3473C99.8004 35.5105 99.2149 35.5969 98.4856 35.5969C97.5835 35.5969 96.8925 35.3185 96.3839 34.7713C95.8752 34.2241 95.6257 33.3025 95.6257 32.0161V26.8609H94.1382V25.1617H95.6257V23.2897L97.8522 22.6177V25.1617H100.357V26.8705Z" fill="white"/>
<path d="M111.624 30.192C111.624 31.7664 111.173 33.0528 110.28 34.0608C109.34 35.0976 108.092 35.616 106.537 35.616C105.04 35.616 103.841 35.1168 102.948 34.128C102.056 33.1392 101.614 31.8816 101.614 30.3648C101.614 28.7808 102.075 27.4848 102.987 26.4768C103.908 25.4688 105.146 24.96 106.701 24.96C108.198 24.96 109.407 25.4592 110.319 26.4576C111.192 27.4176 111.624 28.6656 111.624 30.192ZM109.273 30.24C109.273 29.2992 109.071 28.5024 108.668 27.8304C108.188 27.0144 107.507 26.6112 106.624 26.6112C105.712 26.6112 105.012 27.0144 104.541 27.8304C104.129 28.5024 103.937 29.3184 103.937 30.288C103.937 31.2288 104.138 32.0352 104.541 32.6976C105.031 33.5136 105.722 33.9168 106.605 33.9168C107.468 33.9168 108.15 33.504 108.649 32.6784C109.061 31.9872 109.273 31.1808 109.273 30.24Z" fill="white"/>
<path d="M119.014 27.1584C118.793 27.12 118.553 27.1008 118.294 27.1008C117.497 27.1008 116.873 27.3984 116.442 28.0032C116.067 28.5312 115.875 29.2128 115.875 30.0192V35.3856H113.601V28.3776C113.601 27.1968 113.582 26.1216 113.534 25.1616H115.511L115.597 27.12H115.664C115.904 26.448 116.278 25.9008 116.797 25.4976C117.305 25.1328 117.852 24.9504 118.438 24.9504C118.649 24.9504 118.841 24.9696 119.004 24.9888L119.014 27.1584Z" fill="white"/>
<path d="M129.167 29.7888C129.167 30.192 129.138 30.5376 129.081 30.816H122.267C122.295 31.824 122.622 32.6016 123.255 33.1296C123.831 33.6 124.57 33.84 125.482 33.84C126.489 33.84 127.411 33.6768 128.236 33.36L128.591 34.9344C127.622 35.3568 126.48 35.568 125.165 35.568C123.581 35.568 122.334 35.0976 121.432 34.1664C120.53 33.2352 120.079 31.9776 120.079 30.4128C120.079 28.8768 120.501 27.5904 121.345 26.5632C122.228 25.4688 123.418 24.9216 124.915 24.9216C126.384 24.9216 127.507 25.4688 128.255 26.5632C128.86 27.4464 129.167 28.512 129.167 29.7888ZM126.998 29.2032C127.017 28.5312 126.864 27.9456 126.557 27.456C126.163 26.8224 125.558 26.5056 124.752 26.5056C124.013 26.5056 123.409 26.8128 122.948 27.4272C122.574 27.9168 122.343 28.512 122.276 29.1936L126.998 29.2032Z" fill="white"/>
<path d="M50.9903 16.1376H49.8003L49.1477 14.0928H46.8828L46.259 16.1376H45.1074L47.3435 9.16797H48.7255L50.9903 16.1376ZM48.9462 13.2288L48.3608 11.4048C48.3032 11.2224 48.188 10.7808 48.0057 10.0896H47.9865C47.9097 10.3872 47.8137 10.8192 47.6506 11.4048L47.0748 13.2288H48.9462Z" fill="white"/>
<path d="M56.5948 11.1072L54.6946 16.1376H53.6102L51.7676 11.1072H52.9672L53.8213 13.7664C53.9653 14.208 54.09 14.6304 54.186 15.0336H54.2148C54.3012 14.6688 54.4259 14.2464 54.5795 13.7664L55.424 11.1072H56.5948Z" fill="white"/>
<path d="M60.6449 16.1376L60.5585 15.5616H60.5297C60.1842 16.0224 59.6948 16.2528 59.0614 16.2528C58.1593 16.2528 57.5259 15.6192 57.5259 14.7744C57.5259 13.536 58.6007 12.8928 60.4625 12.8928V12.7968C60.4625 12.1344 60.1074 11.808 59.4165 11.808C58.9174 11.808 58.4856 11.9328 58.1017 12.1824L57.8714 11.4528C58.332 11.1648 58.9174 11.0208 59.5988 11.0208C60.9136 11.0208 61.5758 11.712 61.5758 13.104V14.9568C61.5758 15.4656 61.595 15.8592 61.6525 16.1568L60.6449 16.1376ZM60.4913 13.632C59.2533 13.632 58.6295 13.9296 58.6295 14.6496C58.6295 15.1776 58.9462 15.4368 59.3973 15.4368C59.9635 15.4368 60.4913 15.0048 60.4913 14.4096V13.632Z" fill="white"/>
<path d="M64.0611 10.2817C63.6868 10.2817 63.3989 9.99367 63.3989 9.60967C63.3989 9.22567 63.6964 8.94727 64.0803 8.94727C64.4642 8.94727 64.7713 9.22567 64.7617 9.60967C64.7617 10.0129 64.4738 10.2817 64.0611 10.2817ZM63.5237 11.1073H64.6369V16.1281H63.5237V11.1073Z" fill="white"/>
<path d="M66.6235 8.80322H67.7368V16.128H66.6235V8.80322Z" fill="white"/>
<path d="M72.4779 16.1376L72.3915 15.5616H72.3627C72.0172 16.0224 71.5278 16.2528 70.8944 16.2528C69.9923 16.2528 69.3589 15.6192 69.3589 14.7744C69.3589 13.536 70.4337 12.8928 72.2955 12.8928V12.7968C72.2955 12.1344 71.9405 11.808 71.2495 11.808C70.7504 11.808 70.3186 11.9328 69.9347 12.1824L69.7044 11.4432C70.165 11.1552 70.7504 11.0112 71.4318 11.0112C72.7466 11.0112 73.4088 11.7024 73.4088 13.0944V14.9472C73.4088 15.456 73.428 15.8496 73.476 16.1472H72.4779V16.1376ZM72.3243 13.632C71.0863 13.632 70.4625 13.9296 70.4625 14.6496C70.4625 15.1776 70.7792 15.4368 71.2303 15.4368C71.7965 15.4368 72.3243 15.0048 72.3243 14.4096V13.632Z" fill="white"/>
<path d="M77.9383 16.2528C77.2281 16.2528 76.7003 15.9552 76.3548 15.36H76.3356L76.2685 16.1376H75.3184C75.3472 15.7344 75.3567 15.2832 75.3567 14.784V8.80322H76.4796V11.8464H76.4988C76.8347 11.2896 77.3625 11.0112 78.1015 11.0112C79.3107 11.0112 80.1552 12.048 80.1552 13.5552C80.1552 15.1104 79.2147 16.2528 77.9383 16.2528ZM77.708 11.8848C77.065 11.8848 76.4796 12.4416 76.4796 13.2192V14.1024C76.4796 14.7936 77.0074 15.36 77.6888 15.36C78.5237 15.36 79.0228 14.6784 79.0228 13.5936C79.0228 12.576 78.5045 11.8848 77.708 11.8848Z" fill="white"/>
<path d="M81.8062 8.80322H82.9194V16.128H81.8062V8.80322Z" fill="white"/>
<path d="M88.994 13.8911H85.6447C85.6639 14.8415 86.2973 15.3791 87.2282 15.3791C87.7272 15.3791 88.1783 15.2927 88.5813 15.1391L88.7541 15.9167C88.2838 16.1279 87.7272 16.2239 87.0746 16.2239C85.5007 16.2239 84.5698 15.2351 84.5698 13.6895C84.5698 12.1535 85.5199 10.9919 86.9499 10.9919C88.2262 10.9919 89.042 11.9423 89.042 13.3823C89.042 13.5839 89.0324 13.7567 88.994 13.8911ZM87.9767 13.0943C87.9767 12.3167 87.5833 11.7695 86.8731 11.7695C86.2301 11.7695 85.7311 12.3263 85.6543 13.0943H87.9767Z" fill="white"/>
<path d="M95.7597 16.2528C94.2914 16.2528 93.3413 15.1584 93.3413 13.6704C93.3413 12.1152 94.3106 11.0112 95.8461 11.0112C97.2952 11.0112 98.2645 12.0576 98.2645 13.584C98.2645 15.1488 97.2664 16.2528 95.7597 16.2528ZM95.8077 11.8272C95.0016 11.8272 94.4833 12.5856 94.4833 13.632C94.4833 14.6688 95.0112 15.4176 95.7981 15.4176C96.5851 15.4176 97.1129 14.6112 97.1129 13.6032C97.1033 12.5856 96.5947 11.8272 95.8077 11.8272Z" fill="white"/>
<path d="M104.263 16.1377H103.149V13.2481C103.149 12.3553 102.804 11.9137 102.132 11.9137C101.47 11.9137 101.019 12.4801 101.019 13.1425V16.1281H99.9056V12.5473C99.9056 12.1057 99.896 11.6257 99.8672 11.1073H100.846L100.894 11.8849H100.923C101.22 11.3473 101.835 11.0017 102.516 11.0017C103.572 11.0017 104.263 11.8081 104.263 13.1233V16.1377Z" fill="white"/>
<path d="M111.566 11.9519H110.338V14.3903C110.338 15.0143 110.558 15.3215 110.99 15.3215C111.182 15.3215 111.355 15.3023 111.489 15.2735L111.518 16.1183C111.297 16.2047 111.01 16.2431 110.654 16.2431C109.772 16.2431 109.253 15.7535 109.253 14.4863V11.9519H108.524V11.1167H109.253V10.1951L110.347 9.85913V11.1071H111.576V11.9519" fill="white"/>
<path d="M117.478 16.1376H116.364V13.2672C116.364 12.3648 116.019 11.9136 115.347 11.9136C114.771 11.9136 114.234 12.3072 114.234 13.104V16.128H113.121V8.80322H114.234V11.8176H114.253C114.608 11.2704 115.107 11.0016 115.76 11.0016C116.825 11.0016 117.478 11.8272 117.478 13.1424V16.1376Z" fill="white"/>
<path d="M123.178 13.8911H119.829C119.848 14.8415 120.481 15.3791 121.412 15.3791C121.911 15.3791 122.362 15.2927 122.765 15.1391L122.938 15.9167C122.468 16.1279 121.911 16.2239 121.259 16.2239C119.685 16.2239 118.754 15.2351 118.754 13.6895C118.754 12.1535 119.704 10.9919 121.134 10.9919C122.41 10.9919 123.226 11.9423 123.226 13.3823C123.226 13.5839 123.216 13.7567 123.178 13.8911ZM122.161 13.0943C122.161 12.3167 121.767 11.7695 121.057 11.7695C120.414 11.7695 119.906 12.3263 119.838 13.0943H122.161Z" fill="white"/>
</svg>
