<svg width="34" height="33" viewBox="0 0 34 33" fill="none" xmlns="http://www.w3.org/2000/svg">
<g clip-path="url(#clip0_72_11142)">
<path fill-rule="evenodd" clip-rule="evenodd" d="M17 0C26.3633 0 34 7.41207 34 16.5C34 25.5879 26.3633 32.9999 17 32.9999C7.63676 32.9999 0 25.5879 0 16.5C0 7.41207 7.63676 0 17 0Z" fill="black"/>
<path d="M7.12327 11.5513L3.11182 8.20253L4.61394 6.50742C4.91963 6.16251 5.20576 5.92023 5.47062 5.77908C5.73718 5.63771 6.00683 5.57908 6.28028 5.60243C6.55264 5.62502 6.78237 5.71249 6.96733 5.86685C7.1382 6.0095 7.25314 6.19697 7.31124 6.42843C7.37041 6.65885 7.35192 6.91982 7.2581 7.2091C7.5713 6.99497 7.87823 6.88709 8.17952 6.88258C8.48182 6.87883 8.7497 6.9744 8.98322 7.1693C9.16778 7.32195 9.30744 7.51928 9.38801 7.74125C9.47032 7.96543 9.49662 8.17963 9.468 8.38437C9.43938 8.5891 9.35839 8.80878 9.22805 9.04385C9.09763 9.27899 8.90486 9.54064 8.64952 9.82879L7.12327 11.5513ZM5.3279 9.01157L6.19349 8.0348C6.4274 7.77075 6.58017 7.56722 6.65188 7.42585C6.74579 7.24093 6.78114 7.07088 6.75576 6.91614C6.73032 6.76148 6.64809 6.62514 6.50793 6.50809C6.37534 6.39735 6.22597 6.33489 6.06168 6.3222C5.89568 6.30981 5.73517 6.35508 5.58046 6.45644C5.42483 6.55884 5.20298 6.77237 4.91492 7.09738L4.11547 7.99959L5.3279 9.01157V9.01157ZM7.17997 10.5576L8.17604 9.43366C8.34746 9.24018 8.46117 9.09903 8.51794 9.01097C8.61758 8.85458 8.68271 8.70945 8.71334 8.57416C8.74498 8.43947 8.7374 8.3014 8.69338 8.16041C8.64751 8.01964 8.56242 7.89561 8.43448 7.78877C8.28511 7.66399 8.11702 7.59867 7.92944 7.59222C7.74287 7.58644 7.55908 7.64154 7.37815 7.75777C7.19923 7.87354 6.98109 8.07565 6.72668 8.36274L5.80146 9.40685L7.17997 10.5576V10.5576ZM13.793 5.79861V1.39453H14.9892L16.4092 4.51274C16.5405 4.803 16.637 5.02035 16.6957 5.16495C16.7642 5.00496 16.8704 4.76906 17.0156 4.45846L18.4523 1.39453H19.5214V5.79861H18.7556V2.11228L17.0115 5.79861H16.2946L14.5588 2.04966V5.79861H13.793ZM24.6444 8.37025L27.4209 4.71636L27.7997 5.1702L25.9194 7.49244C25.7259 7.73383 25.5251 7.96963 25.3173 8.19952C25.7646 7.98953 26.0224 7.86933 26.0936 7.83907L28.9994 6.60712L29.4453 7.14115L28.0645 9.02013C27.7232 9.48711 27.3802 9.90012 27.0369 10.2591C27.2939 10.1266 27.5962 9.98173 27.9408 9.82406L30.6384 8.57018L31.0102 9.0154L26.7274 10.865L26.3713 10.4383L28.4627 7.62638C28.6377 7.39071 28.746 7.24753 28.7877 7.19671C28.5969 7.28853 28.4322 7.36398 28.2929 7.42322L25.0214 8.82162L24.6444 8.37025Z" fill="white"/>
<path fill-rule="evenodd" clip-rule="evenodd" d="M27.0423 16.6636C27.0423 21.942 22.6068 26.247 17.1685 26.247V16.6636H27.0423Z" fill="#00ACEC"/>
<path fill-rule="evenodd" clip-rule="evenodd" d="M27.0423 16.3368C27.0423 11.0585 22.6068 6.75342 17.1685 6.75342V16.3368H27.0423Z" fill="white"/>
<path fill-rule="evenodd" clip-rule="evenodd" d="M6.95801 16.3368C6.95801 11.0585 11.3934 6.75342 16.8318 6.75342V16.3368H6.95801Z" fill="#00ACEC"/>
<path fill-rule="evenodd" clip-rule="evenodd" d="M6.95801 16.6636C6.95801 21.942 11.3934 26.247 16.8318 26.247V16.6636H6.95801Z" fill="white"/>
</g>
<defs>
<clipPath id="clip0_72_11142">
<rect width="34" height="33" fill="white"/>
</clipPath>
</defs>
</svg>
