<svg width="32" height="40" viewBox="0 0 32 40" fill="none" xmlns="http://www.w3.org/2000/svg">
<path fill-rule="evenodd" clip-rule="evenodd" d="M14.637 0.122584C11.1504 0.753245 8.47467 4.11632 8.69259 7.59389C8.81276 9.51032 10.2744 12.3256 13.1261 16.1335C14.5797 18.0745 15.5768 19.2596 15.8041 19.3168C16.1887 19.4134 16.3904 19.2693 17.1313 18.3689C20.4152 14.3779 22.7508 10.5307 23.2116 8.35355C23.6465 6.29852 22.829 3.8166 21.17 2.1555C19.4469 0.430071 17.0538 -0.314574 14.637 0.122584ZM17.7084 1.57741C18.7477 1.899 19.3909 2.29427 20.2111 3.11559C21.042 3.94752 21.4309 4.58753 21.7592 5.66327C22.029 6.54743 22.0313 7.72314 21.7647 8.58377C21.3407 9.95223 20.142 12.1026 18.5843 14.2888C17.5531 15.7357 16.1443 17.4704 16 17.4704C15.8558 17.4704 14.4469 15.7357 13.4158 14.2888C11.8581 12.1026 10.6593 9.95223 10.2354 8.58377C9.96879 7.72314 9.97104 6.54743 10.2409 5.66327C10.5691 4.58753 10.9581 3.94752 11.7889 3.11559C12.7537 2.14958 13.7089 1.63749 14.9802 1.40468C15.6343 1.28494 17.0535 1.37481 17.7084 1.57741ZM15.0221 3.45554C13.6118 3.83579 12.4953 4.96235 12.1275 6.37604C11.3853 9.2292 14.1054 11.9528 16.9549 11.2096C18.53 10.7988 19.7128 9.47636 19.9443 7.86716C20.3402 5.11547 17.6865 2.73701 15.0221 3.45554ZM17.125 4.91896C17.6536 5.17004 18.1554 5.67078 18.4145 6.20565C18.7043 6.80369 18.7043 7.86057 18.4145 8.45861C18.1575 8.98922 17.6577 9.49038 17.125 9.75189C16.5268 10.0456 15.4733 10.0456 14.875 9.75189C12.7088 8.68841 12.8894 5.6248 15.1671 4.79605C15.693 4.60472 16.581 4.66046 17.125 4.91896ZM9.81912 14.7605C7.74065 15.1117 5.92802 16.4369 5.02458 18.2657L4.70807 18.9065L3.2497 18.9428C1.93492 18.9754 1.75225 18.9981 1.39457 19.1731C0.855225 19.4368 0.283461 20.09 0.125457 20.6228C-0.0553812 21.2325 -0.0377141 22.3866 0.159041 22.8205C0.347962 23.2369 0.792807 23.5939 1.20682 23.6611C1.43807 23.6988 1.50257 23.7437 1.47082 23.845C1.44774 23.9186 1.3329 24.2457 1.21565 24.5716C1.0984 24.8975 0.965061 25.4232 0.919393 25.7398C0.806474 26.522 0.808973 31.7013 0.922643 32.3288C1.06048 33.09 1.49816 33.9194 2.05617 34.4765C2.55493 34.9745 3.43329 35.4845 3.96389 35.5841L4.24973 35.6379V37.2294C4.24973 39.0734 4.33065 39.3714 4.94124 39.776C5.27292 39.9958 5.30442 40 6.62479 40C7.94515 40 7.97665 39.9958 8.30833 39.776C8.91643 39.3731 8.99985 39.0698 8.99985 37.2617V35.7027H16H23.0002V37.2617C23.0002 39.0698 23.0836 39.3731 23.6917 39.776C24.0234 39.9958 24.0549 40 25.3753 40C26.6956 40 26.7271 39.9958 27.0588 39.776C27.6694 39.3714 27.7503 39.0734 27.7503 37.2294V35.6379L28.0362 35.5841C29.0158 35.4001 30.226 34.415 30.7095 33.408C31.1479 32.495 31.1857 32.0813 31.1449 28.6391C31.1059 25.3479 31.0869 25.1828 30.6295 24.1471L30.4349 23.7065L30.7624 23.6625C31.191 23.605 31.6465 23.2493 31.841 22.8205C32.0371 22.3881 32.0554 21.2325 31.8758 20.6269C31.7177 20.0935 31.1954 19.4928 30.6356 19.2004C30.2293 18.9881 30.1383 18.9757 28.7503 18.9458L27.292 18.9143L27.0215 18.3444C26.0138 16.2204 23.5451 14.6751 21.1595 14.6751H20.6668V15.3309V15.9867L21.3543 16.0309C23.1127 16.1439 24.84 17.1855 25.6772 18.6374C26.0112 19.2165 26.3143 20.2123 26.3809 20.9494L26.437 21.5684L25.9061 21.7306C25.3938 21.8872 25.0489 21.8929 16 21.8929C7.01246 21.8929 6.60329 21.8863 6.10394 21.7337L5.58309 21.5744V21.2504C5.58309 20.6348 5.84318 19.6393 6.18911 18.9307C7.0303 17.2078 8.93268 16.0174 10.8541 16.0116L11.3332 16.0102V15.3426V14.6751L10.7707 14.6849C10.4613 14.6903 10.0331 14.7243 9.81912 14.7605ZM4.30173 20.6204C4.24573 20.9976 4.27081 20.9706 3.1247 21.8846L2.54135 22.3498L1.93717 22.3508L1.33299 22.3518V21.6966C1.33299 21.1526 1.36532 20.9933 1.52341 20.7579C1.78616 20.3665 2.12051 20.2759 3.32287 20.2704L4.3544 20.2658L4.30173 20.6204ZM29.9925 20.3747C30.4652 20.5406 30.621 20.8404 30.6548 21.6487L30.6841 22.3518H30.0235C29.4204 22.3518 29.3451 22.333 29.1607 22.1361C29.0496 22.0173 28.7023 21.7298 28.3891 21.4971C27.8218 21.0756 27.667 20.8552 27.667 20.469V20.2658L28.6878 20.2704C29.2515 20.2731 29.8358 20.3198 29.9925 20.3747ZM5.36684 22.9151L6.29144 23.228H16H25.7086L26.6532 22.9087L27.5977 22.5892L27.9328 22.8217C28.7483 23.3876 29.4779 24.5489 29.7084 25.6478C29.852 26.3329 29.8791 28.8479 29.7503 29.5284C29.5688 30.4864 28.9148 31.2798 28.0348 31.6095C27.5815 31.7794 27.4743 31.7809 16 31.7809H4.42265L3.94097 31.6004C3.28295 31.3539 2.58602 30.6575 2.36718 30.0277C2.22876 29.6294 2.20801 29.3247 2.20801 27.6922C2.20801 25.3575 2.33401 24.8402 3.17878 23.7073C3.46329 23.3259 4.25973 22.6022 4.39515 22.6022C4.42106 22.6022 4.85833 22.743 5.36684 22.9151ZM6.12477 25.4295C4.58248 25.8351 3.82038 27.5192 4.5619 28.8834C5.46451 30.5438 7.86898 30.5185 8.71867 28.8396C9.47519 27.3447 8.48108 25.5493 6.81554 25.4027C6.57312 25.3813 6.26228 25.3934 6.12477 25.4295ZM11.4582 25.4566C11.213 25.5973 11.0886 25.7878 11.0881 26.0233C11.0877 26.1381 11.2908 27.0392 11.5392 28.0257C11.8908 29.4218 12.0309 29.8519 12.1713 29.9657C12.3371 30.1002 12.6472 30.112 16 30.112C19.3529 30.112 19.6629 30.1002 19.8287 29.9657C19.9691 29.8519 20.1093 29.4218 20.4608 28.0257C20.7092 27.0392 20.9123 26.1381 20.912 26.0233C20.9114 25.7803 20.7823 25.5893 20.5265 25.4528C20.2699 25.316 11.6969 25.3195 11.4582 25.4566ZM24.8752 25.4289C24.3926 25.5545 24.0058 25.7914 23.6346 26.1888C22.2498 27.6712 23.3326 30.112 25.3753 30.112C27.3764 30.112 28.4712 27.7353 27.1581 26.2415C26.968 26.0254 26.6322 25.7571 26.4119 25.6452C25.9769 25.4245 25.2728 25.3254 24.8752 25.4289ZM7.0423 26.811C7.37322 26.9495 7.66573 27.3762 7.66615 27.7213C7.66665 28.0681 7.44881 28.4715 7.17313 28.6346C6.28028 29.1627 5.25075 28.1963 5.7246 27.275C5.8736 26.9853 6.31761 26.6913 6.60662 26.691C6.68829 26.691 6.88438 26.7449 7.0423 26.811ZM19.3842 26.8369C19.3601 26.9172 19.2404 27.3865 19.1183 27.8799L18.8962 28.7769H16H13.1039L12.8818 27.8799C12.7596 27.3865 12.6399 26.9172 12.6159 26.8369C12.5746 26.6995 12.7741 26.6909 16 26.6909C19.2259 26.6909 19.4254 26.6995 19.3842 26.8369ZM25.9984 26.9257C26.2649 27.1231 26.4626 27.6656 26.3833 27.982C26.3505 28.1126 26.1985 28.3448 26.0454 28.4982C25.2085 29.3361 23.8817 28.2266 24.5022 27.2076C24.8107 26.701 25.5155 26.5681 25.9984 26.9257ZM2.9997 32.6396C3.88013 33.1412 3.28945 33.1209 16.2258 33.0965L28.042 33.0742L28.5742 32.846C28.8669 32.7204 29.235 32.5195 29.3922 32.3995C29.5494 32.2795 29.6981 32.2014 29.7227 32.226C29.8074 32.3108 29.3524 33.1781 29.0441 33.5198C28.8743 33.708 28.5232 33.9663 28.2637 34.0939L27.792 34.3259H16H4.20806L3.82672 34.1377C3.22962 33.8431 2.78411 33.4092 2.50535 32.8507C2.19084 32.2205 2.16676 32.0103 2.43718 32.2557C2.54027 32.3493 2.79344 32.522 2.9997 32.6396ZM7.64756 37.1838L7.62481 38.6649H6.62479H5.62476L5.60201 37.1838L5.57926 35.7027H6.62479H7.67031L7.64756 37.1838ZM26.398 37.1838L26.3753 38.6649H25.3753H24.3752L24.3525 37.1838L24.3297 35.7027H25.3753H26.4208L26.398 37.1838Z" fill="#00ACEC"/>
</svg>
