<svg width="41" height="34" viewBox="0 0 41 34" fill="none" xmlns="http://www.w3.org/2000/svg">
<g clip-path="url(#clip0_72_11153)">
<path d="M34.2923 28.0777C34.3498 28.1033 34.3849 28.0569 34.3849 27.9977V27.4765C34.3849 27.4094 34.3514 27.379 34.2891 27.3502C34.2891 27.3502 34.1679 27.2751 33.8744 27.1952C33.6366 27.1344 33.2857 27.0737 32.914 27.0737C32.0254 27.0737 31.6154 27.3678 31.3617 27.71C31.1144 28.0473 31.0203 28.463 31.1017 28.9282C31.242 29.6988 31.8563 30.172 32.4848 30.6437C32.9698 31.0098 33.4404 31.2928 33.5952 31.7644C33.6606 31.953 33.6287 32.252 33.4707 32.4039C33.2889 32.5686 33.0942 32.6309 32.7624 32.6309C32.3923 32.6309 31.9264 32.551 31.4303 32.3239C31.3489 32.2792 31.2484 32.2296 31.2484 32.2296C31.1958 32.2088 31.1527 32.2392 31.1543 32.2968L31.1527 32.8403C31.1543 32.8979 31.1974 32.9475 31.2548 32.9746C31.2548 32.9746 31.3202 33.0018 31.384 33.021C31.7924 33.1633 32.2535 33.2352 32.7768 33.2352C33.6478 33.2352 34.1137 32.9219 34.3609 32.6405C34.6449 32.3224 34.7805 31.8459 34.6752 31.2832C34.5077 30.3879 33.7611 29.9002 33.1628 29.4798C32.7145 29.1632 32.2663 28.8499 32.1498 28.4901C32.0636 28.2168 32.1753 28.0361 32.2455 27.9418C32.3604 27.7835 32.622 27.6636 32.9698 27.6636C33.2729 27.6636 33.5872 27.7243 33.9318 27.8874C33.9988 27.9178 34.1456 27.9929 34.2923 28.0777V28.0777ZM40.1329 27.2527C40.1329 27.192 40.0898 27.144 40.034 27.144H39.4501C39.3974 27.144 39.3528 27.192 39.3528 27.2527V31.6397C39.3528 32.1881 38.9763 32.6357 38.2248 32.6357C37.3729 32.6357 37.1512 32.1017 37.0922 31.7724C37.0587 31.5965 37.0587 31.4255 37.0603 31.2704L37.0634 27.347C37.0634 27.2351 36.9821 27.1456 36.8816 27.1456H35.9164C35.8175 27.1456 35.7345 27.2351 35.7345 27.347V30.8259C35.7329 31.0753 35.7361 31.3759 35.7872 31.6653C35.9244 32.4103 36.6024 33.2352 38.0573 33.2352C39.2889 33.2352 40.0483 32.8499 40.1233 31.6541C40.1329 31.4446 40.1313 31.3343 40.1313 30.9922L40.1329 27.2527ZM30.6885 27.144H26.1928C26.137 27.144 26.0939 27.192 26.0939 27.2527V27.6908C26.0939 27.7515 26.1354 27.7995 26.188 27.7995H27.7897V32.965C27.7897 33.0802 27.8711 33.1729 27.9748 33.1729H28.9432C29.0485 33.1729 29.1282 33.0818 29.1282 32.965V27.7995H30.6885C30.7555 27.7995 30.7954 27.7515 30.7954 27.6908V27.2527C30.7954 27.1936 30.7475 27.144 30.6885 27.144V27.144ZM22.7421 30.9378L23.5844 28.3479L24.4331 30.9378H22.7421ZM26.5326 32.965L24.5831 27.3454C24.5496 27.2319 24.4379 27.144 24.3342 27.144H23.3499C23.2941 27.144 23.235 27.1904 23.2127 27.2495L21.26 33.0626C21.2409 33.1217 21.2696 33.1713 21.3254 33.1713H21.9205C21.9731 33.1713 22.0322 33.1217 22.0529 33.0626L22.5347 31.5837H24.6453L25.0984 32.9634C25.1351 33.077 25.2452 33.1665 25.3489 33.1665L26.4146 33.1697C26.5119 33.1713 26.5661 33.0802 26.5326 32.965V32.965ZM7.75706 30.9378L8.5978 28.3495L9.44333 30.9378H7.75706ZM11.5444 32.9698L9.59489 27.347C9.55819 27.2351 9.44971 27.1456 9.34601 27.1456H8.3569C8.30426 27.1456 8.24363 27.192 8.22449 27.2511L6.2702 33.0642C6.24946 33.1233 6.27818 33.1729 6.33242 33.1729H6.92748C6.98332 33.1729 7.04075 33.1233 7.05989 33.0642L7.54168 31.5853H9.65232L10.1102 32.9682C10.1405 33.0818 10.2538 33.1729 10.3543 33.1729L11.4231 33.1745C11.5252 33.1745 11.5779 33.0834 11.5444 32.9698ZM2.79874 32.527H1.90216V27.7883H2.79715C3.88038 27.7883 4.22816 28.5125 4.22816 30.1465C4.22976 31.7964 3.90431 32.527 2.79874 32.527V32.527ZM3.14333 27.1456H0.758302C0.654605 27.1456 0.573242 27.2367 0.573242 27.3486V32.9666C0.573242 33.0802 0.654605 33.1713 0.758302 33.1713H3.1194C4.51692 33.1713 5.60813 32.308 5.60813 30.1465C5.60813 28.0169 4.52809 27.1456 3.14333 27.1456V27.1456ZM20.1943 27.144H19.2323C19.1302 27.144 19.0473 27.2335 19.0473 27.3454V29.6844H17.0212V27.3454C17.0212 27.2319 16.9398 27.144 16.8393 27.144H15.8789C15.7752 27.144 15.6939 27.2335 15.6939 27.3454V32.965C15.6939 33.0802 15.7752 33.1729 15.8789 33.1729H16.8393C16.9398 33.1729 17.0212 33.0818 17.0212 32.965V30.3303H19.0473V32.965C19.0473 33.0802 19.1318 33.1729 19.2323 33.1729H20.1943C20.2948 33.1729 20.373 33.0818 20.373 32.965V27.3454C20.373 27.2335 20.2948 27.144 20.1943 27.144ZM13.7635 33.1713C13.864 33.1713 13.9454 33.0802 13.9454 32.9634V27.3438C13.9454 27.2303 13.864 27.1424 13.7635 27.1424H12.76C12.6563 27.1424 12.5766 27.2319 12.5766 27.3438V32.9634C12.5766 33.0786 12.6563 33.1713 12.76 33.1713H13.7635ZM0.573242 0.764648V24.0856H40.1329V0.764648H0.573242Z" fill="#FF0000"/>
<path d="M5.38141 6.39552C4.94269 6.40991 4.47047 6.43229 3.24365 6.48665C4.41942 7.66493 10.6285 13.8937 12.5158 15.785C12.5892 15.8585 12.5221 15.9273 12.4376 16.0392C12.3211 16.1974 10.8598 18.2614 10.0765 19.542C19.1699 18.1703 26.3506 16.4405 30.2591 15.1471C33.0526 14.223 36.0024 13.2605 37.1494 12.0727C37.4174 11.7961 37.5754 11.3996 37.5754 11.0719C37.5754 10.167 35.9992 9.58342 34.9319 9.24129C31.7635 8.22609 30.0103 7.97029 26.416 7.43311C25.1189 7.23966 16.7737 6.4195 9.68404 6.37633C8.29928 6.36674 7.66274 6.37633 6.13122 6.37633C7.68508 7.93352 12.9593 13.2446 14.5658 14.8545L19.2465 14.418C19.2465 14.418 13.5144 8.63377 12.5748 7.68891C20.3824 7.53063 29.8555 8.67853 32.984 9.54505C34.5219 9.97192 36.6325 10.4931 36.6325 11.1054C36.6325 11.5339 35.8524 11.8504 34.6942 12.2006C26.9408 14.5379 18.1601 15.1327 14.4366 15.4524C13.4315 14.4452 7.28465 8.30283 5.38141 6.39552V6.39552Z" fill="white"/>
</g>
<defs>
<clipPath id="clip0_72_11153">
<rect width="39.5596" height="32.4706" fill="white" transform="translate(0.573242 0.764648)"/>
</clipPath>
</defs>
</svg>
