<svg width="52" height="28" viewBox="0 0 52 28" fill="none" xmlns="http://www.w3.org/2000/svg">
<g clip-path="url(#clip0_72_11145)">
<path d="M6.51703 0L6.8111 0.0110001H7.69329C14.781 0.0110001 26.2707 4.18319 42.1638 12.5291C44.7274 14.2876 46.7331 15.166 48.1808 15.166C48.3467 15.166 48.6182 15.1142 48.9952 15.0104C49.3722 14.9067 49.9075 14.737 50.6012 14.5013C51.129 14.6191 51.3929 14.8706 51.3929 15.254V15.4976C50.6842 16.5615 49.6361 17.0926 48.2487 17.0926H47.276L47.3213 17.2702V17.5797C47.3213 18.4063 46.8387 18.8212 45.8735 18.8212C44.7124 18.8212 43.1893 17.9868 41.3042 16.3179C40.5502 15.8449 39.5398 15.6092 38.2731 15.6092C37.4135 15.6233 36.7349 15.6312 36.2372 15.6312C35.7396 15.6312 35.3777 15.639 35.1515 15.6532L35.1168 15.6547C35.0851 15.6563 35.0565 15.6563 35.0338 15.6563C32.3827 15.6547 30.3499 14.1839 28.9324 11.2437C28.5855 10.9624 28.2462 10.7408 27.9144 10.579C27.5827 10.4171 27.2434 10.3354 26.8965 10.3354C25.5845 10.4234 24.5968 10.4752 23.9332 10.491C23.2697 10.5051 22.855 10.5208 22.6891 10.535H22.5504C22.5051 10.5334 22.4614 10.5334 22.4177 10.535C21.9804 10.535 21.4299 10.4752 20.7664 10.3574C20.1029 10.2395 19.2659 10.04 18.2555 9.75867C18.2555 10.0101 18.0746 10.2097 17.7126 10.3574C17.3507 10.5051 16.8003 10.6308 16.0613 10.7345C15.5185 10.7345 14.8398 10.6167 14.0255 10.3794C13.2112 10.1421 12.2611 9.7791 11.1753 9.28724L11.1316 9.27152C10.9657 9.21181 10.7395 9.18352 10.453 9.18352H10.3173C10.1966 9.18352 10.1212 9.26524 10.0911 9.4271C10.0609 9.58895 9.99153 9.83253 9.88295 10.1578C9.46372 10.601 9.12592 10.8225 8.86956 10.8225H8.48501C7.92704 10.8225 7.57265 10.4234 7.42185 9.62667C7.42185 8.59266 8.01752 7.82422 9.20886 7.32293C9.51047 7.16107 9.84223 7.05736 10.2042 7.01336C10.5661 6.96936 10.9582 6.9395 11.3804 6.92536H11.765V6.79178C10.0307 5.4922 8.53025 4.84162 7.26351 4.84162C6.32853 4.87148 5.28045 5.41048 4.12078 6.46178L3.599 6.54821C3.16167 6.54821 2.89776 6.23863 2.80728 5.61791L2.8299 5.51577L2.99126 5.20777L2.93848 4.80862L3.14659 4.98305C3.19786 5.00191 3.24159 5.00191 3.27779 4.98462C3.53717 4.91862 3.74075 4.78976 3.89156 4.59805C4.04236 4.40633 4.11776 4.16904 4.11776 3.88932C4.05744 3.68189 3.98958 3.52789 3.91418 3.42418C3.83877 3.32046 3.7302 3.24975 3.58693 3.21046L3.33208 3.22618C2.9053 3.52004 2.69116 3.82332 2.69116 4.1329C2.69116 4.35447 2.75149 4.54619 2.87213 4.70962L2.46496 4.46762C1.1771 4.4849 0.521112 4.0779 0.5 3.2466C0.5 2.93703 0.877007 2.49388 1.63102 1.91716C1.63102 0.95701 3.16016 0.320575 6.21693 0.00942867L6.51703 0ZM2.08343 1.76159V2.00516L2.46798 2.02716C2.61878 1.56987 2.91284 1.34044 3.35017 1.34044H4.11927C4.25499 1.34044 4.32285 1.38444 4.32285 1.47401C3.976 2.09316 3.22953 2.40431 2.08343 2.40431C1.4199 2.71388 1.08813 3.09889 1.08813 3.55618C1.08813 3.74789 1.26909 3.93961 1.63102 4.1329C1.84214 4.1329 2.06835 4.00718 2.30963 3.75575C2.55092 3.50432 2.8299 3.14289 3.14659 2.66988C3.25215 2.59603 3.35017 2.55203 3.44065 2.53631C3.53114 2.5206 3.62916 2.50645 3.73472 2.49231C4.08157 2.49231 4.35301 2.61017 4.54906 2.84746C4.7451 3.08475 4.84312 3.46032 4.84312 3.97733C4.84312 4.34662 4.31531 4.95162 3.25969 5.79392C3.32001 5.88192 3.38787 5.92749 3.46328 5.92749H3.599C3.7498 5.92749 3.95338 5.84577 4.20975 5.68391C4.46611 5.52206 4.73907 5.32563 5.02861 5.09934C6.02089 4.69233 6.51703 4.17847 6.51703 3.55775L6.26821 2.53788H6.33607C6.53211 2.53788 6.74324 2.6636 6.96944 2.91503C7.19564 3.16646 7.46709 3.53575 7.78378 4.0229C8.96004 4.0229 10.2645 4.72376 11.6971 6.12706C11.6217 5.9652 11.5765 5.78763 11.5614 5.59591C11.5463 5.4042 11.5312 5.19677 11.5161 4.97519L11.5116 4.30104C11.4528 3.90033 11.7182 4.41419 12.3079 5.84263C12.4949 6.32664 12.9035 6.7195 13.5354 7.01964C13.7601 7.15793 13.9607 7.25222 14.1386 7.30093C14.3166 7.34965 14.4885 7.4015 14.6528 7.45493L15.0464 7.63565L12.24 7.34493C12.1465 7.35279 12.0907 7.35593 12.0726 7.35593C12.053 7.35593 12.0379 7.35436 12.0259 7.35279C11.9972 7.34965 11.9716 7.3465 11.9459 7.34493C9.62357 7.34493 8.32667 8.14951 8.05522 9.76024V9.87024C8.23618 10.2835 8.47747 10.491 8.77907 10.491L8.95853 10.4831C9.12441 10.4124 9.26164 10.2898 9.3672 10.1138C9.47277 9.93939 9.53912 9.79796 9.56626 9.68953L9.38229 9.38467L9.3672 9.07352C9.3672 8.85195 9.68389 8.69637 10.3173 8.60837H10.8375C11.2447 8.60837 12.5416 8.9038 14.7282 9.49467C14.9695 9.52452 15.158 9.55438 15.2938 9.58267C15.4295 9.61253 15.5275 9.62667 15.5878 9.62667C16.2815 9.55281 16.8018 9.39095 17.1486 9.13952C17.4955 8.88809 17.6689 8.5188 17.6689 8.03165V7.34493C17.6689 7.21136 17.6538 7.0055 17.6237 6.72421C17.5935 6.44292 17.5332 6.0972 17.4427 5.68234L17.6553 5.80334C19.8209 7.14064 21.9924 7.85251 24.1685 7.94051L23.9212 7.94522L23.2109 7.94208C22.6077 7.94208 21.9291 7.88237 21.1751 7.76451C20.4211 7.64665 19.5389 7.46122 18.5285 7.21136V7.32136C18.6039 7.52879 18.6567 7.71265 18.6868 7.87451C18.717 8.03637 18.7321 8.20608 18.7321 8.38366V8.69323C18.9432 8.98866 19.4484 9.23224 20.2476 9.42395C21.0469 9.61567 22.1327 9.79324 23.505 9.9551H23.6392H24.0252H25.6087L26.0596 9.95981L26.2647 9.9551C26.4305 9.92524 26.5889 9.90324 26.7397 9.8891C26.8905 9.87496 27.0338 9.8671 27.1695 9.8671H27.5314L27.5329 9.81524C27.456 9.61253 27.3429 9.42395 27.1921 9.24638C27.0413 9.06881 26.8754 8.85509 26.6944 8.60366L26.8166 8.67594C27.5797 9.15995 28.1934 9.68167 28.6609 10.2427C29.1284 10.8037 29.4828 11.3725 29.7241 11.9493C31.0361 13.8099 32.808 14.7401 35.0399 14.7401H36.8495C39.5338 14.7401 41.3057 15.3169 42.1653 16.4687C42.7987 16.9559 43.3416 17.3252 43.794 17.5766C44.2464 17.828 44.6083 17.96 44.8798 17.9758H45.3095C45.9128 17.9758 46.2144 17.74 46.2144 17.267C46.2144 17.0895 46.0862 16.9056 45.8298 16.7139C45.5734 16.5222 45.1738 16.3226 44.6309 16.1152C43.7714 15.2289 43.1154 14.572 42.663 14.143C42.2105 13.714 41.8939 13.5003 41.7129 13.5003C41.5018 13.4264 41.0267 13.3667 40.2878 13.3227C39.5489 13.2787 38.5083 13.2127 37.1662 13.1231C36.4574 12.9456 35.7441 12.0781 35.0248 10.5224C35.0052 10.4988 34.8966 10.3322 34.7006 10.0227L34.9222 10.2018L36.7455 12.174C36.8148 12.4537 38.5687 12.8151 42.0055 13.2583C42.1412 13.2583 43.0988 14.1069 44.8783 15.8056C46.4768 16.4106 47.6379 16.7139 48.3618 16.7139C49.2214 16.684 49.8547 16.552 50.2619 16.3147C50.6691 16.079 50.8727 15.7537 50.8727 15.3404C50.7822 15.2524 50.7068 15.1849 50.6465 15.1409C50.5861 15.0969 50.5032 15.0749 50.3976 15.0749C49.9151 15.2367 49.4928 15.3624 49.1309 15.452C48.769 15.54 48.4749 15.5919 48.2487 15.6076C46.9216 15.6076 44.6596 14.6176 41.4626 12.6391C38.914 11.2955 36.2448 10.0101 33.4549 8.78437C30.6651 7.55865 27.6792 6.35492 24.4973 5.1732C19.6866 3.41475 16.9601 2.54417 16.3177 2.55831C16.4776 2.89932 16.5876 3.16489 16.648 3.35661C16.7083 3.54832 16.758 3.68504 16.7973 3.76675L16.8908 3.98047C14.407 2.06802 11.8826 1.07015 9.32196 0.986867H9.16362C8.77153 0.986867 8.43977 1.03872 8.16832 1.14244C7.89688 1.24616 7.62543 1.42373 7.35399 1.67359L7.49273 1.64373C8.06276 1.7223 8.88916 2.47817 9.97042 3.90975L10.0217 3.97733L9.89049 3.89247C9.37475 3.49175 8.77003 3.12875 8.07633 2.80346C7.38264 2.47817 6.60751 2.18274 5.74794 1.91716L5.49911 1.60759V1.47401H6.33607C6.59243 1.47401 6.83372 1.43001 7.05992 1.34044C7.28613 1.25244 7.49725 1.07487 7.69329 0.809294V0.765293L6.8111 0.60972H5.54435C3.599 0.787294 2.44536 1.17073 2.08343 1.76159V1.76159ZM6.33607 0.897295H7.05992V1.07487C6.90912 1.13458 6.75078 1.17073 6.58489 1.18487C6.41901 1.19901 6.25313 1.21473 6.08724 1.22887H5.97414C5.88366 1.22887 5.83842 1.17701 5.83842 1.0733C5.95906 0.95701 6.12494 0.897295 6.33607 0.897295V0.897295ZM2.80728 2.00516H2.96563C3.26723 2.00516 3.45573 1.89516 3.53114 1.67359H3.25969C3.00333 1.67359 2.85252 1.78359 2.80728 2.00516Z" fill="url(#paint0_linear_72_11145)"/>
<path d="M2.62007 23.7947H4.58503C5.26968 23.7947 5.7628 23.9361 6.06139 24.219C6.35998 24.5018 6.50927 24.9167 6.50927 25.4636C6.50927 26.0073 6.35998 26.4206 6.06139 26.7019C5.7628 26.9847 5.27118 27.1277 4.58503 27.1324H2.62007V23.7947ZM0.950684 27.9999H5.13395C6.19862 27.9999 6.99938 27.783 7.53624 27.3477C8.07159 26.9124 8.34304 26.2854 8.35058 25.4636C8.35058 24.6417 8.08215 24.0147 7.5468 23.5794C7.01145 23.1441 6.20616 22.9272 5.13395 22.9272H0.950684V27.9999Z" fill="url(#paint1_linear_72_11145)"/>
<path d="M9.06396 27.9999H10.7334V25.8816H13.8987V27.9999H15.5681V22.9272H13.8987V25.0456H10.7334V22.9272H9.06396V27.9999ZM16.0763 27.9999H17.8573L18.6309 26.7679H21.8882L22.6619 27.9999H24.4428L21.1056 22.9272H19.4166L16.0763 27.9999ZM20.2611 24.1655L21.3906 25.9711H19.1316L20.2611 24.1655ZM26.6219 27.9999V24.2111H26.6627L28.6774 27.9999H30.3257L32.3313 24.2111H32.3826V27.9999H34.0535V22.9272H31.5502L29.5038 26.8386L27.4574 22.9272H24.9541V27.9999H26.6219ZM36.5372 27.9999V22.9272H34.8678V27.9999H36.5372ZM39.8956 27.9999C40.2952 27.9999 40.6617 27.9622 40.995 27.8883C41.3267 27.8144 41.6117 27.7029 41.85 27.5551C42.0883 27.4074 42.2768 27.2157 42.42 26.9816C42.5618 26.7474 42.6297 26.4724 42.6236 26.1597V22.9272H40.9542V26.089C40.9542 26.2807 40.9075 26.441 40.8125 26.5714C40.7175 26.7019 40.5893 26.8103 40.4264 26.8967C40.2636 26.9831 40.0901 27.0429 39.9077 27.0727C39.7252 27.1026 39.5307 27.123 39.3271 27.1309H37.1495V27.9983L39.8956 27.9999ZM43.1318 27.9999H44.9128L45.6864 26.7679H48.9438L49.7174 27.9999H51.4984L48.1611 22.9272H46.4721L43.1318 27.9999ZM47.3166 24.1655L48.4461 25.9711H46.1871L47.3166 24.1655Z" fill="url(#paint2_linear_72_11145)"/>
</g>
<defs>
<linearGradient id="paint0_linear_72_11145" x1="1.30579" y1="9.41079" x2="167.508" y2="9.41079" gradientUnits="userSpaceOnUse">
<stop stop-color="#242424"/>
<stop offset="1"/>
</linearGradient>
<linearGradient id="paint1_linear_72_11145" x1="0.707278" y1="25.4468" x2="103.201" y2="27.1703" gradientUnits="userSpaceOnUse">
<stop stop-color="#242424"/>
<stop offset="1"/>
</linearGradient>
<linearGradient id="paint2_linear_72_11145" x1="0.397694" y1="25.4634" x2="63.8" y2="25.4634" gradientUnits="userSpaceOnUse">
<stop stop-color="#242424"/>
<stop offset="1"/>
</linearGradient>
<clipPath id="clip0_72_11145">
<rect width="51" height="28" fill="white" transform="translate(0.5)"/>
</clipPath>
</defs>
</svg>
