<svg width="34" height="34" viewBox="0 0 34 34" fill="none" xmlns="http://www.w3.org/2000/svg">
<circle cx="17" cy="17" r="16.5" stroke="white"/>
<path d="M20.327 8C20.6692 8.0355 20.9734 8.0355 21.3156 8.07101C21.5437 8.07101 21.7719 8.10651 22 8.14201C22 9.10059 22 10.0237 22 11.0178C21.924 11.0178 21.8099 11.0178 21.7338 11.0178C21.0874 11.0178 20.4411 11.0178 19.7947 11.0533C18.9962 11.0888 18.5399 11.4793 18.5019 12.2249C18.4639 13.0059 18.5019 13.787 18.5019 14.6036C19.6046 14.6036 20.7453 14.6036 21.8859 14.6036C21.7338 15.6686 21.5817 16.7337 21.4297 17.7988C20.4411 17.7988 19.4905 17.7988 18.5019 17.7988C18.5019 20.5325 18.5019 23.2663 18.5019 26C17.3232 26 16.1445 26 14.9658 26C14.9658 23.2663 14.9658 20.568 14.9658 17.7988C13.9772 17.7988 12.9886 17.7988 12 17.7988C12 16.7337 12 15.6686 12 14.6036C12.9886 14.6036 13.9392 14.6036 14.9658 14.6036C14.9658 14.497 14.9658 14.4615 14.9658 14.3905C14.9658 13.5385 14.9658 12.7219 14.9658 11.8698C15.0038 10.8757 15.346 9.95266 16.1065 9.1716C16.6768 8.60355 17.3992 8.28402 18.2357 8.10651C18.4639 8.07101 18.692 8.0355 18.8821 8C19.3384 8 19.8327 8 20.327 8Z" fill="white"/>
</svg>
