<svg width="16" height="16" viewBox="0 0 16 16" fill="none" xmlns="http://www.w3.org/2000/svg">
<circle cx="8" cy="8" r="7.5" stroke="#001C3C"/>
<path d="M10.1635 4C10.3346 4.01578 10.4867 4.01578 10.6578 4.03156C10.7719 4.03156 10.8859 4.04734 11 4.06312C11 4.48915 11 4.89941 11 5.34122C10.962 5.34122 10.9049 5.34122 10.8669 5.34122C10.5437 5.34122 10.2205 5.34122 9.89734 5.357C9.4981 5.37278 9.26996 5.54635 9.25095 5.87771C9.23194 6.22485 9.25095 6.57199 9.25095 6.93491C9.80228 6.93491 10.3726 6.93491 10.943 6.93491C10.8669 7.40828 10.7909 7.88166 10.7148 8.35503C10.2205 8.35503 9.74524 8.35503 9.25095 8.35503C9.25095 9.57002 9.25095 10.785 9.25095 12C8.66159 12 8.07224 12 7.48289 12C7.48289 10.785 7.48289 9.5858 7.48289 8.35503C6.98859 8.35503 6.4943 8.35503 6 8.35503C6 7.88166 6 7.40828 6 6.93491C6.4943 6.93491 6.96958 6.93491 7.48289 6.93491C7.48289 6.88757 7.48289 6.87179 7.48289 6.84024C7.48289 6.46154 7.48289 6.09862 7.48289 5.71992C7.5019 5.27811 7.673 4.86785 8.05323 4.52071C8.3384 4.26824 8.69962 4.12623 9.11787 4.04734C9.23194 4.03156 9.346 4.01578 9.44106 4C9.6692 4 9.91635 4 10.1635 4Z" fill="#001C3C"/>
</svg>
