<svg width="74" height="28" viewBox="0 0 74 28" fill="none" xmlns="http://www.w3.org/2000/svg">
<path fill-rule="evenodd" clip-rule="evenodd" d="M37.0117 28C57.1623 28 73.5 21.7456 73.5 14.0119C73.5 6.27814 57.1623 0 37.0117 0C16.8377 0 0.5 6.27814 0.5 14.0119C0.5 21.746 16.8377 28 37.0117 28V28Z" fill="#425E99"/>
<path fill-rule="evenodd" clip-rule="evenodd" d="M37.0119 26.5675C17.6616 26.5675 1.93652 20.9817 1.93652 14.0116C1.93652 7.06557 17.6616 1.4082 37.0119 1.4082C56.4095 1.4082 72.1108 7.06557 72.1108 14.0116C72.1108 20.9817 56.4095 26.5675 37.0119 26.5675Z" fill="white"/>
<path fill-rule="evenodd" clip-rule="evenodd" d="M37.0117 25.5894C55.7736 25.5894 71.0039 20.4095 71.0039 14.0119C71.0039 7.63881 55.7736 2.45898 37.0117 2.45898C18.2264 2.45898 3.04248 7.63881 3.04248 14.0119C3.04287 20.4095 18.2264 25.5894 37.0117 25.5894V25.5894Z" fill="#425E99"/>
<path fill-rule="evenodd" clip-rule="evenodd" d="M45.9109 16.3274C47.5114 14.7998 48.4054 13.2006 50.713 13.2243C52.1016 13.248 52.4544 14.3701 52.6897 14.8476L55.7265 9.64407H57.5862L52.5488 18.691C52.4544 18.8817 52.2187 19.2397 52.2425 19.5262C52.2905 19.9796 52.8551 19.8605 52.6432 19.8605C53.6554 19.8126 55.5146 17.8553 55.9622 17.3782C56.0558 17.2583 56.2213 17.0439 56.3149 17.0439C56.4094 17.0439 56.5978 17.1392 56.5978 17.2824C56.5978 17.3782 56.3859 17.7359 56.2213 17.9507C55.2794 19.1444 53.726 20.9822 51.9604 21.03C51.0895 21.03 50.7594 20.672 50.6419 19.98C50.242 20.3376 48.8763 20.9584 47.4876 20.9584C46.3338 20.9347 45.8629 20.2423 45.628 19.6935C45.4161 19.2401 45.3217 18.5719 45.4864 17.9036C44.8507 18.2379 44.2623 18.2854 43.4148 18.2617C42.4257 18.2375 41.8135 17.7841 41.508 16.6142C40.378 18.7151 40.3304 18.7863 39.1774 20.9826H37.1765L39.7424 16.5667C40.0725 15.9697 40.2371 15.4925 40.3542 14.9916C40.4252 14.7048 40.2133 14.4421 39.907 14.4188C39.5777 14.4188 39.0369 14.7531 38.5183 15.254C38.5183 15.254 37.2003 16.6862 36.2349 18.1422C35.3164 19.527 33.7397 21.102 32.0213 21.102C30.7734 21.102 29.6434 20.41 29.4082 19.0732C29.4082 19.0732 29.2903 19.3833 28.1837 20.0279C28.0897 20.0753 27.8544 20.2186 27.7842 20.1711C27.5719 19.9804 27.4545 19.7414 27.4307 19.574C27.5013 19.5982 27.6425 19.4787 28.0897 19.1206C28.9606 18.4524 29.1491 17.9266 29.1491 17.9266C29.3606 17.4732 29.7379 16.757 29.9966 16.2557C30.7032 14.8235 31.9268 13.3675 33.9277 13.2959C34.2574 13.2959 34.3515 13.4391 34.4221 13.5586C34.6102 13.7018 34.5399 13.9883 34.5399 13.9883C33.1274 14.2031 32.1625 15.0383 31.5737 15.8502C31.221 16.3752 30.8441 17.2346 30.7734 17.855C30.6322 18.9291 31.1266 19.6449 31.8562 19.8122C33.2215 20.0271 34.3515 19.0245 35.2462 17.4732C35.4819 17.0672 35.6465 16.0168 35.6465 15.4439C35.6465 14.871 35.3402 14.2743 35.1049 14.0354C35.1049 13.6298 35.3636 13.3671 35.6695 13.3671C35.7636 13.3671 35.858 13.3671 35.952 13.4625C36.423 13.94 36.6821 14.8472 36.6821 15.5392C36.6821 15.7782 36.6821 16.0168 36.6349 16.2557C37.6236 15.0383 38.8711 13.4629 39.8368 13.1527C40.0249 13.0573 40.2133 13.0573 40.4014 13.0573C42.167 13.0095 41.9317 14.6328 41.9317 14.6328C42.8729 13.5349 43.5323 13.1289 44.4032 13.1764C45.3451 13.2243 45.6744 13.8929 45.6744 14.418C45.6506 15.0383 45.2042 15.7545 44.4278 15.7782C43.7442 15.7782 43.3442 15.4439 43.1323 14.8235C42.6852 14.9909 42.4737 15.301 42.3793 15.9214C42.2376 16.7092 42.8264 17.3299 43.5795 17.3299C44.8745 17.3303 45.4399 16.757 45.9109 16.3274V16.3274ZM47.323 6.03972C47.323 6.80371 44.6861 8.2597 42.4495 8.2597C38.9659 8.2597 35.3406 6.56474 33.6698 6.18294C31.857 5.75327 30.2092 5.39521 28.9142 5.39521C24.3708 5.39521 22.3461 7.37661 22.4405 9.19066C22.4877 9.93052 23.0757 10.4081 23.947 10.2407C24.889 10.0737 26.207 9.16652 26.5367 8.37879C26.6074 8.21183 26.7958 8.18769 26.8665 8.23557C27.0077 8.35505 26.9605 8.52201 26.9605 8.52201C26.8426 9.45297 25.4302 12.031 22.9821 12.031C21.6168 12.031 20.6987 10.742 20.7221 9.47671C20.7455 7.11351 23.1233 4.72656 28.9848 4.72656C30.091 4.72656 31.3388 4.82191 32.7045 5.06089C34.2812 5.34733 38.2124 6.01559 41.4139 6.06346C42.5915 6.06346 44.0981 6.11133 45.3221 5.92023C46.6167 5.7054 46.3342 5.65752 46.8524 5.65752C47.323 5.65752 47.323 5.84862 47.323 6.03972V6.03972Z" fill="white"/>
<path fill-rule="evenodd" clip-rule="evenodd" d="M50.8072 14.3459C49.9827 14.2506 48.9468 14.9667 48.0997 16.0171C47.6759 16.5421 47.2288 17.5447 47.1577 18.1414C47.0641 18.7384 47.2288 19.335 47.4406 19.502C47.6525 19.669 48.5944 20.1702 50.0537 18.6668C50.8774 17.8312 51.6777 16.4705 51.6777 16.4705L51.4186 16.3985C51.913 15.468 51.8182 14.465 50.8072 14.3459V14.3459Z" fill="#425E99"/>
<path fill-rule="evenodd" clip-rule="evenodd" d="M33.5989 11.5297C33.5989 11.7924 33.9516 12.0073 34.2579 12.0314C34.1873 12.2937 34.2107 12.4132 34.0932 12.3895C33.387 12.3895 33.1045 11.6971 33.1045 11.6971C32.1633 11.864 31.2452 11.9835 29.3852 12.1746C24.7006 19.8609 23.2412 21.1261 20.3691 21.1261C18.3209 21.1261 16.5085 19.7655 16.4613 17.3307C16.4375 15.851 17.6147 14.0365 19.8041 13.4874C20.0631 13.4874 20.1572 13.5831 20.1572 13.7263C20.1572 13.8221 20.0631 13.9412 19.8509 14.0365C19.2153 14.2755 18.1091 15.5404 18.1091 16.7103C18.1091 17.5934 18.6507 18.5722 19.5684 18.7867C19.8275 18.8587 20.0631 18.8346 20.2984 18.8346C22.5818 18.8346 25.1477 16.2328 27.9255 12.2704C27.4783 12.2941 25.5715 12.5093 25.1005 13.0581C24.889 13.2251 24.7478 13.1297 24.7006 12.9386C24.7006 12.8907 24.7712 12.7238 24.8422 12.628C25.5953 11.7687 27.8553 11.578 28.3964 11.5064C30.5152 8.2122 33.2457 6.15918 33.8107 6.18332C33.9048 6.18332 34.117 6.32654 34.0226 6.56512C33.9988 6.61299 33.7635 6.8753 33.6699 6.94692C33.1989 7.37659 31.598 8.42704 29.8561 11.4106C31.2686 11.339 32.9164 11.0526 32.9164 11.0526C32.9164 11.0526 32.8224 10.7424 32.8224 10.4797C32.893 9.45335 33.4814 8.83258 34.2349 8.95206C34.659 9.02367 34.9411 9.38174 34.9411 9.76354C34.9411 10.1695 34.6352 10.7661 34.3289 11.0526C34.1166 11.2191 33.881 11.3865 33.5989 11.5297V11.5297Z" fill="white"/>
<path fill-rule="evenodd" clip-rule="evenodd" d="M33.4806 11.004C33.4806 11.004 33.7163 11.0281 34.069 10.6222C34.2103 10.479 34.446 10.0493 34.3988 9.76284C34.375 9.61962 34.3047 9.45265 34.1401 9.47639C33.7866 9.5484 33.5747 9.71536 33.4806 10.0734C33.3632 10.4552 33.4104 10.7179 33.4806 11.004Z" fill="#425E99"/>
</svg>
