<svg width="142" height="48" viewBox="0 0 142 48" fill="none" xmlns="http://www.w3.org/2000/svg">
<rect x="0.899414" width="141" height="48" rx="6" fill="#001C3C"/>
<g clip-path="url(#clip0_72_9692)">
<path fill-rule="evenodd" clip-rule="evenodd" d="M15.3632 12.0907C15.0687 12.4039 14.8994 12.8861 14.8994 13.5127V35.7989C14.8994 36.4255 15.0687 36.9077 15.3743 37.21L15.4541 37.2768L28.0726 24.7893V24.5087L15.4431 12.0239L15.3632 12.0907Z" fill="url(#paint0_linear_72_9692)"/>
<path fill-rule="evenodd" clip-rule="evenodd" d="M32.2704 28.9682L28.0615 24.8016V24.5101L32.2718 20.3435L32.3627 20.3994L37.3423 23.1998C38.7682 23.9952 38.7682 25.3055 37.3423 26.1119L32.3627 28.9123C32.3613 28.9123 32.2704 28.9682 32.2704 28.9682Z" fill="url(#paint1_linear_72_9692)"/>
<path fill-rule="evenodd" clip-rule="evenodd" d="M32.3613 28.9122L28.0616 24.6558L15.3633 37.2223C15.8271 37.7153 16.6075 37.7712 17.4801 37.289L32.3613 28.9122Z" fill="url(#paint2_linear_72_9692)"/>
<path fill-rule="evenodd" clip-rule="evenodd" d="M32.3613 20.4008L17.4801 12.0349C16.6089 11.5418 15.8271 11.6086 15.3633 12.1016L28.0602 24.6559L32.3613 20.4008Z" fill="url(#paint3_linear_72_9692)"/>
<path opacity="0.2" fill-rule="evenodd" clip-rule="evenodd" d="M32.2702 28.8225L17.4909 37.1325C16.6651 37.6024 15.9287 37.5698 15.4539 37.1434L15.374 37.2224L15.4539 37.2892C15.9287 37.7141 16.6651 37.7482 17.4909 37.2783L32.3721 28.9124L32.2702 28.8225Z" fill="#001C3C"/>
<path opacity="0.12" fill-rule="evenodd" clip-rule="evenodd" d="M37.3408 25.9661L32.2593 28.8223L32.3501 28.9122L37.3298 26.1118C38.0427 25.7086 38.3937 25.1829 38.3937 24.6558C38.3483 25.1379 37.9863 25.597 37.3408 25.9661Z" fill="#001C3C"/>
<path opacity="0.25" fill-rule="evenodd" clip-rule="evenodd" d="M17.4801 12.1806L37.341 23.3469C37.9865 23.7051 38.3485 24.1751 38.4049 24.6572C38.4049 24.1315 38.0539 23.6043 37.341 23.2012L17.4801 12.0349C16.0542 11.2285 14.8994 11.9 14.8994 13.5127V13.6585C14.8994 12.0458 16.0542 11.3852 17.4801 12.1806Z" fill="white"/>
<path fill-rule="evenodd" clip-rule="evenodd" d="M43.2523 23.9488C43.2523 20.3788 46.2844 17.4722 49.8918 17.4722C51.8862 17.4722 53.3052 18.2472 54.376 19.2565L53.1153 20.5041C52.35 19.7931 51.3122 19.2415 49.8905 19.2415C47.2561 19.2415 45.1971 21.3405 45.1971 23.9475C45.1971 26.5545 47.2561 28.6562 49.8891 28.6562C51.5971 28.6562 52.5689 27.9778 53.1923 27.3595C53.703 26.8541 54.0374 26.1281 54.1668 25.1325H49.8918V23.3672H55.9093C55.9726 23.6832 56.0056 24.0619 56.0056 24.4719C56.0056 25.7972 55.6381 27.4412 54.4558 28.6112C53.3052 29.7962 51.838 30.4282 49.8905 30.4282C46.2816 30.4282 43.2495 27.5243 43.2495 23.9516L43.2523 23.9488ZM60.8697 22.0855C58.5395 22.0855 56.6374 23.8399 56.6374 26.2548C56.6374 28.6575 58.5381 30.4241 60.8697 30.4241C63.2012 30.4241 65.0992 28.6548 65.0992 26.2535C65.0992 23.8385 63.1999 22.0842 60.8697 22.0855ZM60.8697 28.7842C59.5938 28.7842 58.4913 27.7422 58.4913 26.2562C58.4913 24.7552 59.5924 23.7282 60.8697 23.7282C62.1456 23.7282 63.2467 24.7538 63.2467 26.2562C63.2467 27.7408 62.1469 28.7842 60.8697 28.7842ZM70.0982 22.0855C67.768 22.0855 65.8686 23.8399 65.8686 26.2548C65.8686 28.6575 67.768 30.4241 70.0982 30.4241C72.4284 30.4241 74.3277 28.6548 74.3277 26.2535C74.3277 23.8385 72.4297 22.0842 70.0982 22.0855ZM70.0982 28.7842C68.8223 28.7842 67.7198 27.7422 67.7198 26.2562C67.7198 24.7552 68.8209 23.7282 70.0982 23.7282C71.3741 23.7282 72.4765 24.7538 72.4765 26.2562C72.4765 27.7408 71.3741 28.7842 70.0982 28.7842ZM81.4243 22.3389V23.0172H81.3609C80.9467 22.5255 80.1484 22.0842 79.1436 22.0842C77.0364 22.0842 75.1026 23.9175 75.1026 26.2725C75.1026 28.6085 77.035 30.4269 79.1436 30.4269C80.1484 30.4269 80.9467 29.9855 81.3609 29.4802H81.4243V30.0795C81.4243 31.6745 80.5627 32.5285 79.1739 32.5285C78.0398 32.5285 77.3378 31.7222 77.0502 31.0452L75.4371 31.7086C75.8995 32.8132 77.13 34.1726 79.1725 34.1726C81.3417 34.1726 83.1777 32.9072 83.1777 29.8275V22.3375L81.4243 22.3389ZM79.3019 28.7842C78.026 28.7842 76.9538 27.7245 76.9538 26.2725C76.9538 24.8042 78.0247 23.7295 79.3019 23.7295C80.5627 23.7295 81.5523 24.8029 81.5523 26.2725C81.5536 27.7245 80.564 28.7842 79.3019 28.7842ZM84.4564 17.9148H86.309V30.1735H84.4564V17.9148ZM91.3864 28.7842C90.4449 28.7842 89.7733 28.3565 89.3452 27.5216L94.98 25.2128L94.786 24.7388C94.4364 23.8085 93.3656 22.0855 91.1785 22.0855C89.008 22.0855 87.2036 23.7758 87.2036 26.2562C87.2036 28.5921 88.9915 30.4255 91.3864 30.4255C93.3188 30.4255 94.4364 29.2582 94.8988 28.5772L93.4619 27.6305C92.9816 28.3265 92.3264 28.7856 91.3864 28.7842ZM91.2418 23.6968C91.9754 23.6968 92.5976 24.0605 92.8054 24.5808L89.0369 26.1295C88.9901 24.5182 90.299 23.6968 91.2418 23.6968ZM103.109 17.9148H98.6797V30.1735H100.528V25.5302H103.11C105.16 25.5302 107.175 24.0619 107.175 21.7218C107.175 19.3859 105.161 17.9162 103.113 17.9162L103.109 17.9148ZM103.157 23.8235H100.528V19.6202H103.157C104.539 19.6202 105.326 20.7548 105.326 21.7218C105.326 22.6726 104.539 23.8235 103.157 23.8235ZM110.042 30.1735V17.9148H108.193V30.1735H110.042ZM118.345 30.1517V25.4526C118.345 23.276 116.702 22.0624 114.581 22.0624C113.244 22.0624 111.858 22.6467 111.284 23.9393L112.925 24.6162C113.276 23.9393 113.928 23.7173 114.615 23.7173C115.57 23.7173 116.542 24.2853 116.557 25.2959V25.4226C116.223 25.2333 115.507 24.9486 114.629 24.9486C112.86 24.9486 111.06 25.9102 111.06 27.7082C111.06 29.3495 112.511 30.4051 114.136 30.4051C115.38 30.4051 116.065 29.8534 116.494 29.2078H116.557V30.1544H118.344L118.345 30.1517ZM114.361 28.7815C113.755 28.7815 112.91 28.4818 112.91 27.7422C112.91 26.7956 113.963 26.4305 114.871 26.4305C115.685 26.4305 116.066 26.6035 116.561 26.8405C116.42 27.9411 115.48 28.7678 114.361 28.7815ZM124.846 22.3307L122.726 27.6441H122.663L120.463 22.3307H118.472L121.77 29.7594L119.888 33.8906H121.816L126.899 22.3307H124.846Z" fill="white"/>
</g>
<defs>
<linearGradient id="paint0_linear_72_9692" x1="26.9395" y1="13.2731" x2="6.75508" y2="18.7077" gradientUnits="userSpaceOnUse">
<stop stop-color="#00A0FF"/>
<stop offset="0.007" stop-color="#00A1FF"/>
<stop offset="0.26" stop-color="#00BEFF"/>
<stop offset="0.512" stop-color="#00D2FF"/>
<stop offset="0.76" stop-color="#00DFFF"/>
<stop offset="1" stop-color="#00E3FF"/>
</linearGradient>
<linearGradient id="paint1_linear_72_9692" x1="39.1978" y1="24.6564" x2="14.5528" y2="24.6564" gradientUnits="userSpaceOnUse">
<stop stop-color="#FFE000"/>
<stop offset="0.409" stop-color="#FFBD00"/>
<stop offset="0.775" stop-color="#FFA500"/>
<stop offset="1" stop-color="#FF9C00"/>
</linearGradient>
<linearGradient id="paint2_linear_72_9692" x1="30.0233" y1="26.9713" x2="14.0455" y2="54.145" gradientUnits="userSpaceOnUse">
<stop stop-color="#FF3A44"/>
<stop offset="1" stop-color="#C31162"/>
</linearGradient>
<linearGradient id="paint3_linear_72_9692" x1="12.1668" y1="4.67724" x2="19.2949" y2="16.8133" gradientUnits="userSpaceOnUse">
<stop stop-color="#32A071"/>
<stop offset="0.069" stop-color="#2DA771"/>
<stop offset="0.476" stop-color="#15CF74"/>
<stop offset="0.801" stop-color="#06E775"/>
<stop offset="1" stop-color="#00F076"/>
</linearGradient>
<clipPath id="clip0_72_9692">
<rect width="112" height="27" fill="white" transform="translate(14.8994 11)"/>
</clipPath>
</defs>
</svg>
