<svg width="40" height="32" viewBox="0 0 40 32" fill="none" xmlns="http://www.w3.org/2000/svg">
<path fill-rule="evenodd" clip-rule="evenodd" d="M18.5858 23.1828L8.51711 24.2726L10.5048 26.2246H24.7592L19.4746 23.0846L18.5858 23.1828V23.1828ZM18.5858 15.0973L32.4525 11.3716C32.4525 11.3716 34.4727 11.2253 36.4767 6.65387L18.5858 12.5594L4.67055 17.1306C4.67055 17.1306 3.47453 17.521 3.00587 17.8465C3.00587 17.8465 2.6826 18.0419 2.6826 18.4971C2.6826 18.4971 2.71489 18.8388 2.95734 19.0831L3.55535 19.6851L11.1512 17.7001C11.1512 17.7001 10.6825 17.0818 11.6198 16.9518L18.5858 15.0973V15.0973ZM18.5858 22.3854C18.6018 22.5481 18.7312 22.6949 18.7312 22.6949L18.5858 22.7108L8.0322 23.9147L6.028 22.0277L18.5856 19.7662L29.3166 17.8465C27.5553 21.3282 23.9995 21.3282 23.9995 21.3282L19.5714 21.8975C18.828 21.9138 18.6181 22.1088 18.5856 22.3045L18.5858 22.3854V22.3854ZM18.5858 16.366L33.2121 12.6408C31.4829 16.5777 28.0081 16.7077 28.0081 16.7077L18.5858 18.6275L15.4989 19.2617C14.0119 19.2944 14.6584 20.0591 14.6584 20.0591L5.65641 21.6048L3.97569 20.108L18.5858 16.366V16.366ZM18.5858 8.4109L39.0304 0C39.0304 0 38.3351 2.0663 37.8987 3.12366C37.8987 3.12366 37.3655 4.79934 35.2324 5.4663L18.5858 11.3882L4.15336 16.4964C4.15336 16.4964 2.29498 17.1636 1.98774 17.9446C1.98774 17.9446 1.55136 18.839 2.73135 19.848L9.69688 26.2251H6.96574L1.35766 20.6938C1.35766 20.6938 0.0970671 19.6526 0 18.1721V17.863C0.0162491 17.7655 0.0162491 17.668 0.0485336 17.554C0.0485336 17.554 0.290988 15.9269 2.7151 14.9348L18.5858 8.4109V8.4109ZM3.71699 27.2661H0.0970671V28.161H0.921069V30.8776H0.0970671V31.805H3.71699V30.8776H2.8282V30.0155H5.49498V30.8776H4.62223V31.805H8.19405V30.8776H7.33755V28.161H8.19405V27.2661H4.60599V28.161H5.49498V29.0554H2.8282V28.161H3.71699V27.2661V27.2661ZM35.5071 29.3649H36.202L35.5071 28.3073L35.4261 28.2098L34.796 29.3649H35.5071ZM35.5071 27.2661H36.9454L39.111 30.8776H40V31.805H36.1047V30.8776H36.9775L36.6059 30.3409H34.2465L33.9555 30.8776H34.812V31.805H31.8062V30.8776H32.7274L34.214 28.161H33.2121V27.2661H35.5071V27.2661ZM28.5737 30.8288C29.4302 30.7313 29.9313 30.4059 29.9313 29.5599C29.9313 28.5839 29.3658 28.2748 28.5737 28.1932C28.4283 28.1769 28.2827 28.1769 28.1215 28.1769H27.2162V30.8613H27.9436C28.1698 30.8613 28.3797 30.8451 28.5737 30.8288V30.8288ZM28.5737 27.2661H29.1554C30.6424 27.2661 31.7578 27.9655 31.7578 29.5599C31.7578 31.398 30.7072 31.7725 28.5737 31.805H24.5172V30.8776H25.3899V28.161H24.5172V27.2661H28.5737ZM11.9919 31.0403C12.8323 31.024 13.4949 30.3572 13.4949 29.5435C13.4949 28.6814 12.8161 28.0308 11.9919 28.0308H11.9756C11.1514 28.0308 10.4888 28.6814 10.4888 29.5276C10.4888 30.3245 11.1191 31.0403 11.9596 31.0403H11.9919ZM11.9919 27.0382H12.0404C14.1575 27.0382 15.5474 27.8355 15.5474 29.4787C15.5474 30.9915 14.2706 32 11.9919 32H11.9273C9.71313 32 8.38776 31.1378 8.38776 29.5112C8.38776 27.9494 9.69688 27.0382 11.9919 27.0382ZM19.41 27.2661H15.8384V28.161H16.6949V30.8776H15.8384V31.805H18.6829V30.8776H17.7939V28.5514L20.299 31.8048H23.0626V28.1607H23.9675V27.2659H21.0259V28.1607H21.9472V30.552L19.41 27.2661V27.2661Z" fill="black"/>
</svg>
