<svg width="86" height="40" viewBox="0 0 86 40" fill="none" xmlns="http://www.w3.org/2000/svg">
<path fill-rule="evenodd" clip-rule="evenodd" d="M0.5 29.5013H3.79025V33.1317H9.66801V29.5013H12.9172V39.6903H9.66801V35.4003H3.74817V39.6496H0.5V29.5013ZM13.2867 29.5013H16.4928L19.8643 33.4205L23.1947 29.5013H26.3601L21.4675 35.7303V39.6903H18.2199V35.4416L13.2867 29.5013V29.5013ZM26.7712 29.5013H30.0194V37.3805H35.2404C36.0626 37.3805 36.597 36.5569 36.597 35.6896V29.5013H39.8442V37.6286C39.8442 38.907 38.4058 39.6496 37.5832 39.6496H26.7712V29.5013ZM40.5431 29.5013H51.3565C52.6309 29.5013 53.6586 30.2842 53.6586 31.8742V39.67L50.4109 39.6903V33.5026C50.4109 32.6377 50.1227 32.1217 49.0127 32.1217H44.1206V39.7132H40.5431V29.5013V29.5013ZM54.6457 29.5013H64.1006C65.9926 29.5013 67.4522 31.0273 67.4522 32.2028V36.8855C67.4314 37.7101 66.2799 39.6899 64.8415 39.6899H54.6462V29.5013H54.6457V29.5013ZM57.9549 37.4223H62.9451C63.6638 37.4223 64.2195 36.886 64.2195 36.2249V33.255C64.2195 32.5328 63.628 32.1013 62.8687 32.1013H57.9549V37.4223V37.4223ZM71.4612 29.4581H81.595V39.6903H77.9764V37.0515H71.7475V39.6903H68.0892V33.0478C68.0065 30.821 69.9807 29.4581 71.4612 29.4581V29.4581ZM71.7064 33.0915V34.7397H77.9561V32.1397H72.6925C72.0769 32.1402 71.7064 32.5124 71.7064 33.0915ZM82.2523 29.4809H85.5V40H82.2523V29.4809ZM43.1978 0C29.7205 0 18.7944 5.41364 18.7944 12.0897C18.7944 18.7662 29.7205 24.1804 43.1978 24.1804C56.6742 24.1804 67.6007 18.7667 67.6007 12.0897C67.6002 5.41413 56.6737 0 43.1978 0V0ZM40.8826 2.69081C43.6679 1.70262 51.9431 2.6908 55.1574 4.24006C56.1862 5.23018 50.5705 8.41119 43.8841 9.79008C34.3243 11.7247 38.8677 4.32548 40.8826 2.69081ZM24.4652 17.016C22.3637 15.5124 18.2489 11.2093 25.0654 6.73575C28.6662 4.62834 30.6805 4.15366 33.1665 3.63822C34.3674 3.37904 35.2244 3.68093 34.1526 4.58466C31.881 6.95076 27.1654 14.7786 26.7374 16.5006C26.3935 17.663 25.7082 17.9625 24.4652 17.016V17.016ZM44.0969 22.0074C40.0681 22.4365 31.1095 21.1037 30.9374 19.9437C31.1095 17.1456 45.1692 12.4998 47.6977 15.0809C48.7704 17.1024 46.713 21.8778 44.0969 22.0074V22.0074ZM64.5881 13.8748C63.5584 16.2414 60.0868 18.9099 52.8001 20.7169C51.6844 20.9731 51.2989 20.2859 52.0273 19.6404C53.2287 18.9094 59.0155 9.18776 59.7439 7.25071C60.1729 6.26059 60.9868 6.64935 61.5019 7.0357C63.8171 8.54078 65.5742 10.9933 64.5881 13.8748V13.8748Z" fill="#295BA7"/>
</svg>
