<svg width="34" height="34" viewBox="0 0 34 34" fill="none" xmlns="http://www.w3.org/2000/svg">
<circle cx="17" cy="17" r="16.5" stroke="white"/>
<path d="M14.0006 17.5C14.0006 16.1193 15.1196 14.9998 16.5003 14.9998C17.881 14.9998 19.0006 16.1193 19.0006 17.5C19.0006 18.8807 17.881 20.0002 16.5003 20.0002C15.1196 20.0002 14.0006 18.8807 14.0006 17.5ZM12.649 17.5C12.649 19.627 14.3732 21.3512 16.5003 21.3512C18.6274 21.3512 20.3516 19.627 20.3516 17.5C20.3516 15.373 18.6274 13.6488 16.5003 13.6488C14.3732 13.6488 12.649 15.373 12.649 17.5ZM19.604 13.4962C19.604 13.9929 20.0069 14.3964 20.5043 14.3964C21.0011 14.3964 21.4046 13.9929 21.4046 13.4962C21.4046 12.9994 21.0017 12.5965 20.5043 12.5965C20.0069 12.5965 19.604 12.9994 19.604 13.4962ZM13.4699 23.6048C12.7386 23.5715 12.3412 23.4497 12.0771 23.3467C11.7269 23.2104 11.4773 23.0481 11.2143 22.7857C10.952 22.5234 10.789 22.2738 10.6533 21.9237C10.5503 21.6595 10.4286 21.2621 10.3953 20.5309C10.3589 19.7403 10.3516 19.5028 10.3516 17.5C10.3516 15.4972 10.3595 15.2603 10.3953 14.4691C10.4286 13.7379 10.551 13.3411 10.6533 13.0763C10.7897 12.7262 10.952 12.4766 11.2143 12.2137C11.4767 11.9513 11.7263 11.7884 12.0771 11.6527C12.3412 11.5497 12.7386 11.4279 13.4699 11.3946C14.2605 11.3582 14.498 11.351 16.5003 11.351C18.5032 11.351 18.7401 11.3588 19.5313 11.3946C20.2626 11.4279 20.6594 11.5503 20.9241 11.6527C21.2743 11.7884 21.5239 11.9513 21.7869 12.2137C22.0492 12.476 22.2116 12.7262 22.3479 13.0763C22.4509 13.3405 22.5726 13.7379 22.606 14.4691C22.6423 15.2603 22.6496 15.4972 22.6496 17.5C22.6496 19.5022 22.6423 19.7397 22.606 20.5309C22.5726 21.2621 22.4503 21.6595 22.3479 21.9237C22.2116 22.2738 22.0492 22.5234 21.7869 22.7857C21.5245 23.0481 21.2743 23.2104 20.9241 23.3467C20.66 23.4497 20.2626 23.5715 19.5313 23.6048C18.7407 23.6412 18.5032 23.6484 16.5003 23.6484C14.498 23.6484 14.2605 23.6412 13.4699 23.6048ZM13.4081 10.0454C12.6096 10.0818 12.0643 10.2084 11.5875 10.3938C11.0944 10.5852 10.6764 10.8421 10.2589 11.2589C9.84212 11.6757 9.58524 12.0937 9.3938 12.5874C9.20841 13.0642 9.08179 13.6095 9.04544 14.4079C9.00848 15.2076 9 15.4632 9 17.5C9 19.5368 9.00848 19.7924 9.04544 20.5921C9.08179 21.3905 9.20841 21.9358 9.3938 22.4126C9.58524 22.9057 9.84151 23.3243 10.2589 23.7411C10.6758 24.1579 11.0938 24.4142 11.5875 24.6062C12.0649 24.7916 12.6096 24.9182 13.4081 24.9546C14.2084 24.9909 14.4635 25 16.5003 25C18.5377 25 18.7928 24.9915 19.5925 24.9546C20.391 24.9182 20.9363 24.7916 21.4131 24.6062C21.9062 24.4142 22.3242 24.1579 22.7417 23.7411C23.1585 23.3243 23.4148 22.9057 23.6068 22.4126C23.7922 21.9358 23.9194 21.3905 23.9552 20.5921C23.9915 19.7918 24 19.5368 24 17.5C24 15.4632 23.9915 15.2076 23.9552 14.4079C23.9188 13.6095 23.7922 13.0642 23.6068 12.5874C23.4148 12.0943 23.1585 11.6763 22.7417 11.2589C22.3249 10.8421 21.9062 10.5852 21.4137 10.3938C20.9363 10.2084 20.391 10.0812 19.5931 10.0454C18.7934 10.0091 18.5377 10 16.5009 10C14.4635 10 14.2084 10.0085 13.4081 10.0454Z" fill="white"/>
</svg>
