<svg width="16" height="16" viewBox="0 0 16 16" fill="none" xmlns="http://www.w3.org/2000/svg">
<circle cx="8" cy="8" r="7.5" stroke="#001C3C"/>
<path d="M7.33362 8.5C7.33362 7.85569 7.85581 7.33324 8.50014 7.33324C9.14447 7.33324 9.66695 7.85569 9.66695 8.5C9.66695 9.14431 9.14447 9.66676 8.50014 9.66676C7.85581 9.66676 7.33362 9.14431 7.33362 8.5ZM6.70286 8.5C6.70286 9.49261 7.50749 10.2972 8.50014 10.2972C9.49279 10.2972 10.2974 9.49261 10.2974 8.5C10.2974 7.50739 9.49279 6.70279 8.50014 6.70279C7.50749 6.70279 6.70286 7.50739 6.70286 8.5ZM9.94854 6.63154C9.94854 6.86337 10.1366 7.05166 10.3687 7.05166C10.6005 7.05166 10.7888 6.86337 10.7888 6.63154C10.7888 6.39972 10.6008 6.21171 10.3687 6.21171C10.1366 6.21171 9.94854 6.39972 9.94854 6.63154ZM7.08595 11.3489C6.7447 11.3334 6.55923 11.2765 6.43596 11.2285C6.27255 11.1649 6.15606 11.0891 6.03336 10.9667C5.91094 10.8443 5.83489 10.7278 5.77156 10.5644C5.72349 10.4411 5.66667 10.2557 5.65112 9.91442C5.63415 9.54548 5.63076 9.43465 5.63076 8.5C5.63076 7.56535 5.63444 7.45481 5.65112 7.08558C5.66667 6.74435 5.72378 6.55917 5.77156 6.43562C5.83517 6.27221 5.91094 6.15574 6.03336 6.03304C6.15578 5.91062 6.27226 5.83457 6.43596 5.77124C6.55923 5.72318 6.7447 5.66636 7.08595 5.65081C7.45491 5.63384 7.56573 5.63045 8.50014 5.63045C9.43483 5.63045 9.54538 5.63413 9.91462 5.65081C10.2559 5.66636 10.4411 5.72347 10.5646 5.77124C10.728 5.83457 10.8445 5.91062 10.9672 6.03304C11.0896 6.15545 11.1654 6.27221 11.229 6.43562C11.2771 6.55889 11.3339 6.74435 11.3494 7.08558C11.3664 7.45481 11.3698 7.56535 11.3698 8.5C11.3698 9.43437 11.3664 9.54519 11.3494 9.91442C11.3339 10.2557 11.2768 10.4411 11.229 10.5644C11.1654 10.7278 11.0896 10.8443 10.9672 10.9667C10.8448 11.0891 10.728 11.1649 10.5646 11.2285C10.4413 11.2765 10.2559 11.3334 9.91462 11.3489C9.54566 11.3659 9.43483 11.3693 8.50014 11.3693C7.56573 11.3693 7.45491 11.3659 7.08595 11.3489ZM7.05711 5.0212C6.68448 5.03817 6.43003 5.09725 6.20752 5.18376C5.97738 5.2731 5.7823 5.39297 5.5875 5.58748C5.39299 5.78199 5.27311 5.97706 5.18377 6.20747C5.09726 6.42997 5.03817 6.68441 5.0212 7.05703C5.00396 7.43021 5 7.54952 5 8.5C5 9.45048 5.00396 9.56979 5.0212 9.94297C5.03817 10.3156 5.09726 10.57 5.18377 10.7925C5.27311 11.0227 5.39271 11.218 5.5875 11.4125C5.78202 11.607 5.9771 11.7266 6.20752 11.8162C6.43031 11.9027 6.68448 11.9618 7.05711 11.9788C7.43059 11.9958 7.54962 12 8.50014 12C9.45095 12 9.56997 11.996 9.94317 11.9788C10.3158 11.9618 10.5703 11.9027 10.7928 11.8162C11.0229 11.7266 11.218 11.607 11.4128 11.4125C11.6073 11.218 11.7269 11.0227 11.8165 10.7925C11.903 10.57 11.9624 10.3156 11.9791 9.94297C11.996 9.56951 12 9.45048 12 8.5C12 7.54952 11.996 7.43021 11.9791 7.05703C11.9621 6.68441 11.903 6.42997 11.8165 6.20747C11.7269 5.97734 11.6073 5.78227 11.4128 5.58748C11.2183 5.39297 11.0229 5.2731 10.793 5.18376C10.5703 5.09725 10.3158 5.03788 9.94346 5.0212C9.57026 5.00424 9.45095 5 8.50042 5C7.54962 5 7.43059 5.00396 7.05711 5.0212Z" fill="#001C3C"/>
</svg>
