<svg width="70" height="30" viewBox="0 0 70 30" fill="none" xmlns="http://www.w3.org/2000/svg">
<path fill-rule="evenodd" clip-rule="evenodd" d="M35.6555 1.53836C34.2495 3.21907 30.2394 8.64521 29.7824 9.34779C28.9026 10.6939 28.8248 11.3463 28.7989 11.7809C28.7734 12.2076 28.7734 12.9768 29.4891 13.604C30.6882 14.6407 32.3697 14.4733 33.862 14.4733H46.1527C46.6788 14.4733 46.8342 14.3225 47.1189 13.9549C48.102 12.4999 48.5421 10.9196 48.5421 9.50649C48.5421 6.47962 46.5154 2.66721 41.3832 0.944636L40.8049 1.74731C44.8759 3.61984 46.5582 6.06973 46.5582 9.49774C46.5841 10.4176 46.3337 11.4125 45.7126 12.3324H33.758C33.0422 12.3324 32.9386 11.5465 33.1973 11.1031C34.2222 9.33493 35.366 7.63406 36.6213 6.01149C37.8289 4.44801 39.0189 2.98462 40.2698 1.45463C40.6063 1.02837 40.3817 0.618466 39.7092 0.484877C38.3119 0.200573 36.8545 0 35.0862 0C25.28 0 21.6915 5.45963 21.6915 9.50649C21.6915 13.8963 25.3055 18.9883 35.1121 18.9883C40.5544 18.9883 44.117 17.2904 46.1782 15.1085H44.0993C42.2965 16.7222 39.1999 17.8682 35.1121 17.8682C26.806 17.8682 23.7445 13.3444 23.7445 9.44788C23.8045 5.96963 27.0907 1.17033 35.3194 1.01162C35.6299 1.00325 35.8718 1.27918 35.6555 1.53836V1.53836ZM65.1534 26.5963C65.645 26.6633 66.0246 27.0394 66.0246 27.4831C66.0246 27.984 65.559 28.3855 64.9893 28.3855H54.4501V21.7049H51.3445V28.4026H45.6348C44.0911 28.4026 43.7723 27.4911 43.7723 26.655V21.6635H38.6232C38.114 21.998 37.6224 22.366 37.0963 22.6751L34.043 24.4977L30.0757 21.6886H23.8999V23.3693H26.1335V22.449L31.3862 26.1035L27.7982 28.285H23.8995V29.9657H28.4102C28.8932 29.6483 29.3505 29.3138 29.8507 29.0211L32.99 27.1733L36.9746 29.9326H41.512L35.5169 25.5596L38.5965 23.6121C39.2522 23.1934 39.9424 22.8429 40.6149 22.4585V26.8563C40.6149 28.7124 41.1065 30 44.9619 30L66.7403 29.9501C68.4219 29.9745 69.5 28.8464 69.5 27.4839C69.5 26.1286 68.2578 25.0169 66.7403 25.0169H58.8744C58.9781 24.089 59.8053 23.3118 60.6419 23.3118H68.6029L68.5778 21.6981H60.1335C57.4594 21.6981 55.3209 23.8469 55.2604 26.3471C55.2522 26.5225 55.3723 26.631 55.571 26.631L65.1534 26.5963V26.5963ZM23.8999 26.5716V24.8574H25.435V26.5716H23.8999ZM23.8999 21.6886H18.0693C16.491 21.6886 15.2747 22.0901 14.378 22.7752C12.7651 24.0129 12.2477 25.3168 12.2649 25.9025H14.3693C13.4463 26.5716 12.8252 27.3735 12.4978 28.3022H5.59725C4.35543 28.3022 3.55293 27.4496 3.55293 26.6215V21.63H0.5V26.814C0.5 28.6782 2.32878 29.9657 5.26079 29.9657H23.8999V28.285H16.4996C16.5342 27.4325 17.4741 26.5716 18.328 26.5716H23.8999V24.8574H16.4133C16.31 24.3558 17.2758 23.3693 18.0175 23.3693H23.8999V21.6886V21.6886Z" fill="black"/>
</svg>
