<svg width="174" height="34" viewBox="0 0 174 34" fill="none" xmlns="http://www.w3.org/2000/svg">
<path fill-rule="evenodd" clip-rule="evenodd" d="M6.53673 6.8222L7.39773 4.9111L8.25873 3H21H33.7413L34.6023 4.9111L35.4633 6.8222H38.7316H42V8.7333V10.6444H37.5385H33.0769L32.2159 8.7333L31.3549 6.8222H21H10.6451L9.78409 8.7333L8.92309 10.6444H4.46154H0V8.7333V6.8222H3.26836H6.53673ZM0 18.2434V16.3548V14.4666H4.26348C8.10743 14.4666 8.55655 14.5607 8.82955 15.4222C9.12164 16.3438 9.55166 16.3777 21 16.3777C32.4483 16.3777 32.8784 16.3438 33.1705 15.4222C33.4435 14.5607 33.8926 14.4666 37.7365 14.4666H42V16.3548V18.2434L39.0853 18.3853L36.1701 18.5277L34.4658 22.8277C33.5284 25.1927 32.5529 27.2681 32.2975 27.4392C32.0417 27.6107 29.6639 28.549 27.0132 29.5237C25.5582 30.0588 24.1927 30.5925 23.2191 31H18.7809C17.8073 30.5925 16.4418 30.0588 14.9868 29.5237C12.3361 28.549 9.9583 27.6107 9.70248 27.4392C9.44714 27.2681 8.47159 25.1927 7.53423 22.8277L5.82989 18.5277L2.9147 18.3853L0 18.2434Z" fill="#001C3C"/>
<path d="M74.2045 16.8182C74.2045 19.0123 73.7936 20.8916 72.9716 22.456C72.1563 24.0137 71.0426 25.2069 69.6307 26.0355C68.2254 26.8641 66.6312 27.2784 64.848 27.2784C63.0649 27.2784 61.4673 26.8641 60.0554 26.0355C58.6501 25.2003 57.5365 24.0038 56.7145 22.446C55.8991 20.8816 55.4915 19.0057 55.4915 16.8182C55.4915 14.6241 55.8991 12.7481 56.7145 11.1903C57.5365 9.62595 58.6501 8.42945 60.0554 7.60085C61.4673 6.77225 63.0649 6.35795 64.848 6.35795C66.6312 6.35795 68.2254 6.77225 69.6307 7.60085C71.0426 8.42945 72.1563 9.62595 72.9716 11.1903C73.7936 12.7481 74.2045 14.6241 74.2045 16.8182ZM70.4957 16.8182C70.4957 15.2737 70.2538 13.9711 69.7699 12.9105C69.2926 11.8433 68.6297 11.0379 67.7812 10.4943C66.9328 9.94413 65.955 9.66903 64.848 9.66903C63.741 9.66903 62.7633 9.94413 61.9148 10.4943C61.0663 11.0379 60.4001 11.8433 59.9162 12.9105C59.4389 13.9711 59.2003 15.2737 59.2003 16.8182C59.2003 18.3627 59.4389 19.6686 59.9162 20.7358C60.4001 21.7964 61.0663 22.6018 61.9148 23.152C62.7633 23.6955 63.741 23.9673 64.848 23.9673C65.955 23.9673 66.9328 23.6955 67.7812 23.152C68.6297 22.6018 69.2926 21.7964 69.7699 20.7358C70.2538 19.6686 70.4957 18.3627 70.4957 16.8182ZM77.6921 27V6.63636H81.381V15.9929H81.6296L89.5742 6.63636H94.0785L86.2035 15.7741L94.1481 27H89.7134L83.6381 18.2699L81.381 20.9347V27H77.6921ZM99.2564 27H95.3189L102.488 6.63636H107.042L114.221 27H110.283L104.844 10.8125H104.685L99.2564 27ZM99.3857 19.0156H110.124V21.9787H99.3857V19.0156ZM116.903 27V6.63636H124.539C126.104 6.63636 127.416 6.90814 128.477 7.4517C129.544 7.99526 130.35 8.75757 130.893 9.73864C131.443 10.7131 131.718 11.8499 131.718 13.1491C131.718 14.455 131.44 15.5885 130.883 16.5497C130.333 17.5043 129.521 18.2434 128.447 18.767C127.373 19.2841 126.054 19.5426 124.49 19.5426H119.051V16.4801H123.993C124.907 16.4801 125.656 16.3542 126.24 16.1023C126.823 15.8437 127.254 15.4692 127.532 14.9787C127.817 14.4815 127.96 13.8717 127.96 13.1491C127.96 12.4266 127.817 11.8101 127.532 11.2997C127.247 10.7827 126.813 10.3916 126.23 10.1264C125.646 9.85464 124.894 9.71875 123.973 9.71875H120.592V27H116.903ZM127.423 17.7727L132.464 27H128.348L123.396 17.7727H127.423ZM137.729 27H133.792L140.961 6.63636H145.515L152.694 27H148.756L143.317 10.8125H143.158L137.729 27ZM137.858 19.0156H148.597V21.9787H137.858V19.0156ZM162.276 27H155.376V6.63636H162.415C164.437 6.63636 166.174 7.04403 167.626 7.85938C169.084 8.66809 170.204 9.83144 170.987 11.3494C171.769 12.8674 172.16 14.6837 172.16 16.7983C172.16 18.9195 171.765 20.7424 170.977 22.267C170.194 23.7917 169.064 24.9616 167.586 25.777C166.114 26.5923 164.344 27 162.276 27ZM159.065 23.8082H162.097C163.516 23.8082 164.699 23.5497 165.647 23.0327C166.595 22.509 167.308 21.7301 167.785 20.696C168.262 19.6553 168.501 18.3561 168.501 16.7983C168.501 15.2405 168.262 13.9479 167.785 12.9205C167.308 11.8864 166.602 11.1141 165.667 10.6037C164.739 10.0866 163.585 9.82812 162.207 9.82812H159.065V23.8082Z" fill="#001C3C"/>
</svg>
