<svg width="94" height="16" viewBox="0 0 94 16" fill="none" xmlns="http://www.w3.org/2000/svg">
<path d="M23.857 4.45713V15.9996H18.7675V5.90253C18.7675 5.90253 18.5641 4.43773 17.0676 4.43773H14.418V15.9996H9.47104V4.43773H5.00176V15.9996H0V0H18.5641C23.7537 0 23.857 4.45713 23.857 4.45713M42.2305 0H54.3192L48.784 4.43727H42.2305V0ZM28.7299 6.01715H36.107V5.28385C36.107 5.28385 36.107 4.23691 34.3331 4.23691H24.9393V0.000447573H35.8872C41.597 0.000447573 41.0544 5.20758 41.0544 5.20758V12.4138L56.4427 0.000902031H69.9854C76.1344 0.000902031 76.9101 3.6638 76.9101 8.08799C76.9101 11.2532 76.4891 16 70.3373 16H59.1303L59.1212 3.56318L43.6456 16L28.7294 15.9959C27.9894 15.9959 23.8597 16.2577 23.8597 10.8443C23.8602 5.69449 27.9899 6.01715 28.7299 6.01715M64.2646 11.5618H68.5721C71.3232 11.5618 71.9037 10.6363 71.9037 8.12274C71.9037 5.60199 71.3228 4.43773 68.5721 4.43773H64.2646V11.5618ZM30.2451 11.9955H36.0193L36.0225 9.65117H30.2487C29.7734 9.65117 28.8492 9.65117 28.8492 10.7933C28.8492 11.9517 29.7702 11.9955 30.2451 11.9955ZM57.6695 11.5618V15.9996H45.7527L51.1681 11.5618H57.6695ZM81.6618 6.01715H89.0426V5.28385C89.0426 5.28385 89.0426 4.23691 87.2651 4.23691H77.8717V0.000447573H88.8228C94.5257 0.000447573 93.9864 5.20758 93.9864 5.20758V15.9959H81.6613C80.9227 15.9959 76.793 16.2577 76.793 10.8443C76.793 5.69449 80.9232 6.01715 81.6618 6.01715M83.1779 11.9955H88.9494L88.9558 9.65117H83.1816C82.7067 9.65117 81.7797 9.65117 81.7797 10.7933C81.7793 11.9517 82.703 11.9955 83.1779 11.9955Z" fill="#397FC2"/>
</svg>
