<svg width="72" height="45" viewBox="0 0 72 45" fill="none" xmlns="http://www.w3.org/2000/svg">
<g clip-path="url(#clip0_72_11133)">
<path d="M46.0569 41.5793H48.6988V42.1961H46.0569V41.5793ZM2.11473 37.8382L1.87859 44.0294V44.1369C1.87859 44.661 2.03164 44.7692 2.86011 44.8283V45.1152C2.25708 45.0683 2.01972 45.0563 1.68919 45.0563C1.35773 45.0563 1.12129 45.0683 0.506348 45.1152V44.8283C1.33391 44.7692 1.45274 44.6733 1.47626 44.0294L1.72462 38.1728V38.1022C1.72462 37.5526 1.55874 37.4336 0.743404 37.3862V37.0873C1.20377 37.1234 1.38126 37.1354 1.71271 37.1354C2.08817 37.1388 2.46349 37.1192 2.83659 37.0765L5.03547 43.1112L7.27009 37.0765C7.80316 37.1234 8.05122 37.1354 8.40619 37.1354C8.70068 37.1354 8.89069 37.1234 9.33975 37.0873V37.3862C8.53602 37.4336 8.35762 37.5526 8.35762 38.0893V38.1728L8.48806 44.0294C8.50089 44.6733 8.60659 44.7682 9.45828 44.8283V45.1152C8.71351 45.0437 8.4291 45.019 7.98004 45.019C7.53006 45.019 7.24627 45.0424 6.50149 45.1152V44.8283C7.30522 44.7812 7.48271 44.6493 7.48271 44.0898V44.0309L7.37732 37.8517L5.42527 43.171L5.28383 43.5651L5.11826 44.0057L4.96368 44.4604L4.83385 44.8536H4.65636L4.52684 44.4721L4.36065 44.0057L4.19539 43.541L4.05334 43.1238L2.11473 37.8382V37.8382ZM10.9943 41.6908C11.1128 40.3194 11.5615 39.6166 12.3185 39.6166C13.0874 39.6166 13.4775 40.2843 13.5481 41.6908H10.9943ZM12.5321 44.8157C11.4558 44.8157 10.982 43.9807 10.9714 42.12H14.4954C14.4713 40.2834 13.7262 39.3051 12.3305 39.3051C10.9124 39.3051 10.025 40.4624 10.025 42.2993C10.025 44.136 10.9127 45.2091 12.4374 45.2091C13.5964 45.2091 14.3537 44.4811 14.5064 43.2529H14.0329C13.8912 44.2666 13.3709 44.8157 12.5321 44.8157V44.8157ZM15.199 39.7463V39.5322C15.8726 39.4727 16.2752 39.4012 16.7597 39.2577C16.8189 39.6995 16.8425 39.8896 16.866 40.2479V40.3795C17.1269 39.6995 17.6343 39.3054 18.2498 39.3054C18.8406 39.3054 19.2787 39.6995 19.2787 40.2726C19.2787 40.6186 19.0777 40.8447 18.782 40.8447C18.5101 40.8447 18.2975 40.6774 18.2975 40.4396C18.2975 40.4158 18.3097 40.369 18.3204 40.3194L18.3439 40.2008V40.0923C18.3439 39.9253 18.2019 39.8064 17.989 39.8064C17.3749 39.8064 16.9848 40.5576 16.9848 41.7386V44.2309C16.9848 44.7448 17.1024 44.84 17.8243 44.8755V45.1142C17.173 45.0554 16.925 45.0421 16.511 45.0421C16.0855 45.0421 15.8374 45.0554 15.1874 45.1142V44.8755C15.908 44.84 16.0381 44.7448 16.0381 44.2309V40.332C16.0268 39.8187 15.9669 39.7599 15.3529 39.7472L15.199 39.7463V39.7463ZM23.8026 39.1988V41.1673H23.5418C23.3288 40.1287 22.8917 39.628 22.1707 39.628C21.283 39.628 20.7634 40.5949 20.7634 42.3003C20.7634 43.9696 21.2243 44.8166 22.1347 44.8166C22.8679 44.8166 23.3053 44.2922 23.4474 43.2431H23.9319C23.7779 44.5196 23.104 45.211 22.0403 45.211C20.6684 45.211 19.7348 44.0417 19.7348 42.3012C19.7348 40.5231 20.6803 39.307 22.0757 39.307C22.5844 39.307 22.9036 39.4385 23.2827 39.8082L23.601 39.1997H23.8029V39.1988H23.8026ZM25.7443 41.6908C25.8625 40.3194 26.3113 39.6166 27.0686 39.6166C27.8372 39.6166 28.2273 40.2843 28.2976 41.6908H25.7443V41.6908ZM27.2815 44.8157C26.2053 44.8157 25.7327 43.9807 25.7208 42.12H29.2442C29.2207 40.2834 28.475 39.3051 27.0808 39.3051C25.6609 39.3051 24.7738 40.4624 24.7738 42.2993C24.7738 44.136 25.6606 45.2091 27.1871 45.2091C28.3458 45.2091 29.1028 44.4811 29.2559 43.2529H28.783C28.6412 44.2666 28.121 44.8157 27.2815 44.8157V44.8157ZM32.519 44.8881C31.6677 44.8881 31.2186 43.9927 31.2186 42.2882C31.2186 40.5597 31.6322 39.7124 32.4839 39.7124C33.3594 39.7124 33.8088 40.6186 33.8088 42.373C33.8085 44.0291 33.3707 44.8881 32.519 44.8881V44.8881ZM34.7421 43.8735V36.9878C34.1509 37.1474 33.6194 37.242 32.9574 37.3135V37.5168C33.7022 37.5168 33.7969 37.6003 33.7969 38.2202V40.3071C33.3594 39.592 33.0164 39.3766 32.3776 39.3766C31.1126 39.3766 30.2252 40.581 30.2252 42.2984C30.2252 44.0161 31.1233 45.2196 32.413 45.2196C33.0869 45.2196 33.5482 44.9097 33.8791 44.2423C33.9261 44.6955 33.9261 44.743 34.0449 45.1956C34.5291 45.0403 34.7308 44.9928 35.4285 44.9097L35.6057 44.8862V44.6835C34.8132 44.6598 34.7421 44.6009 34.7421 43.8735V43.8735ZM37.0237 41.6908C37.142 40.3194 37.591 39.6166 38.3483 39.6166C39.1169 39.6166 39.5064 40.2843 39.5773 41.6908H37.0237ZM38.5612 44.8157C37.4844 44.8157 37.0124 43.9807 36.9999 42.12H40.5237C40.4998 40.2834 39.7551 39.3051 38.3602 39.3051C36.9403 39.3051 36.0538 40.4624 36.0538 42.2993C36.0538 44.136 36.9403 45.2091 38.4665 45.2091C39.6252 45.2091 40.3819 44.4811 40.535 43.2529H40.0618C39.9209 44.2666 39.3998 44.8157 38.5612 44.8157V44.8157ZM41.5278 45.2215V43.2289L41.7881 43.2175C42.0004 44.3033 42.4974 44.8283 43.3256 44.8283C44.0224 44.8283 44.5432 44.3628 44.5432 43.7558C44.5432 43.3503 44.319 43.0764 43.7386 42.8133L43.2895 42.6099L42.7458 42.3597C41.8816 41.9546 41.61 41.6203 41.61 40.9282C41.61 39.9857 42.3425 39.3427 43.3839 39.3427C43.8452 39.3427 44.1889 39.4499 44.5903 39.7229L44.7907 39.2342H45.0036V41.0829H44.7311C44.6239 40.1284 44.2344 39.6761 43.4899 39.6761C42.8634 39.6761 42.3774 40.1056 42.3774 40.666C42.3774 41.1427 42.5548 41.2986 43.6311 41.7752L44.1281 41.9906C45.0259 42.3828 45.3464 42.7655 45.3464 43.4695C45.3464 44.4715 44.5536 45.186 43.4432 45.186C42.8988 45.186 42.473 45.0428 42.0239 44.6853L41.7389 45.2215H41.5275H41.5278ZM51.9228 41.1063C52.5491 41.1063 52.9038 41.2142 53.1763 41.4878C53.4484 41.7632 53.6027 42.2756 53.6027 42.8472C53.6027 44.0399 53.0107 44.7085 51.9586 44.7085H51.533C50.9059 44.7085 50.7999 44.6123 50.7999 44.0876V41.1054L51.9228 41.1063V41.1063ZM50.799 37.4922H51.8043C52.7978 37.4922 53.2349 37.9821 53.2349 39.0907C53.2349 39.6391 53.1051 40.0335 52.8451 40.3425C52.5848 40.6417 52.2659 40.736 51.6042 40.736H50.7999V37.4919H50.799V37.4922V37.4922ZM54.287 39.0666C54.287 38.4464 54.0273 37.8986 53.5777 37.5516C53.1763 37.2537 52.7156 37.1231 51.9458 37.1231H48.8359V37.421C49.6879 37.4691 49.8055 37.5643 49.8055 38.2082V43.9924C49.8055 44.6367 49.7102 44.7192 48.8359 44.792V45.0788H51.8275C52.7021 45.0788 53.1759 44.9707 53.673 44.6607C54.2638 44.2793 54.6539 43.5515 54.6539 42.8016C54.6539 42.1561 54.3817 41.5722 53.9207 41.2157C53.673 41.025 53.4124 40.9162 52.9862 40.8336C53.8385 40.5101 54.287 39.9016 54.287 39.0666V39.0666ZM56.5842 41.6908C56.7031 40.3194 57.1521 39.6166 57.9094 39.6166C58.6774 39.6166 59.0681 40.2843 59.1384 41.6908H56.5842ZM58.1224 44.8157C57.0461 44.8157 56.5723 43.9807 56.561 42.12H60.0854C60.0616 40.2834 59.3162 39.3051 57.9207 39.3051C56.5018 39.3051 55.6146 40.4624 55.6146 42.2993C55.6146 44.136 56.5018 45.2091 58.0267 45.2091C59.1855 45.2091 59.9424 44.4811 60.0961 43.2529H59.6229C59.4821 44.2666 58.9618 44.8157 58.1224 44.8157V44.8157ZM60.7107 39.7938V39.592C61.3969 39.4958 61.7989 39.4012 62.2712 39.2339C62.331 39.5094 62.3668 39.8184 62.3897 40.2716C62.8158 39.6271 63.3 39.3418 63.9865 39.3418C64.6964 39.3418 65.3104 39.71 65.5478 40.2951C65.6666 40.5819 65.7256 40.9153 65.7256 41.3679V44.2306C65.7256 44.7439 65.8438 44.8391 66.5644 44.8745V45.1133C65.9379 45.0532 65.7018 45.0418 65.2759 45.0418C64.8375 45.0418 64.6017 45.0532 63.9861 45.1133V44.8745C64.6246 44.8517 64.7786 44.7319 64.7786 44.2549V41.3325C64.7786 40.2951 64.4713 39.877 63.7149 39.877C62.9099 39.877 62.4847 40.3906 62.4847 41.3679V44.2549C62.4847 44.7319 62.6393 44.8517 63.2545 44.8745V45.1133C62.6393 45.0532 62.4031 45.0418 61.977 45.0418C61.563 45.0418 61.3141 45.0532 60.6994 45.1133V44.8745C61.4201 44.8391 61.5389 44.7439 61.5389 44.2306V40.3672C61.527 39.877 61.4561 39.8064 60.8653 39.8064C60.8287 39.8064 60.7703 39.7938 60.7107 39.7938V39.7938ZM67.0239 45.0788L70.2284 39.759H68.7737C68.0057 39.759 67.8154 39.9253 67.3902 40.9991H67.1546L67.4268 39.4487H71.4947L68.2779 44.7682H69.6608C70.4658 44.7682 70.7963 44.4469 71.1513 43.3608H71.3997L71.0926 45.0788H67.0239Z" fill="#091923"/>
<path d="M50.4669 25.7652C52.0424 23.1229 52.8727 20.0969 52.8683 17.0136C52.8683 7.61713 45.3155 0 35.9995 0C26.6831 0 19.1309 7.61744 19.1309 17.0136C19.1265 20.097 19.9571 23.123 21.5329 25.7652L21.4715 25.8148L21.5448 25.7862C24.4973 30.724 29.8656 34.0272 35.9995 34.0272C42.1336 34.0272 47.5013 30.724 50.4535 25.7862L50.5268 25.8148L50.4669 25.7652ZM50.7959 17.0136C50.7988 19.6191 50.1216 22.1795 48.8323 24.4372L38.3969 15.9602L36.2567 2.09762C44.309 2.23627 50.7959 8.85882 50.7959 17.0136ZM21.2048 17.0136C21.2048 8.85913 27.6912 2.23658 35.7435 2.09762L33.6032 15.9602L23.1679 24.4372C21.879 22.1793 21.202 19.619 21.2048 17.0136V17.0136ZM36.0001 31.9361C30.75 31.9361 26.1418 29.1754 23.5158 25.0174L36.0001 20.1462L48.4843 25.0177C45.8581 29.1754 41.2507 31.9361 36.0001 31.9361Z" fill="#838383"/>
</g>
<defs>
<clipPath id="clip0_72_11133">
<rect width="71" height="45" fill="white" transform="translate(0.5)"/>
</clipPath>
</defs>
</svg>
