<svg width="44" height="37" viewBox="0 0 44 37" fill="none" xmlns="http://www.w3.org/2000/svg">
<g clip-path="url(#clip0_72_11139)">
<path d="M42.4862 14.0206C42.0796 13.9092 41.6269 13.8565 40.6732 13.7409C36.7259 13.5819 26.9711 13.2095 22.0002 13.2095C17.0295 13.2095 7.27452 13.5817 3.32772 13.7409C2.37358 13.8565 1.92038 13.9092 1.51404 14.0206C0.27302 14.3079 0 14.7454 0 15.6181V21.5995C0 22.4724 0.95238 23.0607 1.60886 23.1793C2.26578 23.2987 2.68136 23.3465 3.37238 23.411C6.90272 23.6258 15.0933 24.0734 22 24.0805C28.9069 24.074 37.0971 23.626 40.6276 23.411C41.3184 23.3465 41.7342 23.2985 42.3914 23.1793C43.0476 23.0604 44 22.4724 44 21.5995V15.6181C44 14.7454 43.7272 14.3079 42.4862 14.0206Z" fill="url(#paint0_linear_72_11139)"/>
<path d="M6.17087 14.2559C8.11303 7.62186 14.4946 2.75427 22.0698 2.75427C29.6233 2.75427 35.9919 7.59508 37.953 14.2025C37.9591 14.2258 37.9633 14.2379 37.9701 14.2604C39.0961 14.1362 40.1048 13.9444 40.8176 13.7575C40.8046 13.7149 40.8013 13.7063 40.7901 13.6644C38.5613 5.79368 31.0245 0.00195312 22.0698 0.00195312C13.085 0.00195312 5.52847 5.83127 3.32715 13.7409C4.31737 14.0072 5.04271 14.1189 6.17087 14.2559Z" fill="url(#paint1_radial_72_11139)"/>
<path d="M37.9068 22.9507C37.8873 23.0097 37.8655 23.0747 37.8554 23.1069C35.7902 29.5555 29.5048 34.2458 22.0704 34.2458C14.5772 34.2458 8.25216 29.4831 6.23718 22.9569C5.00562 23.171 4.5896 23.2525 3.37256 23.4115C5.62756 31.2437 13.1436 36.9981 22.0704 36.9981C31.0008 36.9981 38.5195 31.2377 40.7704 23.3989C39.6981 23.2689 39.0665 23.1706 37.9068 22.9507V22.9507Z" fill="url(#paint2_radial_72_11139)"/>
<path d="M6.56722 14.2419C7.03472 14.0522 7.48703 13.7498 8.19213 13.5552C10.2942 8.19246 15.7137 4.37365 22.0695 4.37365C28.4055 4.37365 33.8116 8.16891 35.9269 13.5057C35.9344 13.5238 35.9421 13.5459 35.948 13.5595C36.3119 13.6833 37.3839 14.1101 37.7175 14.2529C37.7648 14.254 37.8657 14.2575 37.97 14.2603C37.9639 14.2411 37.9582 14.2218 37.9529 14.2024C35.9909 7.59711 29.6226 2.75781 22.0695 2.75781C14.4962 2.75781 8.1147 7.62324 6.17188 14.2559C6.28407 14.2562 6.4977 14.2467 6.56722 14.2419V14.2419Z" fill="url(#paint3_radial_72_11139)"/>
<path d="M21.9491 3.20605C29.036 3.20605 35.3181 7.35538 37.6976 14.1948L37.717 14.2529C37.7539 14.2529 37.8888 14.2577 37.9695 14.2603C37.9631 14.2354 37.9565 14.2209 37.9524 14.2024C35.9904 7.59711 29.6221 2.75781 22.069 2.75781C14.4957 2.75781 8.11421 7.62324 6.17139 14.2559C6.32275 14.2536 6.39557 14.2536 6.56717 14.2417C8.69457 7.74854 14.9144 3.20605 21.9491 3.20605V3.20605Z" fill="white"/>
<path d="M37.5049 22.9697C36.9958 23.2491 36.362 23.5178 35.8553 23.6748C35.8485 23.6908 35.8197 23.7617 35.8135 23.7783C33.6219 28.9676 28.2941 32.6306 22.0699 32.6306C15.8065 32.6306 10.4515 28.9231 8.28536 23.6824C7.70258 23.5236 6.83138 23.1335 6.5016 22.9706C6.37818 22.9648 6.31174 22.9613 6.23584 22.9574C8.25082 29.4828 14.5769 34.2462 22.0701 34.2462C29.5294 34.2462 35.8311 29.5264 37.8756 23.0471C37.88 23.0346 37.9026 22.9633 37.9075 22.9512C37.7893 22.9557 37.6087 22.9697 37.5049 22.9697V22.9697Z" fill="url(#paint4_radial_72_11139)"/>
<path d="M42.1335 14.454C41.0881 14.3292 40.3753 14.3426 37.8286 14.2564C37.7128 14.2523 37.5951 14.2488 37.4757 14.2447C32.8579 14.0892 25.9213 13.8813 22 13.8813C18.0789 13.8813 11.1426 14.0892 6.5241 14.2447C6.40486 14.2488 6.2876 14.2523 6.1721 14.2564C3.62494 14.3426 2.91236 14.3292 1.8667 14.454C0.82126 14.58 0 15.0295 0 15.794V21.3408C0 22.1057 0.98934 22.725 1.86648 22.725C1.86648 22.725 13.0306 23.4018 22 23.4098C30.9696 23.4018 42.1335 22.725 42.1335 22.725C43.0107 22.725 44 22.1057 44 21.3408V15.794C44 15.0295 43.179 14.58 42.1335 14.454V14.454Z" fill="url(#paint5_radial_72_11139)"/>
<path d="M37.505 22.9696C35.314 29.3515 29.1523 33.7972 22.1921 33.7972C15.1612 33.7972 8.9224 29.7132 6.50108 22.9696C6.4122 22.9651 6.3242 22.9616 6.2373 22.9567C8.25184 29.4822 14.579 34.2457 22.0725 34.2457C29.5683 34.2457 35.8962 29.4792 37.9089 22.9502C37.7765 22.9562 37.6421 22.9634 37.505 22.9696V22.9696Z" fill="white"/>
<path d="M37.5178 22.9692L37.5043 22.9697C36.9952 23.249 36.3619 23.5177 35.8548 23.6748C35.8479 23.6907 35.8191 23.7616 35.8132 23.7782C35.1198 25.4204 34.1122 26.9097 32.8604 28.1788C34.8197 26.7723 36.4178 24.9953 37.5178 22.9692V22.9692Z" fill="#8C8C8C"/>
<path d="M11.7018 28.5917C10.2283 27.2135 9.05523 25.5451 8.28523 23.6819C7.70245 23.523 6.83146 23.1326 6.50146 22.9697C6.85411 23.6875 7.26987 24.3738 7.74403 25.0206C8.71401 26.261 9.88969 27.3666 11.2279 28.3022C11.3837 28.4024 11.5417 28.4988 11.7018 28.5917V28.5917Z" fill="#4D4D4D"/>
<path d="M6.23647 22.9575V22.957L6.23141 22.9579C5.00381 23.1715 4.58735 23.2534 3.37207 23.4115C3.46997 23.7529 3.57843 24.0892 3.69657 24.4221L6.23647 22.9575Z" fill="#252525"/>
<path d="M30.9401 16.9105C30.5732 16.1052 30.7034 16.1897 29.9046 16.1689C29.8397 16.1473 29.6665 16.1473 29.4294 16.1473C29.1927 16.1473 29.1491 16.1473 28.9546 16.1689C28.1996 16.1689 28.3289 16.1266 28.0702 16.6563C28.0702 16.6563 26.7742 19.5168 26.2136 20.7034L26.1921 20.7458C26.0843 20.9572 26.1492 20.9572 26.3214 20.9572H27.4872C27.5739 20.9572 27.6166 20.9158 27.6381 20.8726C27.6381 20.8726 27.8108 20.5122 28.0267 20.0039H30.8754C31.0915 20.4915 31.2424 20.8514 31.2424 20.8726C31.264 20.9363 31.3289 20.9572 31.3933 20.9572H32.602C32.7747 20.9572 32.818 20.9795 32.7534 20.8302C32.5371 20.3219 31.1344 17.3549 30.9401 16.9105V16.9105ZM28.4579 18.9869C28.8248 18.1395 29.1922 17.3132 29.1922 17.2918C29.214 17.2492 29.2571 17.2281 29.3216 17.2281C29.3434 17.2065 29.4085 17.2065 29.4729 17.2065C29.5163 17.2065 29.5805 17.2065 29.6023 17.2281C29.6452 17.2281 29.6892 17.2492 29.7099 17.313C29.797 17.5456 30.12 18.2665 30.422 18.9869H28.4579V18.9869ZM12.9188 16.105C13.0266 16.105 13.0484 16.1471 13.0484 16.232V20.7674C13.0484 20.8728 13.0266 20.916 12.8975 20.916H11.775C11.6459 20.916 11.6243 20.8944 11.6243 20.7674V16.232C11.6243 16.1471 11.6459 16.105 11.7319 16.105H12.9188V16.105ZM10.5232 16.1471C10.6524 16.1471 10.6746 16.1892 10.6746 16.2957V20.8097C10.6746 20.9371 10.6524 20.9583 10.5232 20.9583H9.20654C8.42994 20.9583 8.36504 20.9583 8.10632 20.5349C7.56666 19.7086 5.94768 17.2715 5.94768 17.2715V20.8101C5.94768 20.9378 5.92612 20.9585 5.79698 20.9585H4.82546C4.6961 20.9585 4.67432 20.9378 4.67432 20.8101V16.2957C4.67432 16.1897 4.6961 16.1471 4.82546 16.1471H5.94768C6.7894 16.1471 6.8972 16.1261 7.19992 16.55C7.43708 16.9317 9.40102 19.8983 9.40102 19.8983V16.2957C9.40102 16.1897 9.42258 16.1471 9.55238 16.1471H10.5232V16.1471ZM39.3353 16.1471C39.4656 16.1471 39.4867 16.1892 39.4867 16.2957V20.8097C39.4867 20.9371 39.4651 20.9583 39.3353 20.9583H38.0199C37.2422 20.9583 37.1773 20.9583 36.9186 20.5349C36.3785 19.708 34.76 17.2711 34.76 17.2711V20.8099C34.76 20.9374 34.7384 20.9581 34.6086 20.9581H33.638C33.5086 20.9581 33.4864 20.9374 33.4864 20.8099V16.2957C33.4864 16.1897 33.5088 16.1471 33.638 16.1471H34.76C35.6017 16.1471 35.7099 16.1261 36.0116 16.55C36.2707 16.9317 38.2133 19.8983 38.2133 19.8983V16.2957C38.2133 16.1897 38.2351 16.1471 38.3647 16.1471H39.3353V16.1471ZM17.8613 17.9915C18.7248 18.076 19.351 18.2241 19.5234 19.0297C19.5234 19.0928 19.5452 19.3049 19.5452 19.5382C19.5452 19.6868 19.5452 19.8769 19.5019 20.0467C19.3512 20.8095 18.768 20.9577 17.862 20.9577H14.2355C14.1059 20.9577 14.0842 20.9369 14.0842 20.8095V20.0467C14.0842 19.9193 14.1059 19.8981 14.2355 19.8981H17.904C18.0554 19.8981 18.0985 19.856 18.1198 19.7495V19.5587V19.4317C18.0981 19.3466 18.0767 19.2196 17.8827 19.1988C17.4724 19.1777 16.2641 19.0714 15.4435 18.9869C14.386 18.8808 14.1273 18.4363 14.0839 18.0546C14.0624 17.9271 14.0624 17.7578 14.0624 17.6093C14.0624 17.4821 14.0624 17.2916 14.0839 17.143C14.2353 16.4644 14.7534 16.1471 15.6594 16.1471H19.1772C19.3072 16.1471 19.3505 16.1687 19.3505 16.2743V17.0587C19.3505 17.1639 19.3072 17.2067 19.1772 17.1855H15.7243C15.5731 17.1855 15.5087 17.249 15.4867 17.3972V17.588C15.4867 17.694 15.5516 17.7789 15.7025 17.7994C16.1134 17.8427 17.3864 17.9485 17.8613 17.9915V17.9915ZM24.0981 17.9915C24.9623 18.076 25.5877 18.2241 25.7607 19.0297C25.7607 19.0928 25.7822 19.3049 25.7822 19.5382C25.7822 19.6868 25.7822 19.8769 25.7391 20.0467C25.5884 20.8095 25.0058 20.9577 24.099 20.9577H20.4727C20.3432 20.9577 20.3214 20.9369 20.3214 20.8095V20.0467C20.3214 19.9193 20.3432 19.8981 20.4727 19.8981H24.1419C24.2928 19.8981 24.3353 19.856 24.3575 19.7495V19.5587V19.4317C24.3351 19.3466 24.2924 19.2196 24.1199 19.1988C23.71 19.1777 22.5014 19.0714 21.6814 18.9869C20.6234 18.8808 20.3865 18.4363 20.3214 18.0546C20.2998 17.9271 20.2998 17.7578 20.2998 17.6093C20.2998 17.4821 20.2998 17.2916 20.3214 17.143C20.4727 16.4644 20.9906 16.1471 21.8968 16.1471H25.4153C25.5442 16.1471 25.588 16.1687 25.588 16.2743V17.0587C25.588 17.1639 25.5442 17.2067 25.4153 17.1855H21.9617C21.8108 17.1855 21.7463 17.249 21.7243 17.3972V17.588C21.7243 17.694 21.7677 17.7789 21.9406 17.7994C22.3507 17.8427 23.6236 17.9485 24.0981 17.9915V17.9915Z" fill="url(#paint6_radial_72_11139)"/>
</g>
<defs>
<linearGradient id="paint0_linear_72_11139" x1="22" y1="0.548077" x2="22" y2="30.6616" gradientUnits="userSpaceOnUse">
<stop offset="0.194" stop-color="white"/>
<stop offset="0.208" stop-color="#F8F8F8"/>
<stop offset="0.366" stop-color="#AEAEAE"/>
<stop offset="0.513" stop-color="#707070"/>
<stop offset="0.647" stop-color="#404040"/>
<stop offset="0.764" stop-color="#1D1D1D"/>
<stop offset="0.86" stop-color="#080808"/>
<stop offset="0.922"/>
</linearGradient>
<radialGradient id="paint1_radial_72_11139" cx="0" cy="0" r="1" gradientUnits="userSpaceOnUse" gradientTransform="translate(9.64841 -7.43542) scale(30.6819 30.1269)">
<stop offset="0.202" stop-color="white"/>
<stop offset="0.382" stop-color="#FDFDFD"/>
<stop offset="0.487" stop-color="#F4F4F4"/>
<stop offset="0.573" stop-color="#E6E6E6"/>
<stop offset="0.648" stop-color="#D2D2D2"/>
<stop offset="0.689" stop-color="#C4C4C4"/>
<stop offset="1" stop-color="#333333"/>
</radialGradient>
<radialGradient id="paint2_radial_72_11139" cx="0" cy="0" r="1" gradientUnits="userSpaceOnUse" gradientTransform="translate(83.9007 40.8201) scale(63.899 62.7432)">
<stop offset="0.202" stop-color="white"/>
<stop offset="0.368" stop-color="#E4E4E4"/>
<stop offset="0.594" stop-color="#C4C4C4"/>
<stop offset="1" stop-color="#333333"/>
</radialGradient>
<radialGradient id="paint3_radial_72_11139" cx="0" cy="0" r="1" gradientUnits="userSpaceOnUse" gradientTransform="translate(17.0179 26.9746) scale(19.6172 19.2623)">
<stop offset="0.202" stop-color="white"/>
<stop offset="0.368" stop-color="#E4E4E4"/>
<stop offset="0.594" stop-color="#C4C4C4"/>
<stop offset="1" stop-color="#333333"/>
</radialGradient>
<radialGradient id="paint4_radial_72_11139" cx="0" cy="0" r="1" gradientUnits="userSpaceOnUse" gradientTransform="translate(32.8486 46.6709) scale(37.2227 36.5494)">
<stop offset="0.202" stop-color="white"/>
<stop offset="0.368" stop-color="#E4E4E4"/>
<stop offset="0.594" stop-color="#C4C4C4"/>
<stop offset="1" stop-color="#333333"/>
</radialGradient>
<radialGradient id="paint5_radial_72_11139" cx="0" cy="0" r="1" gradientUnits="userSpaceOnUse" gradientTransform="translate(21.7052 3.81349) scale(29.5794 29.0444)">
<stop offset="0.202" stop-color="white"/>
<stop offset="0.397" stop-color="#FDFDFD"/>
<stop offset="0.51" stop-color="#F4F4F4"/>
<stop offset="0.603" stop-color="#E6E6E6"/>
<stop offset="0.684" stop-color="#D2D2D2"/>
<stop offset="0.728" stop-color="#C4C4C4"/>
<stop offset="1" stop-color="#4D4D4D"/>
</radialGradient>
<radialGradient id="paint6_radial_72_11139" cx="0" cy="0" r="1" gradientUnits="userSpaceOnUse" gradientTransform="translate(22.3903 6.72191) scale(19.9234 19.563)">
<stop offset="0.111" stop-color="#4D4D4D"/>
<stop offset="0.248" stop-color="#494949"/>
<stop offset="0.355" stop-color="#404040"/>
<stop offset="0.451" stop-color="#2F2F2F"/>
<stop offset="0.541" stop-color="#181818"/>
<stop offset="0.611"/>
</radialGradient>
<clipPath id="clip0_72_11139">
<rect width="44" height="37" fill="white"/>
</clipPath>
</defs>
</svg>
