<svg width="40" height="40" viewBox="0 0 40 40" fill="none" xmlns="http://www.w3.org/2000/svg">
<path fill-rule="evenodd" clip-rule="evenodd" d="M16.9147 0.0832059C15.7908 0.251964 14.3934 0.764929 13.4268 1.36336C10.8221 2.97587 9.28133 5.56747 9.03992 8.74226C8.99945 9.27441 8.96556 10.0032 8.96462 10.3619L8.96282 11.0139L8.63843 11.3652C8.26669 11.7677 7.97902 12.3688 7.90646 12.8947C7.86325 13.2085 8.13887 15.7339 8.30685 16.5633C8.45057 17.2724 9.04947 18.0424 9.72712 18.3893C10.0496 18.5544 10.2114 18.5791 10.971 18.5791H11.844L12.0133 19.0731C12.2798 19.8509 12.9905 21.2397 13.6172 22.2074C14.9517 24.268 16.6781 25.6871 18.4904 26.2131C19.3441 26.4608 20.6561 26.4608 21.5101 26.213C22.7762 25.8455 23.8384 25.1625 24.9712 23.9875C27.097 21.7824 28.6665 18.1989 29.122 14.5104C29.3001 13.0679 29.2475 10.6329 29.0142 9.52582C28.7097 8.08005 28.1973 6.77078 27.5245 5.71865C27.1371 5.11288 26.1684 4.08001 25.5853 3.65123C22.6177 1.46891 17.3823 1.46891 14.4147 3.65123C13.8316 4.08001 12.8629 5.11288 12.4755 5.71865C11.7688 6.82376 11.2067 8.30807 10.9521 9.74093C10.8803 10.1451 10.7937 10.4758 10.7597 10.4758C10.7256 10.4758 10.6377 10.4995 10.5645 10.5284C10.4413 10.5771 10.4341 10.4803 10.4691 9.25853C10.5104 7.8176 10.6698 7.05549 11.1554 5.97803C11.6477 4.88526 12.7055 3.60043 13.6832 2.9075C14.2873 2.47944 15.4522 1.94164 16.2818 1.70789L17.0646 1.48729L20.1174 1.48826L23.1703 1.48922L23.953 1.71152C26.752 2.50637 28.8164 4.60564 29.5191 7.37155C29.6949 8.06319 29.7298 8.40095 29.7649 9.74698L29.8057 11.3161L30.024 11.541C30.3209 11.8467 30.6614 11.8428 30.9649 11.5302L31.1937 11.2945L31.1933 10.0184C31.1926 7.97611 30.9094 6.57469 30.2071 5.13723C28.9217 2.50612 26.3494 0.604154 23.4127 0.113603C22.6125 -0.0200806 17.7534 -0.0428181 16.9147 0.0832059ZM21.2133 3.55044C22.284 3.68557 23.0099 3.9044 23.9139 4.36456C24.6308 4.72948 24.832 4.88139 25.4886 5.5532C26.8025 6.89753 27.5026 8.50891 27.7803 10.8278L27.8273 11.2202L27.5506 11.0028C27.1267 10.6698 26.3239 10.3248 25.7357 10.2227C25.2176 10.1329 25.1831 10.1382 24.227 10.4545C20.5352 11.6761 18.5356 11.6708 15.5278 10.4312C14.9714 10.2019 14.7352 10.1438 14.4805 10.1733C13.9067 10.24 13.2953 10.5923 12.7132 11.1919L12.1722 11.7492V11.4027C12.1722 10.4025 12.6693 8.39466 13.1701 7.37155C13.863 5.95602 15.1465 4.73231 16.5856 4.11525C17.9005 3.55141 19.5887 3.34532 21.2133 3.55044ZM15.1555 11.851C17.7319 12.9488 20.1304 13.0991 22.9746 12.3411C23.4697 12.2091 24.2199 11.9872 24.6416 11.8479C25.3264 11.6217 25.4396 11.6049 25.6984 11.6912C26.552 11.9758 27.2214 12.5565 27.5342 13.2836C27.8574 14.035 27.6768 15.4635 26.9871 17.6115C25.6874 21.659 23.288 24.4366 20.7036 24.8854C20.0718 24.9952 19.9262 24.9948 19.2759 24.8824C17.9154 24.6469 16.5191 23.7148 15.4236 22.3109C14.8693 21.6003 14.1631 20.4927 14.2242 20.4298C14.2444 20.409 14.5254 20.5178 14.8486 20.6716C15.8345 21.1408 17.6474 21.6013 18.5127 21.6024C18.7333 21.6026 18.8305 21.6593 19.0117 21.8932C19.6034 22.6571 20.8491 22.589 21.3793 21.7639C21.8906 20.9678 21.5904 19.8912 20.7468 19.4966C20.1512 19.2179 19.552 19.3417 19.064 19.8444L18.7389 20.1792L18.0577 20.0858C16.2807 19.842 14.7489 19.1844 13.4513 18.1079C13.061 17.7841 13.0392 17.7441 12.8087 16.9262C12.5658 16.0644 12.3288 14.9582 12.3288 14.6863C12.3288 14.4362 12.987 13.1302 13.39 12.5806C13.7086 12.1462 14.3384 11.6046 14.5251 11.6046C14.5538 11.6046 14.8375 11.7155 15.1555 11.851ZM10.7636 12.8745C10.7641 14.0247 11.0286 15.8673 11.3597 17.0269C11.4254 17.2571 10.5573 17.2264 10.2115 16.9864C9.77534 16.6836 9.69706 16.4438 9.47569 14.7334C9.28384 13.2506 9.27843 13.1253 9.3935 12.8415C9.61526 12.2949 9.98787 12.0173 10.5088 12.0109L10.7632 12.0078L10.7636 12.8745ZM12.681 25.8415C7.96712 26.7555 4.84877 28.2115 2.73237 30.4865C1.38387 31.9362 0.622779 33.4502 0.186536 35.5516C0.0403914 36.2554 0.00978474 36.661 0.0053229 37.9568L0 39.5155L0.26317 39.7578L0.526262 40L20.0572 39.9615L39.5882 39.9229L39.7941 39.7107L40 39.4985L39.9933 37.9483C39.986 36.2249 39.8589 35.3808 39.4058 34.0448C37.9695 29.8096 33.9012 27.0566 27.2849 25.8423C26.1058 25.6258 25.9575 25.6374 25.6622 25.9683C25.5689 26.0728 24.2725 27.8273 22.7812 29.8672C21.2899 31.9071 20.0383 33.5762 19.9998 33.5762C19.9613 33.5762 18.6912 31.889 17.1773 29.8269C15.6635 27.7648 14.3495 25.9982 14.2575 25.9011C14.0045 25.6346 13.7897 25.6264 12.681 25.8415ZM16.4775 31.29C18.6478 34.2543 19.5608 35.4413 19.74 35.5314C20.2276 35.7766 20.2384 35.7645 23.4232 31.4163C25.0492 29.1964 26.4149 27.3323 26.4579 27.2738C26.5218 27.187 26.7524 27.2123 27.7104 27.4111C33.8089 28.6773 37.2571 31.229 38.2745 35.2291C38.4878 36.0678 38.6285 37.1543 38.6294 37.9705L38.6301 38.4946L19.9999 38.5237L1.36986 38.5529V38.0166C1.36986 32.7702 4.51358 29.3689 10.8799 27.7275C11.6504 27.5289 13.1557 27.2035 13.4247 27.1775C13.4462 27.1755 14.82 29.0261 16.4775 31.29Z" fill="#00ACEC"/>
</svg>
