<svg width="136" height="136" viewBox="0 0 136 136" fill="none" xmlns="http://www.w3.org/2000/svg">
<g filter="url(#filter0_d_108_4415)">
<circle cx="68" cy="58" r="48" fill="white" fill-opacity="0.4" shape-rendering="crispEdges"/>
</g>
<g filter="url(#filter1_d_108_4415)">
<circle cx="68" cy="58" r="38" fill="white" fill-opacity="0.7" shape-rendering="crispEdges"/>
<circle cx="68" cy="58" r="37.25" stroke="white" stroke-width="1.5" shape-rendering="crispEdges"/>
</g>
<path d="M78.6413 52.3049L65.9706 44.9895C64.3484 44.0529 62.35 44.0516 60.7265 44.986C59.1029 45.9204 58.1003 47.6491 58.0952 49.5223V64.188C58.1003 66.0613 59.1029 67.7899 60.7265 68.7243C62.35 69.6587 64.3484 69.6574 65.9706 68.7208L78.6413 61.4054C80.269 60.4684 81.2723 58.7333 81.2723 56.8552C81.2723 54.977 80.269 53.2419 78.6413 52.3049Z" fill="#111111"/>
<defs>
<filter id="filter0_d_108_4415" x="0" y="0" width="136" height="136" filterUnits="userSpaceOnUse" color-interpolation-filters="sRGB">
<feFlood flood-opacity="0" result="BackgroundImageFix"/>
<feColorMatrix in="SourceAlpha" type="matrix" values="0 0 0 0 0 0 0 0 0 0 0 0 0 0 0 0 0 0 127 0" result="hardAlpha"/>
<feOffset dy="10"/>
<feGaussianBlur stdDeviation="10"/>
<feComposite in2="hardAlpha" operator="out"/>
<feColorMatrix type="matrix" values="0 0 0 0 0 0 0 0 0 0 0 0 0 0 0 0 0 0 0.02 0"/>
<feBlend mode="normal" in2="BackgroundImageFix" result="effect1_dropShadow_108_4415"/>
<feBlend mode="normal" in="SourceGraphic" in2="effect1_dropShadow_108_4415" result="shape"/>
</filter>
<filter id="filter1_d_108_4415" x="10" y="10" width="116" height="116" filterUnits="userSpaceOnUse" color-interpolation-filters="sRGB">
<feFlood flood-opacity="0" result="BackgroundImageFix"/>
<feColorMatrix in="SourceAlpha" type="matrix" values="0 0 0 0 0 0 0 0 0 0 0 0 0 0 0 0 0 0 127 0" result="hardAlpha"/>
<feOffset dy="10"/>
<feGaussianBlur stdDeviation="10"/>
<feComposite in2="hardAlpha" operator="out"/>
<feColorMatrix type="matrix" values="0 0 0 0 0 0 0 0 0 0 0 0 0 0 0 0 0 0 0.38 0"/>
<feBlend mode="normal" in2="BackgroundImageFix" result="effect1_dropShadow_108_4415"/>
<feBlend mode="normal" in="SourceGraphic" in2="effect1_dropShadow_108_4415" result="shape"/>
</filter>
</defs>
</svg>
