<svg width="130" height="130" viewBox="0 0 130 130" fill="none" xmlns="http://www.w3.org/2000/svg">
<g filter="url(#filter0_d_236_297)">
<circle cx="70" cy="65" r="30" fill="white"/>
</g>
<path fill-rule="evenodd" clip-rule="evenodd" d="M59.5 65C59.5 64.8011 59.579 64.6104 59.7197 64.4697C59.8603 64.329 60.0511 64.25 60.25 64.25L77.9395 64.25L73.219 59.531C73.0782 59.3902 72.9991 59.1992 72.9991 59C72.9991 58.8009 73.0782 58.6099 73.219 58.469C73.3598 58.3282 73.5508 58.2491 73.75 58.2491C73.9492 58.2491 74.1402 58.3282 74.281 58.469L80.281 64.469C80.3508 64.5387 80.4063 64.6215 80.4441 64.7126C80.4819 64.8037 80.5013 64.9014 80.5013 65C80.5013 65.0987 80.4819 65.1964 80.4441 65.2875C80.4063 65.3786 80.3508 65.4614 80.281 65.531L74.281 71.531C74.1402 71.6719 73.9492 71.751 73.75 71.751C73.5508 71.751 73.3598 71.6719 73.219 71.531C73.0782 71.3902 72.9991 71.1992 72.9991 71C72.9991 70.8009 73.0782 70.6099 73.219 70.469L77.9395 65.75L60.25 65.75C60.0511 65.75 59.8603 65.671 59.7197 65.5304C59.579 65.3897 59.5 65.1989 59.5 65Z" fill="#19032A"/>
<defs>
<filter id="filter0_d_236_297" x="0" y="0" width="130" height="130" filterUnits="userSpaceOnUse" color-interpolation-filters="sRGB">
<feFlood flood-opacity="0" result="BackgroundImageFix"/>
<feColorMatrix in="SourceAlpha" type="matrix" values="0 0 0 0 0 0 0 0 0 0 0 0 0 0 0 0 0 0 127 0" result="hardAlpha"/>
<feOffset dx="-5"/>
<feGaussianBlur stdDeviation="17.5"/>
<feComposite in2="hardAlpha" operator="out"/>
<feColorMatrix type="matrix" values="0 0 0 0 0.366667 0 0 0 0 0.366667 0 0 0 0 0.366667 0 0 0 0.24 0"/>
<feBlend mode="normal" in2="BackgroundImageFix" result="effect1_dropShadow_236_297"/>
<feBlend mode="normal" in="SourceGraphic" in2="effect1_dropShadow_236_297" result="shape"/>
</filter>
</defs>
</svg>
