<svg width="72" height="37" viewBox="0 0 72 37" fill="none" xmlns="http://www.w3.org/2000/svg">
<path d="M27.5495 25.5567V28.1337H33.2759C33.2875 28.1339 33.2985 28.1385 33.3068 28.1468C33.315 28.155 33.3196 28.1662 33.3198 28.1778C33.3198 28.1899 33.3148 28.2014 33.3057 28.2101L27.348 33.7956V35.9674H39.3843V33.3793H33.3919C33.3831 33.3793 33.3744 33.3766 33.3671 33.3716C33.3598 33.3666 33.3541 33.3595 33.3509 33.3513C33.3477 33.343 33.3471 33.3339 33.3491 33.3253C33.3511 33.3166 33.3556 33.3088 33.3621 33.3027C33.3621 33.3027 39.377 27.7584 39.4052 27.7319V25.5562C39.3187 25.5567 27.6363 25.5567 27.5495 25.5567ZM22.7268 25.5567V32.1702C22.7268 33.1366 21.882 33.7134 20.4669 33.7134C19.0314 33.7134 18.2078 33.1416 18.2078 32.1442V25.557H14.5121V32.3558C14.5121 33.8016 14.8791 34.7081 15.7022 35.2942C16.6029 35.9364 18.1168 36.2353 20.4666 36.2353C22.8167 36.2353 24.3309 35.9364 25.2316 35.2942C26.055 34.7081 26.4219 33.8014 26.4219 32.3558V25.557L22.7268 25.5567ZM48.697 25.5567V32.1435C48.697 33.1266 47.8531 33.7132 46.4385 33.7132C45.0014 33.7132 44.1775 33.1413 44.1775 32.144V25.5567H40.4829V32.3555C40.4829 33.8014 40.8501 34.7079 41.6735 35.2939C42.5745 35.9361 44.0884 36.2351 46.4385 36.2351C48.7872 36.2351 50.3014 35.9361 51.2032 35.2939C52.0263 34.7076 52.3938 33.8011 52.3938 32.3555V25.5567H48.697ZM67.3364 25.5567V35.9679H71.1967V25.5567H67.3364ZM61.592 25.5567C61.5669 25.5777 57.407 29.1701 57.407 29.1701C57.4007 29.1757 57.3928 29.1792 57.3845 29.1804C57.3761 29.1816 57.3676 29.1803 57.36 29.1767C57.3522 29.1733 57.3456 29.1677 57.341 29.1605C57.3364 29.1534 57.334 29.1451 57.3341 29.1365V25.5567H53.4746V35.9679H57.3341V32.2888C57.3341 32.2715 57.3443 32.255 57.361 32.2484C57.3689 32.2451 57.3776 32.2441 57.386 32.2456C57.3945 32.2471 57.4023 32.251 57.4086 32.2568C57.4086 32.2568 61.2695 35.9435 61.2945 35.9679H66.4665L60.7799 30.6585C60.7754 30.6544 60.7718 30.6494 60.7694 30.6439C60.767 30.6383 60.7657 30.6323 60.7658 30.6262V30.6252C60.7658 30.6128 60.7713 30.6008 60.7815 30.5924L66.65 25.5564L61.592 25.5567ZM1.18669 28.6927C1.18669 29.8247 1.62267 30.5926 2.55867 31.1086C3.41966 31.5834 4.71349 31.8792 6.88504 32.098L7.29541 32.1335C8.23664 32.2088 9.30334 32.2938 9.30334 33.0683C9.30334 33.5987 8.73013 33.8916 7.68931 33.8916C7.18093 33.8916 6.43469 33.7625 5.80946 32.6628H0.96582C0.976798 33.8685 1.42167 34.6961 2.36708 35.2611C3.43378 35.8991 5.17196 36.2088 7.68147 36.2088C13.2782 36.2088 13.7131 33.5914 13.7131 32.7893C13.7131 30.9291 12.0622 29.8121 8.66557 29.3754L8.13209 29.3077C6.5821 29.1142 5.3578 28.9615 5.3578 28.4153C5.3578 28.2041 5.42733 28.0272 5.56429 27.8899C5.92238 27.5306 6.66078 27.5317 6.976 27.5319H7.00554C7.29567 27.5319 8.28918 27.6191 8.96799 28.7177H13.3576C13.3265 26.5191 11.0222 25.2583 7.02018 25.2583C1.75519 25.258 1.18669 27.6597 1.18669 28.6927Z" fill="#003478"/>
<path d="M32.3889 3.65174C30.0597 5.19469 27.621 6.2382 27.1675 6.42717L38.668 14.5149C38.6738 14.519 38.6786 14.5244 38.6818 14.5308C38.6851 14.5371 38.6867 14.5442 38.6866 14.5514V14.5519C38.6865 14.5591 38.6847 14.5663 38.6812 14.5726C38.6777 14.579 38.6728 14.5844 38.6667 14.5884L38.1533 14.9277C38.146 14.9325 38.1374 14.935 38.1287 14.9349C38.12 14.9348 38.1114 14.9321 38.1042 14.9272L33.9043 12.0245C32.3018 10.9374 30.5341 11.1681 29.3338 11.5534C28.1817 11.9226 27.3327 12.4882 27.1226 12.6357C27.2232 12.7066 35.8101 18.7322 35.8678 18.7731C36.0531 18.5984 37.3112 17.4449 39.9553 15.8069C42.7434 14.0824 44.3873 13.4795 44.7676 13.3519L33.2459 5.2506C33.2401 5.24653 33.2354 5.24112 33.2321 5.23481C33.2288 5.2285 33.2271 5.22149 33.2271 5.21438V5.21385C33.2272 5.20663 33.229 5.19954 33.2324 5.19319C33.2358 5.18683 33.2407 5.18141 33.2467 5.17737L33.7371 4.85088C33.7442 4.84613 33.7526 4.8436 33.7612 4.8436C33.7698 4.8436 33.7782 4.84613 33.7854 4.85088C33.8008 4.86086 35.3456 5.87917 38.1225 7.84231C40.7261 9.68157 44.3575 7.47592 44.8567 7.15573C44.7511 7.08251 36.0281 0.980249 35.9729 0.941406C35.7547 1.12827 34.1456 2.49144 32.3889 3.65174Z" fill="#D52B1E"/>
</svg>
