<svg width="72" height="13" viewBox="0 0 72 13" fill="none" xmlns="http://www.w3.org/2000/svg">
<g clip-path="url(#clip0_72_11130)">
<path d="M8.52114 11.9573C7.56769 11.3447 6.86559 9.23058 6.86559 6.71895C6.86559 6.62678 6.86597 6.53577 6.86825 6.44515L6.86938 6.44632C4.21792 6.0189 2.30193 4.84748 2.25302 3.46254L2.24506 3.47849C1.59603 4.30571 1.22565 5.26206 1.22565 6.28103C1.22565 9.27958 4.43401 11.7364 8.5037 11.9538L8.52114 11.9573ZM0 6.49999C0 3.1448 4.07007 0.424316 9.09094 0.424316C14.1118 0.424316 18.1819 3.1448 18.1819 6.49999C18.1819 9.85518 14.1118 12.5757 9.09094 12.5757C4.07007 12.5757 0 9.85518 0 6.49999ZM9.09094 1.30094C10.0603 1.30094 10.8845 2.80916 11.19 4.91398L11.1912 4.91087C13.0768 4.60985 14.3973 3.91485 14.3973 3.10668C14.3973 2.0216 12.0214 1.14343 9.09094 1.14343C6.16046 1.14343 3.78461 2.02199 3.78461 3.10668C3.78461 3.91485 5.10465 4.60946 6.9907 4.91087L6.99183 4.91398C7.29739 2.80955 8.12195 1.30094 9.09094 1.30094V1.30094ZM9.67779 11.9538C13.7475 11.7364 16.9562 9.27958 16.9562 6.28103C16.9562 5.26206 16.5855 4.30571 15.9368 3.47849L15.9289 3.46254C15.88 4.84748 13.9643 6.0189 11.3125 6.44632L11.3136 6.44515C11.3155 6.53577 11.3163 6.62678 11.3163 6.71895C11.3163 9.23058 10.6134 11.3447 9.66073 11.9573L9.67779 11.9538ZM9.09094 5.07033C9.52539 5.07033 9.94734 5.05127 10.3511 5.01471L10.3507 5.0151C10.1498 3.66595 9.66149 2.71387 9.09094 2.71387C8.52039 2.71387 8.03248 3.66595 7.83117 5.0151L7.83079 5.01471C8.23454 5.05127 8.65648 5.07033 9.09094 5.07033V5.07033ZM9.09094 10.0664C9.82072 10.0664 10.4159 8.50836 10.4478 6.55444L10.4515 6.5556C9.54639 6.64117 8.63549 6.64117 7.73033 6.5556L7.7345 6.55444C7.76597 8.50875 8.36116 10.0664 9.09094 10.0664ZM46.388 6.49999C46.388 3.93547 48.4147 1.8567 50.9142 1.8567C53.4148 1.8567 55.4411 3.93585 55.4411 6.49999C55.4411 9.0649 53.4144 11.1433 50.9142 11.1433C48.4147 11.1433 46.388 9.06451 46.388 6.49999ZM50.9142 9.4406C52.3104 9.4406 53.4421 8.12372 53.4421 6.4996C53.4421 4.87587 52.3104 3.5586 50.9142 3.5586C49.5187 3.5586 48.3875 4.87548 48.3875 6.4996C48.3875 8.12372 49.5191 9.4406 50.9142 9.4406ZM60.5772 3.79118V10.9325H58.6703V3.79118H58.6767H56.0097V2.17639H63.2378V3.79079H60.5772V3.79118ZM65.5446 8.96262L65.5427 8.96456L64.811 10.9329H62.5838L66.1049 2.17678H68.4785L72 10.9329H69.7724L69.0407 8.96456L69.0388 8.96262H67.2923H65.5446ZM67.2923 7.48473H68.4921L68.4914 7.48512L67.3002 4.28044H67.2836L66.0917 7.48512L66.0913 7.48473H67.2923ZM25.4216 3.79118V10.9325H23.5144V3.79118H23.5208H20.8534V2.17639H28.0818V3.79079H25.4216V3.79118ZM28.5701 6.49999C28.5701 3.93547 30.5968 1.8567 33.097 1.8567C35.5968 1.8567 37.6235 3.93585 37.6235 6.49999C37.6235 9.0649 35.5968 11.1433 33.097 11.1433C30.5968 11.1433 28.5701 9.06451 28.5701 6.49999ZM33.097 9.4406C34.4925 9.4406 35.6245 8.12372 35.6245 6.4996C35.6245 4.87587 34.4929 3.5586 33.097 3.5586C31.7011 3.5586 30.5695 4.87548 30.5695 6.4996C30.5695 8.12372 31.7011 9.4406 33.097 9.4406ZM42.0056 10.9325H42.9727V7.60763L46.2997 2.17639H44.0729L42.0056 5.85672L39.9387 2.17639H37.7111L41.0385 7.60763V10.9321H42.0056V10.9325Z" fill="#FF0000"/>
</g>
<defs>
<clipPath id="clip0_72_11130">
<rect width="72" height="13" fill="white"/>
</clipPath>
</defs>
</svg>
