<svg width="38" height="37" viewBox="0 0 38 37" fill="none" xmlns="http://www.w3.org/2000/svg">
<path fill-rule="evenodd" clip-rule="evenodd" d="M19.0076 0C29.1939 0 37.5 8.30648 37.5 18.5075C37.5 28.6783 29.1937 37 19.0076 37C8.82154 37 0.5 28.6783 0.5 18.5075C0.499769 8.30624 8.82154 0 19.0076 0Z" fill="#295CA7"/>
<path fill-rule="evenodd" clip-rule="evenodd" d="M18.9998 1.89746C28.135 1.89746 35.6026 9.36461 35.6026 18.5157C35.6026 27.6511 28.1352 35.1026 18.9998 35.1026C9.86438 35.1026 2.39746 27.6509 2.39746 18.5155C2.39746 9.36461 9.86438 1.89746 18.9998 1.89746ZM7.88455 9.58285L13.8397 25.0318L16.0221 19.3884H21.7433L23.9255 25.0318L29.9431 9.39572C28.8813 8.11464 27.6046 7.02806 26.1703 6.18459L21.9927 17.6893H16.0997L11.9067 6.13757C10.3633 7.0262 9.00709 8.19553 7.88455 9.58285ZM32.3442 13.4646L25.5626 31.1584C30.115 28.7732 33.248 24.003 33.248 18.5157C33.248 16.7384 32.9365 15.0391 32.3442 13.4646ZM22.6006 32.3118L22.5543 31.9532L18.8749 22.4127L15.1959 31.9532L15.1805 32.2496C16.3964 32.5922 17.6747 32.7639 18.9998 32.7639C20.2468 32.7639 21.4472 32.6082 22.6006 32.3118ZM12.156 31.0023L5.54637 13.7764C5.01633 15.2573 4.73564 16.8474 4.73564 18.5155C4.73564 23.8781 7.72877 28.5858 12.156 31.0023ZM18.9998 4.25131C20.2468 4.25131 21.4783 4.40733 22.6476 4.7189L19.0466 14.6805L15.4298 4.70346C16.5958 4.40177 17.7954 4.24983 18.9998 4.25131Z" fill="white"/>
</svg>
