<svg width="34" height="34" viewBox="0 0 34 34" fill="none" xmlns="http://www.w3.org/2000/svg">
<g clip-path="url(#clip0_72_11156)">
<path d="M16.9998 5.97021C19.9998 5.97021 22.6665 7.22095 24.6109 9.21077C26.6109 11.2006 27.7776 13.9863 27.7776 17.0563C27.7776 20.0687 26.6109 22.8552 24.6109 24.8442C22.6657 26.8348 19.9991 28.0848 16.9998 28.0848C13.9998 28.0848 11.3332 26.834 9.33317 24.8442C7.38795 22.8544 6.1665 20.0687 6.1665 17.0563C6.1665 13.9855 7.38873 11.2006 9.33317 9.20998C11.3332 7.22095 13.9998 5.97021 16.9998 5.97021V5.97021ZM16.9998 6.14077C14.1865 6.14406 11.4894 7.28899 9.49984 9.32447C7.55462 11.3143 6.33317 14.0432 6.33317 17.0563C6.33317 20.0687 7.55539 22.7976 9.49984 24.7313C11.3887 26.7211 14.0546 27.915 16.9998 27.915C19.9443 27.915 22.6109 26.7203 24.4998 24.7313C26.4451 22.7983 27.6109 20.0695 27.6109 17.0563C27.6109 14.0432 26.4443 11.3143 24.4998 9.32447C22.5104 7.28885 19.8132 6.14389 16.9998 6.14077V6.14077Z" fill="#BCBCB6"/>
<path d="M17 0.114746C20.7778 0.114746 24.2778 1.42155 27.0556 3.5827L28.8889 1.7066L32.1111 5.004L30.2778 6.93696C32.3333 9.77955 33.5 13.2475 33.5 16.9997C33.5 26.3234 26.1111 33.9416 17 33.9416C7.88889 33.9416 0.5 26.3234 0.5 16.9997C0.5 7.67524 7.88889 0.114746 17 0.114746ZM17 4.09437C10.0556 4.09437 4.38889 9.89325 4.38889 16.9997C4.38889 24.163 10.0556 29.9051 17 29.9051C23.9444 29.9051 29.6111 24.163 29.6111 16.9997C29.6111 9.89325 23.9444 4.09437 17 4.09437V4.09437Z" fill="url(#paint0_radial_72_11156)"/>
<path d="M17.0001 4.0376C20.5001 4.0376 23.6667 5.45889 26.0001 7.84667C27.1834 9.05471 28.1216 10.4904 28.7604 12.0711C29.3992 13.6518 29.7261 15.3461 29.7223 17.0567C29.7223 20.6375 28.2778 23.8789 26.0001 26.2666C23.6667 28.5968 20.5001 30.0749 17.0001 30.0749C13.6263 30.0715 10.3909 28.7025 8.00005 26.2666C5.72228 23.8789 4.27783 20.6375 4.27783 17.0567C4.27783 13.4181 5.72228 10.1768 8.00005 7.84667C10.2778 5.45889 13.5001 4.0376 17.0001 4.0376V4.0376ZM17.0001 4.20815C13.5556 4.20815 10.3889 5.62945 8.11117 7.96037C5.83339 10.2913 4.4445 13.475 4.4445 17.0567C4.4445 20.5815 5.83339 23.8212 8.11117 26.1529C10.3882 28.427 13.5556 29.9052 17.0001 29.9052C20.4445 29.9052 23.6112 28.427 25.8897 26.1529C27.0547 24.9574 27.9781 23.5388 28.6072 21.978C29.2363 20.4173 29.5589 18.745 29.5564 17.0567C29.5564 13.475 28.1667 10.2913 25.8897 7.95958C23.5298 5.55226 20.3322 4.20284 17.0001 4.20815V4.20815Z" fill="url(#paint1_linear_72_11156)"/>
<path d="M16.9998 0.000976562C20.7776 0.000976562 24.3331 1.30857 27.1109 3.52579L27.0553 3.58264C24.1642 1.3325 20.632 0.11431 16.9998 0.11468C7.88867 0.11468 0.499783 7.67518 0.499783 16.9997C0.499783 26.3234 7.88867 33.9415 16.9998 33.9415C26.1109 33.9415 33.4998 26.3234 33.4998 16.9997C33.4998 13.2474 32.3331 9.77869 30.2776 6.93689L30.3331 6.88004C32.3887 9.72342 33.6109 13.1906 33.6109 16.9997C33.6109 21.7184 31.722 25.9822 28.722 29.0522C25.7212 32.123 21.6109 33.9991 16.9998 33.9991C14.824 34.0039 12.6686 33.5695 10.6571 32.7206C8.64566 31.8717 6.81757 30.6251 5.27756 29.0522C2.27756 25.9254 0.388672 21.7184 0.388672 16.9997C0.388672 12.3378 2.27756 8.07393 5.27756 5.00393C8.27756 1.93394 12.3887 0.000976562 16.9998 0.000976562Z" fill="url(#paint2_radial_72_11156)"/>
<path d="M16.9998 4.15088C23.9442 4.15088 29.6109 9.89291 29.6109 17.057C29.6109 24.1635 23.9442 29.9624 16.9998 29.9624C10.0553 29.9624 4.38867 24.1627 4.38867 17.0562C4.38867 9.89291 10.0553 4.15088 16.9998 4.15088ZM16.9998 5.97014C11.0553 5.97014 6.22201 10.9162 6.22201 17.0562C6.22201 23.1386 11.0553 28.0855 16.9998 28.0855C22.9442 28.0855 27.7776 23.1386 27.7776 17.0562C27.7776 10.9162 22.9442 5.97014 16.9998 5.97014V5.97014Z" fill="url(#paint3_radial_72_11156)"/>
<path opacity="0.67" d="M1.92432 21.097C1.92432 21.1136 1.92818 21.1278 1.93667 21.1421C1.94361 21.1555 1.95519 21.161 1.97216 21.161C1.98451 21.161 1.99531 21.1578 2.00843 21.1515C2.02244 21.1438 2.03541 21.1343 2.04701 21.1231V20.9976C2.00071 21.0055 1.96908 21.0165 1.95133 21.0331C1.94268 21.0412 1.93581 21.0511 1.93115 21.0621C1.9265 21.0731 1.92417 21.085 1.92432 21.097Z" fill="url(#paint4_linear_72_11156)"/>
<path opacity="0.67" d="M4.27637 20.7378H4.3543V20.8049H4.27637V20.7378Z" fill="url(#paint5_linear_72_11156)"/>
<path opacity="0.67" d="M4.27637 20.8184H4.3543V20.8871H4.27637V20.8184Z" fill="url(#paint6_linear_72_11156)"/>
<path opacity="0.67" d="M2.70606 21.097C2.70606 21.1136 2.71069 21.1278 2.71841 21.1421C2.72535 21.1555 2.73693 21.161 2.7539 21.161C2.76625 21.161 2.77782 21.1578 2.79017 21.1515C2.80251 21.1452 2.81486 21.1357 2.82875 21.1231V20.9976C2.78245 21.0055 2.75081 21.0165 2.73307 21.0331C2.72442 21.0412 2.71754 21.0511 2.71289 21.0621C2.70824 21.0731 2.70591 21.085 2.70606 21.097Z" fill="url(#paint7_linear_72_11156)"/>
<path opacity="0.67" d="M4.61426 20.8555H4.82722V20.9589H4.61426V20.8555Z" fill="url(#paint8_linear_72_11156)"/>
<path opacity="0.67" d="M6.76629 20.4976H0.858887C1.00472 21.2074 1.20688 21.896 1.43682 22.5703H7.6791C7.3058 21.9134 6.9999 21.2188 6.76629 20.4976V20.4976ZM4.24778 20.6294L4.2933 20.6586L4.2771 20.6776V20.7258H4.35117L4.36737 20.6989L4.39824 20.736L4.38203 20.755V20.8055H4.39052L4.4129 20.7763L4.44531 20.8189H4.38049L4.38203 20.9097L4.35349 20.9271V20.9003H4.27632V20.9784H4.33497L4.35503 20.9461L4.38589 20.9919H4.27632V21.0637H4.372L4.39438 21.0266L4.4291 21.0756H4.27632C4.27632 21.1056 4.2771 21.1379 4.28018 21.1719L4.24778 21.1877C4.24932 21.1466 4.25086 21.1095 4.25086 21.0756H4.16907C4.15825 21.075 4.14752 21.0778 4.13821 21.0834L4.11969 21.0621H4.25086V20.9903H4.19145C4.17987 20.9903 4.17293 20.9926 4.16676 20.9982L4.15055 20.9776H4.25086V20.8995H4.19145C4.17987 20.8995 4.17293 20.9018 4.16676 20.9082L4.15055 20.886H4.25086V20.8174H4.1629C4.15132 20.8174 4.14438 20.8197 4.13898 20.8252L4.12278 20.8039H4.25163V20.7376H4.19531C4.18373 20.7376 4.17602 20.7408 4.17062 20.7463L4.15441 20.725H4.25009C4.25062 20.6931 4.24985 20.6612 4.24778 20.6294V20.6294ZM1.81722 21.1766H1.65827V21.16H1.70534C1.71305 21.16 1.71768 21.1585 1.72077 21.1545C1.72386 21.1506 1.72463 21.1458 1.72463 21.1387V20.7581C1.72497 20.7526 1.72362 20.7471 1.72077 20.7423C1.71876 20.7403 1.71635 20.7386 1.7137 20.7375C1.71104 20.7364 1.7082 20.7359 1.70534 20.736H1.65904V20.7202H1.68219C1.70629 20.7203 1.72981 20.7126 1.74932 20.6981H1.75318V21.1379C1.75318 21.145 1.75472 21.1506 1.75781 21.1537C1.76166 21.1569 1.76552 21.1592 1.7717 21.1592H1.81953V21.1758H1.81722V21.1766ZM2.10734 21.1624C2.1004 21.1727 2.09114 21.1782 2.08111 21.1782C2.07293 21.1786 2.06491 21.1758 2.05873 21.1703C2.05251 21.1625 2.04827 21.1533 2.04639 21.1435C2.0347 21.1542 2.02204 21.1637 2.00858 21.1719C1.99539 21.1785 1.98083 21.1818 1.96614 21.1814C1.95569 21.1819 1.94525 21.1802 1.93553 21.1762C1.9258 21.1723 1.91703 21.1662 1.90981 21.1585C1.90327 21.1519 1.89812 21.144 1.89467 21.1353C1.89122 21.1266 1.88955 21.1173 1.88975 21.1079C1.88975 21.0756 1.90055 21.0495 1.92139 21.0282C1.94222 21.0084 1.98389 20.9934 2.04639 20.984V20.9516C2.04686 20.9363 2.04369 20.9211 2.03713 20.9074C2.03018 20.8947 2.01707 20.89 1.99469 20.89C1.97231 20.89 1.95534 20.8947 1.94685 20.9058C1.93759 20.9161 1.93296 20.9247 1.93682 20.9358C1.93911 20.9427 1.93911 20.9502 1.93682 20.9571C1.93546 20.9604 1.93321 20.9632 1.93033 20.9651C1.92745 20.9671 1.92407 20.9681 1.92062 20.9682C1.9181 20.9682 1.9156 20.9677 1.91333 20.9666C1.91105 20.9655 1.90905 20.9639 1.9075 20.9618C1.90363 20.9563 1.90148 20.9497 1.90132 20.9429C1.90132 20.9263 1.91058 20.9113 1.92756 20.8963C1.94626 20.8821 1.96912 20.8749 1.99237 20.8758C2.01938 20.8758 2.04021 20.8821 2.05333 20.8947C2.06799 20.9089 2.07339 20.9271 2.07339 20.9516V21.1277C2.07339 21.1427 2.07416 21.1506 2.07648 21.1529C2.07879 21.1553 2.08188 21.1569 2.08805 21.1569C2.095 21.1569 2.1004 21.1529 2.10271 21.145C2.10503 21.1371 2.10657 21.1261 2.10657 21.1119H2.1166C2.11737 21.1356 2.11429 21.1529 2.10734 21.1624V21.1624ZM2.372 21.1766H2.28636V21.16H2.29716C2.3041 21.16 2.30873 21.1585 2.31182 21.1545C2.31491 21.1506 2.31491 21.1466 2.31491 21.1395V20.9603C2.31591 20.9433 2.31244 20.9264 2.30487 20.9113C2.3019 20.9059 2.29752 20.9014 2.29221 20.8983C2.2869 20.8952 2.28087 20.8937 2.27478 20.8939C2.26067 20.8948 2.24728 20.9006 2.23697 20.9105C2.22223 20.9232 2.21016 20.9388 2.20148 20.9563V21.1403C2.20148 21.1474 2.20302 21.1529 2.20688 21.1561C2.20997 21.1592 2.2146 21.1616 2.22 21.1616H2.23003V21.1782H2.14438V21.1616H2.15441C2.16213 21.1616 2.16676 21.16 2.16984 21.1561C2.17293 21.1521 2.1737 21.1474 2.1737 21.1403V20.9105C2.1737 20.9058 2.17293 20.9003 2.17139 20.8979C2.16984 20.8955 2.16676 20.8939 2.1629 20.8939H2.14438V20.8782H2.15904C2.16676 20.8782 2.1737 20.8774 2.1791 20.8758C2.1845 20.8742 2.19145 20.8703 2.19685 20.8639H2.20071V20.9255C2.21101 20.9108 2.22321 20.8975 2.23697 20.886C2.24798 20.8772 2.26158 20.8725 2.27555 20.8726C2.2987 20.8726 2.31568 20.8805 2.32648 20.8955C2.33859 20.9176 2.34422 20.9429 2.34268 20.9682V21.1387C2.34268 21.1458 2.34423 21.1514 2.34808 21.1545C2.35194 21.1577 2.35657 21.16 2.36197 21.16H2.372V21.1766V21.1766ZM2.58882 21.1561C2.57648 21.1727 2.56182 21.1798 2.54176 21.1798C2.5217 21.1798 2.50626 21.1719 2.49623 21.1561C2.4862 21.1403 2.48003 21.115 2.48003 21.0811V20.8947H2.42139V20.8789H2.43759C2.44533 20.8792 2.45301 20.8775 2.45999 20.874C2.46697 20.8706 2.47305 20.8655 2.47771 20.8592C2.48852 20.8458 2.49392 20.8252 2.497 20.7968L2.49855 20.7763H2.51089V20.8797H2.59191V20.8955H2.51089V21.0929C2.51089 21.1182 2.51475 21.1356 2.5217 21.1435C2.52864 21.1529 2.5379 21.1569 2.55256 21.1569C2.55888 21.157 2.56513 21.1556 2.57078 21.1527C2.57643 21.1498 2.5813 21.1456 2.58497 21.1403C2.59392 21.1254 2.59946 21.1087 2.60117 21.0913L2.61197 21.0969C2.60896 21.1182 2.60103 21.1385 2.58882 21.1561V21.1561ZM2.88898 21.1624C2.88203 21.1727 2.87355 21.1782 2.86274 21.1782C2.85349 21.1782 2.84654 21.1758 2.84114 21.1703C2.83497 21.1648 2.83111 21.1553 2.82802 21.1435C2.81634 21.1542 2.80368 21.1637 2.79021 21.1719C2.77731 21.1785 2.76299 21.1818 2.74855 21.1814C2.73873 21.1819 2.72891 21.1804 2.71967 21.177C2.71043 21.1735 2.70195 21.1682 2.69475 21.1614C2.68756 21.1545 2.68178 21.1463 2.67776 21.1371C2.67375 21.1279 2.67158 21.118 2.67139 21.1079C2.67118 21.0931 2.67387 21.0785 2.67931 21.0648C2.68474 21.0511 2.69281 21.0386 2.70302 21.0282C2.72386 21.0084 2.76552 20.9934 2.82802 20.984V20.9516C2.8285 20.9363 2.82532 20.9211 2.81876 20.9074C2.81259 20.8947 2.7987 20.89 2.7771 20.89C2.75395 20.89 2.73697 20.8947 2.72849 20.9058C2.71923 20.9161 2.71537 20.9247 2.71845 20.9358C2.72077 20.9437 2.72077 20.9508 2.71845 20.9571C2.71614 20.9634 2.70997 20.9682 2.70225 20.9682C2.69974 20.9682 2.69724 20.9677 2.69496 20.9666C2.69269 20.9655 2.69069 20.9639 2.68913 20.9618C2.68554 20.9562 2.68366 20.9496 2.68373 20.9429C2.68373 20.9263 2.69222 20.9113 2.70997 20.8963C2.72859 20.882 2.7515 20.8747 2.77478 20.8758C2.80102 20.8758 2.82262 20.8821 2.83574 20.8947C2.84963 20.9089 2.85503 20.9271 2.85503 20.9516V21.1277C2.85503 21.1427 2.8558 21.1506 2.85812 21.1529C2.86043 21.1553 2.86352 21.1569 2.87046 21.1569C2.87741 21.1569 2.88203 21.1529 2.88435 21.145C2.88666 21.1371 2.88821 21.1261 2.88821 21.1119H2.89824C2.89997 21.1293 2.89676 21.1468 2.88898 21.1624V21.1624ZM3.14207 20.9334C3.13898 20.9397 3.13358 20.9421 3.12663 20.9421C3.11892 20.9421 3.11352 20.9397 3.11043 20.9334C3.10691 20.9272 3.1058 20.9199 3.10734 20.9129L3.1058 20.8987C3.10503 20.8963 3.10117 20.8939 3.09423 20.8939C3.08265 20.8939 3.07031 20.9026 3.0541 20.9208C3.03597 20.9431 3.02186 20.9685 3.01244 20.9958V21.1403C3.01244 21.1474 3.01398 21.1529 3.01707 21.1561C3.02015 21.1592 3.02478 21.1616 3.03095 21.1616H3.07571V21.1782H2.92602V21.1616H2.96768C2.97463 21.1616 2.97926 21.16 2.98234 21.1561C2.98543 21.1521 2.9862 21.1474 2.9862 21.1403V20.9192C2.98628 20.9132 2.98496 20.9072 2.98234 20.9018C2.97926 20.8979 2.97463 20.8955 2.96768 20.8955H2.92602V20.8797H2.94222C2.96458 20.8799 2.9867 20.875 3.00703 20.8655H3.01321V20.9618C3.02454 20.9378 3.03937 20.9157 3.05719 20.8963C3.0633 20.8895 3.07069 20.8841 3.07891 20.8803C3.08713 20.8765 3.09601 20.8744 3.10503 20.8742C3.11892 20.8742 3.12895 20.8782 3.13666 20.886C3.14438 20.8939 3.14824 20.9018 3.14824 20.9129C3.14747 20.9224 3.14592 20.9295 3.14207 20.9334V20.9334ZM3.71691 21.0756V21.1821C3.71691 21.2193 3.70148 21.2453 3.67216 21.2595C3.67139 21.2335 3.64978 21.2137 3.60889 21.2019V21.1908L3.66753 21.1972C3.68065 21.1979 3.68528 21.1869 3.68528 21.164V21.0756H3.5217C3.50766 21.0751 3.49371 21.0778 3.4808 21.0834L3.4646 21.0629H3.68605L3.6845 20.9855L3.71074 21.0013L3.76475 20.9405H3.59731L3.57957 20.9484L3.56336 20.9271H3.76475L3.78713 20.9003L3.82339 20.9532C3.80487 20.95 3.77015 20.9682 3.71768 21.0092L3.73774 21.0226L3.71768 21.0392V21.0621H3.85426L3.88281 21.025L3.9237 21.0756H3.71691V21.0756ZM3.92447 20.9161C3.90518 20.9161 3.88898 20.9271 3.87972 20.9484C3.84043 20.928 3.80568 20.8996 3.77766 20.8648C3.74965 20.83 3.72896 20.7896 3.71691 20.7463H3.70534C3.70534 20.8284 3.70611 20.8789 3.70688 20.8947L3.67216 20.9066C3.6737 20.8671 3.67447 20.8189 3.67447 20.7589C3.62982 20.8545 3.55434 20.9315 3.46074 20.9769L3.4592 20.965C3.54089 20.9119 3.60576 20.8356 3.64592 20.7455H3.52015C3.50612 20.7451 3.49216 20.7477 3.47926 20.7534L3.46305 20.7321H3.67447L3.67216 20.6365L3.72463 20.6657L3.70534 20.6839V20.7321H3.85503L3.88358 20.695L3.91984 20.7455H3.72694C3.74315 20.7876 3.76997 20.8245 3.80467 20.8525C3.83937 20.8805 3.88071 20.8987 3.92447 20.905V20.9161V20.9161ZM4.44994 21.2035C4.42293 21.2145 4.40981 21.2264 4.4129 21.2437C4.37022 21.2453 4.32749 21.2453 4.28481 21.2437C4.24259 21.2432 4.20089 21.234 4.16213 21.2169C4.13005 21.2029 4.10135 21.1818 4.07802 21.1553C4.0542 21.1968 4.02148 21.2321 3.98234 21.2587L3.97617 21.2508C4.01309 21.2175 4.04279 21.1766 4.06336 21.1308C4.04097 21.0881 4.02461 21.0424 4.01475 20.995L4.02324 20.9903C4.03578 21.0292 4.05206 21.0668 4.07185 21.1024C4.08574 21.0558 4.095 20.995 4.1004 20.9216H4.04099L4.02478 20.9508L3.997 20.9137L4.02092 20.8995C4.04546 20.848 4.06862 20.7959 4.09037 20.7431H4.02401L4.00086 20.751L3.98466 20.7297H4.09345L4.1112 20.7005L4.13975 20.7439L4.11737 20.7573C4.095 20.8055 4.06953 20.856 4.04407 20.9089H4.09886L4.11506 20.8853L4.14592 20.9224L4.12818 20.9405C4.12233 21.0035 4.11018 21.0657 4.09191 21.1261C4.11106 21.1495 4.13617 21.167 4.16444 21.1766C4.19945 21.1894 4.23611 21.1969 4.27324 21.1987C4.31413 21.2027 4.37355 21.1987 4.45225 21.1924L4.44994 21.2035V21.2035ZM4.95148 21.1979C4.92756 21.2035 4.9129 21.2169 4.90904 21.2414C4.87361 21.2274 4.83973 21.2097 4.80796 21.1885C4.77759 21.1664 4.75144 21.1389 4.7308 21.1071C4.70551 21.0661 4.68798 21.0206 4.6791 20.9729H4.61429V21.1861L4.72386 21.1245L4.72771 21.1324C4.67902 21.1613 4.63631 21.1997 4.60194 21.2453L4.57802 21.2003C4.58409 21.1906 4.58755 21.1794 4.58805 21.1679V20.7834C4.58805 20.755 4.58728 20.7305 4.58574 20.7092L4.61429 20.7352H4.71768C4.71352 20.702 4.70161 20.6703 4.68296 20.6428L4.68682 20.6342C4.72077 20.6539 4.74006 20.6713 4.74469 20.6871C4.74932 20.7029 4.74469 20.7194 4.7308 20.7352H4.82262L4.83882 20.7092L4.87123 20.7463L4.85271 20.7621V20.9137L4.85426 20.9832L4.82571 20.9966V20.9729H4.69145C4.70358 21.0143 4.72207 21.0535 4.74623 21.089C4.79443 21.0617 4.83732 21.0255 4.87278 20.9824L4.90287 21.0353H4.87895C4.83805 21.0534 4.79793 21.0763 4.75472 21.0985C4.78011 21.1293 4.81278 21.1529 4.84963 21.1671C4.88248 21.1796 4.91722 21.186 4.95225 21.1861L4.95148 21.1979V21.1979Z" fill="url(#paint9_linear_72_11156)"/>
<path opacity="0.67" d="M4.61426 20.7485H4.82722V20.8417H4.61426V20.7485Z" fill="url(#paint10_linear_72_11156)"/>
<path opacity="0.86" d="M27.2422 20.4976H33.1488C33.0006 21.2006 32.8075 21.893 32.5709 22.5703H26.3286C26.699 21.9173 27.0076 21.2256 27.2422 20.4976Z" fill="url(#paint11_linear_72_11156)"/>
<path d="M33.4447 12.7358C33.8336 14.1011 34.0002 15.5216 34.0002 16.9997C34.0002 18.5347 33.778 20.0121 33.4447 21.4342H0.611328V21.3773H33.3891C33.778 19.956 33.9447 18.4779 33.9447 16.9429C33.9447 15.4647 33.778 14.0434 33.4447 12.7358V12.7358Z" fill="black"/>
<path d="M0.555556 12.6787H33.4444C33.7778 14.0432 33.9437 15.4637 33.9437 16.9418C33.9437 18.4768 33.777 19.9549 33.3881 21.3762H0.611111C0.20996 19.934 0.00433345 18.4421 0 16.9426C0 15.4644 0.222222 14.0432 0.555556 12.6787V12.6787Z" fill="url(#paint12_radial_72_11156)"/>
<path d="M29.5553 0.568848L33.222 4.32185L30.4998 7.10759L30.6664 7.335L28.722 8.92606L28.1109 9.15426L32.1109 5.00408L28.8887 1.70667L24.8887 5.8L25.0553 5.23148L29.5553 0.568848Z" fill="url(#paint13_linear_72_11156)"/>
<path d="M25.8887 0.171387C29.1109 1.93379 31.722 4.66268 33.499 7.90323V0.171387H25.8887Z" fill="url(#paint14_radial_72_11156)"/>
<path d="M25.8887 0.171387C29.1109 1.93379 31.722 4.66268 33.499 7.90323" stroke="#A7A79C" stroke-width="19.2901" stroke-linecap="round"/>
<path d="M25.8887 0.171387C29.0776 1.95662 31.6997 4.63987 33.4442 7.90323" stroke="#C2C2B9" stroke-width="13.3896" stroke-linecap="round"/>
<path d="M25.8335 0.171387C29.0557 1.93379 31.6668 4.66268 33.4446 7.96008" stroke="#E0E0D8" stroke-width="7.48911" stroke-linecap="round"/>
<path d="M25.8335 0.171387C29.0002 1.99143 31.6668 4.66268 33.3891 7.96008" stroke="white" stroke-width="1.5886" stroke-linecap="round"/>
<path d="M33.4998 0.000976562C33.5554 0.000976562 33.6117 0.0578283 33.6117 0.171532H25.7769C25.7776 0.0578283 25.8332 0.000976562 25.8887 0.000976562H33.4998Z" fill="url(#paint15_linear_72_11156)"/>
<path d="M33.611 7.90337C33.611 8.01787 33.5554 8.07472 33.4991 8.07472L33.4443 7.96023V0.000976562H33.4991C33.5547 0.000976562 33.611 0.0578284 33.611 0.171532V7.90337Z" fill="url(#paint16_linear_72_11156)"/>
<path d="M28.8891 19.127C27.406 19.127 26.2 18.1977 26.2 17.0567C26.2 15.9149 27.406 14.9863 28.8891 14.9863C30.403 14.9863 31.6344 15.9149 31.6344 17.0567C31.6344 18.1985 30.403 19.127 28.8891 19.127ZM28.8891 15.6022C28.3559 15.6022 27.9678 16.2142 27.9678 17.0575C27.9678 17.8542 28.3644 18.4551 28.8891 18.4551C29.3875 18.4551 29.8104 17.8147 29.8104 17.0575C29.8111 16.2544 29.3968 15.6022 28.8891 15.6022ZM12.0002 19.127C10.5164 19.127 9.31037 18.1977 9.31037 17.0567C9.31037 15.9647 10.5419 15.0424 12.0002 15.0424C13.5141 15.0424 14.7456 15.9465 14.7456 17.0567C14.7456 18.1985 13.5141 19.127 12.0002 19.127ZM12.0002 15.6591C11.474 15.6591 11.0789 16.26 11.0789 17.0575C11.0789 17.8542 11.4755 18.4551 12.0002 18.4551C12.4986 18.4551 12.9207 17.8147 12.9207 17.0575C12.9207 16.3002 12.5002 15.6591 12.0002 15.6591V15.6591ZM21.8891 19.0133L20.1468 15.7041L19.2787 15.7175L19.2556 15.1822L23.0565 15.1585L23.0797 15.6938L22.1121 15.7175L23.4655 18.0129L24.5912 15.6828L23.9454 15.7167L23.9223 15.1814L26.5565 15.1577L26.5797 15.693L25.6676 15.7167L23.9593 19.0141H21.8891V19.0133ZM14.9446 19.0133L14.9215 18.3643L15.8343 18.3414L15.8111 15.693L14.9454 15.7167L14.9223 15.1814L18.4454 15.1577L18.4686 15.693L17.5557 15.7167L17.5789 18.3651L18.5002 18.3422C18.7996 18.3422 19.5881 18.1416 19.6429 17.2272L20.2216 17.2051L20.2448 19.0149H14.9446V19.0133ZM5.00019 19.0133L3.2579 15.7041L2.38985 15.7175L2.3667 15.1822L6.16763 15.1585L6.19077 15.6938L5.22318 15.7175L6.57658 18.0129L7.75867 15.6828L7.05651 15.7175L7.03337 15.1822L9.66762 15.1585L9.69077 15.6938L8.77796 15.7175L7.06963 19.0149L5.00019 19.0133V19.0133Z" fill="white"/>
<path d="M28.8891 15.0098C30.3891 15.0098 31.6113 15.9194 31.6113 17.0572C31.6113 18.1935 30.3891 19.1039 28.8891 19.1039C27.4446 19.1039 26.2224 18.1943 26.2224 17.0572C26.2224 15.9194 27.4446 15.0098 28.8891 15.0098ZM28.8891 18.4777C29.3883 18.4777 29.8335 17.8524 29.8335 17.0564C29.8335 16.2037 29.3891 15.5783 28.8891 15.5783C28.3335 15.5783 27.9439 16.2037 27.9439 17.0564C27.9446 17.8524 28.3335 18.4777 28.8891 18.4777ZM12.0002 15.0666C13.4994 15.0666 14.7216 15.9763 14.7216 17.0572C14.7216 18.1935 13.4994 19.1039 12.0002 19.1039C10.5557 19.1039 9.33351 18.1943 9.33351 17.0572C9.33351 15.9763 10.5557 15.0666 12.0002 15.0666ZM12.0002 18.4777C12.4994 18.4777 12.9446 17.8524 12.9446 17.0564C12.9446 16.2597 12.5002 15.6344 12.0002 15.6344C11.4439 15.6344 11.055 16.2597 11.055 17.0564C11.0557 17.8524 11.4446 18.4777 12.0002 18.4777ZM26.5557 15.1803V15.6912H25.6676L23.9454 18.9886H21.8898L20.1684 15.6912H19.2795V15.1803H23.0573V15.6912H22.1128L23.4469 18.0221L24.6136 15.6912H23.9469V15.1803H26.5557M18.4446 15.1803V15.6912H17.5557V18.3632H18.501C18.8343 18.3632 19.6113 18.1358 19.6676 17.227H20.2232V18.9886H14.9446V18.3632H15.8335V15.6912H14.9446V15.1803H18.4446ZM9.66685 15.1803V15.6912H8.77796L7.05651 18.9886H5.00018L3.27796 15.6912H2.38907V15.1803H6.16685V15.6912H5.2224L6.55574 18.0221L7.77796 15.6912H7.05574V15.1803H9.66685M28.8891 14.9624C27.3937 14.9624 26.1753 15.9012 26.1753 17.0564C26.1753 18.2109 27.3922 19.1497 28.8891 19.1497C30.4161 19.1497 31.6576 18.2116 31.6576 17.0564C31.6576 15.9005 30.4153 14.9624 28.8891 14.9624ZM28.8891 18.4304C28.3767 18.4304 27.9909 17.8397 27.9909 17.0572C27.9909 16.2274 28.3682 15.6265 28.8891 15.6265C29.3844 15.6265 29.7872 16.2684 29.7872 17.0572C29.7872 17.801 29.376 18.4304 28.8891 18.4304ZM12.0002 15.0193C10.5295 15.0193 9.28645 15.9526 9.28645 17.0564C9.28645 18.2109 10.5033 19.1497 12.0002 19.1497C13.5272 19.1497 14.7687 18.2116 14.7687 17.0564C14.7687 15.9328 13.5272 15.0193 12.0002 15.0193ZM12.0002 18.4304C11.4878 18.4304 11.102 17.8397 11.102 17.0572C11.102 16.2739 11.4878 15.6833 12.0002 15.6833C12.4871 15.6833 12.8976 16.3126 12.8976 17.0572C12.8983 17.801 12.4871 18.4304 12.0002 18.4304ZM26.602 15.133H23.8976V15.7402H24.5349L23.4423 17.925L22.1931 15.7394H23.1036V15.1322H19.2324V15.7394H20.1391L21.8482 19.0115L21.8613 19.0368H23.9724L23.9855 19.0115L25.6954 15.7394H26.6028V15.133H26.602V15.133ZM18.4909 15.133H14.8983V15.7402H15.7872V18.3174H14.8983V19.0384H20.2695V17.1804H19.6236L19.6206 17.2254C19.5658 18.1216 18.7934 18.3182 18.5002 18.3182H17.602V15.741H18.4909V15.133V15.133ZM9.71314 15.133H7.00944V15.7402H7.7008L6.55419 17.9274L5.30342 15.7402H6.21469V15.133H2.34277V15.7402H3.25018L4.96006 19.0123L4.97317 19.0376H7.08351L7.09663 19.0123L8.80574 15.7402H9.71314V15.133V15.133Z" fill="#39393C"/>
<path d="M0.615614 12.7446C0.282281 14.1091 0.0600586 15.5296 0.0600586 17.0077C0.0600586 17.1301 0.100954 17.8542 0.104812 17.9766L0.201262 19.0749C0.199719 18.9865 0.156509 17.1964 0.156509 17.1072C0.156509 15.6291 0.39725 14.2591 0.730583 12.8939L12.3687 12.8449L17.3919 12.7462L0.615614 12.7446V12.7446Z" fill="url(#paint17_linear_72_11156)"/>
</g>
<defs>
<radialGradient id="paint0_radial_72_11156" cx="0" cy="0" r="1" gradientUnits="userSpaceOnUse" gradientTransform="translate(5.20216 13.6707) scale(34.4637 35.2678)">
<stop stop-color="white"/>
<stop offset="0.041" stop-color="#FAFAF8"/>
<stop offset="0.225" stop-color="#F8F8F5"/>
<stop offset="0.287" stop-color="#DADAD7"/>
<stop offset="0.413" stop-color="#A3A4A1"/>
<stop offset="0.52" stop-color="#7E7F7D"/>
<stop offset="0.6" stop-color="#686866"/>
<stop offset="0.646" stop-color="#5F5F5D"/>
<stop offset="0.739" stop-color="#565754"/>
<stop offset="0.899" stop-color="#3B3A37"/>
<stop offset="1"/>
</radialGradient>
<linearGradient id="paint1_linear_72_11156" x1="10.4877" y1="14.7557" x2="22.9035" y2="18.9333" gradientUnits="userSpaceOnUse">
<stop stop-color="#DCDBD3"/>
<stop offset="1" stop-color="white"/>
</linearGradient>
<radialGradient id="paint2_radial_72_11156" cx="0" cy="0" r="1" gradientUnits="userSpaceOnUse" gradientTransform="translate(26.8069 27.8828) scale(37.8233 38.7058)">
<stop stop-color="#BBBCB7"/>
<stop offset="1" stop-color="#808079"/>
</radialGradient>
<radialGradient id="paint3_radial_72_11156" cx="0" cy="0" r="1" gradientUnits="userSpaceOnUse" gradientTransform="translate(22.9496 23.1449) scale(26.5602 27.1799)">
<stop stop-color="white"/>
<stop offset="0.157" stop-color="#F1F1F2"/>
<stop offset="0.298" stop-color="#E4E4E5"/>
<stop offset="0.335" stop-color="#CECFCE"/>
<stop offset="0.4" stop-color="#AEAFAC"/>
<stop offset="0.464" stop-color="#969694"/>
<stop offset="0.526" stop-color="#858683"/>
<stop offset="0.586" stop-color="#7C7C79"/>
<stop offset="0.64" stop-color="#787976"/>
<stop offset="0.738" stop-color="#5E5E5B"/>
<stop offset="0.846" stop-color="#43423F"/>
<stop offset="0.937" stop-color="#1F1F1E"/>
<stop offset="1"/>
</radialGradient>
<linearGradient id="paint4_linear_72_11156" x1="1.98528" y1="21.1689" x2="1.98528" y2="21.0734" gradientUnits="userSpaceOnUse">
<stop stop-color="white"/>
<stop offset="0.17" stop-color="#F8F8F5"/>
<stop offset="0.427" stop-color="#B1B1AC"/>
<stop offset="0.435" stop-color="#ADAEA8"/>
<stop offset="0.534" stop-color="#898984"/>
<stop offset="0.633" stop-color="#6C6C67"/>
<stop offset="0.731" stop-color="#53534E"/>
<stop offset="0.825" stop-color="#3E3E3A"/>
<stop offset="0.916" stop-color="#252523"/>
<stop offset="1" stop-color="#1B1A19"/>
</linearGradient>
<linearGradient id="paint5_linear_72_11156" x1="4.31495" y1="20.8089" x2="4.31495" y2="20.7702" gradientUnits="userSpaceOnUse">
<stop stop-color="white"/>
<stop offset="0.17" stop-color="#F8F8F5"/>
<stop offset="0.427" stop-color="#B1B1AC"/>
<stop offset="0.435" stop-color="#ADAEA8"/>
<stop offset="0.534" stop-color="#898984"/>
<stop offset="0.633" stop-color="#6C6C67"/>
<stop offset="0.731" stop-color="#53534E"/>
<stop offset="0.825" stop-color="#3E3E3A"/>
<stop offset="0.916" stop-color="#252523"/>
<stop offset="1" stop-color="#1B1A19"/>
</linearGradient>
<linearGradient id="paint6_linear_72_11156" x1="4.31495" y1="20.891" x2="4.31495" y2="20.8507" gradientUnits="userSpaceOnUse">
<stop stop-color="white"/>
<stop offset="0.17" stop-color="#F8F8F5"/>
<stop offset="0.427" stop-color="#B1B1AC"/>
<stop offset="0.435" stop-color="#ADAEA8"/>
<stop offset="0.534" stop-color="#898984"/>
<stop offset="0.633" stop-color="#6C6C67"/>
<stop offset="0.731" stop-color="#53534E"/>
<stop offset="0.825" stop-color="#3E3E3A"/>
<stop offset="0.916" stop-color="#252523"/>
<stop offset="1" stop-color="#1B1A19"/>
</linearGradient>
<linearGradient id="paint7_linear_72_11156" x1="2.76702" y1="21.1689" x2="2.76702" y2="21.0734" gradientUnits="userSpaceOnUse">
<stop stop-color="white"/>
<stop offset="0.17" stop-color="#F8F8F5"/>
<stop offset="0.427" stop-color="#B1B1AC"/>
<stop offset="0.435" stop-color="#ADAEA8"/>
<stop offset="0.534" stop-color="#898984"/>
<stop offset="0.633" stop-color="#6C6C67"/>
<stop offset="0.731" stop-color="#53534E"/>
<stop offset="0.825" stop-color="#3E3E3A"/>
<stop offset="0.916" stop-color="#252523"/>
<stop offset="1" stop-color="#1B1A19"/>
</linearGradient>
<linearGradient id="paint8_linear_72_11156" x1="4.72074" y1="20.9652" x2="4.72074" y2="20.9044" gradientUnits="userSpaceOnUse">
<stop stop-color="white"/>
<stop offset="0.17" stop-color="#F8F8F5"/>
<stop offset="0.427" stop-color="#B1B1AC"/>
<stop offset="0.435" stop-color="#ADAEA8"/>
<stop offset="0.534" stop-color="#898984"/>
<stop offset="0.633" stop-color="#6C6C67"/>
<stop offset="0.731" stop-color="#53534E"/>
<stop offset="0.825" stop-color="#3E3E3A"/>
<stop offset="0.916" stop-color="#252523"/>
<stop offset="1" stop-color="#1B1A19"/>
</linearGradient>
<linearGradient id="paint9_linear_72_11156" x1="4.26861" y1="22.6698" x2="4.26861" y2="21.4522" gradientUnits="userSpaceOnUse">
<stop stop-color="white"/>
<stop offset="0.17" stop-color="#F8F8F5"/>
<stop offset="0.427" stop-color="#B1B1AC"/>
<stop offset="0.435" stop-color="#ADAEA8"/>
<stop offset="0.534" stop-color="#898984"/>
<stop offset="0.633" stop-color="#6C6C67"/>
<stop offset="0.731" stop-color="#53534E"/>
<stop offset="0.825" stop-color="#3E3E3A"/>
<stop offset="0.916" stop-color="#252523"/>
<stop offset="1" stop-color="#1B1A19"/>
</linearGradient>
<linearGradient id="paint10_linear_72_11156" x1="4.72074" y1="20.8464" x2="4.72074" y2="20.792" gradientUnits="userSpaceOnUse">
<stop stop-color="white"/>
<stop offset="0.17" stop-color="#F8F8F5"/>
<stop offset="0.427" stop-color="#B1B1AC"/>
<stop offset="0.435" stop-color="#ADAEA8"/>
<stop offset="0.534" stop-color="#898984"/>
<stop offset="0.633" stop-color="#6C6C67"/>
<stop offset="0.731" stop-color="#53534E"/>
<stop offset="0.825" stop-color="#3E3E3A"/>
<stop offset="0.916" stop-color="#252523"/>
<stop offset="1" stop-color="#1B1A19"/>
</linearGradient>
<linearGradient id="paint11_linear_72_11156" x1="29.7406" y1="22.669" x2="29.7406" y2="21.4514" gradientUnits="userSpaceOnUse">
<stop stop-color="white"/>
<stop offset="0.17" stop-color="#F8F8F5"/>
<stop offset="0.427" stop-color="#B1B1AC"/>
<stop offset="0.435" stop-color="#ADAEA8"/>
<stop offset="0.534" stop-color="#898984"/>
<stop offset="0.633" stop-color="#6C6C67"/>
<stop offset="0.731" stop-color="#53534E"/>
<stop offset="0.825" stop-color="#3E3E3A"/>
<stop offset="0.916" stop-color="#252523"/>
<stop offset="1" stop-color="#1B1A19"/>
</linearGradient>
<radialGradient id="paint12_radial_72_11156" cx="0" cy="0" r="1" gradientUnits="userSpaceOnUse" gradientTransform="translate(1.53858 13.6712) scale(21.4421 21.9424)">
<stop stop-color="#1E71B8"/>
<stop offset="0.082" stop-color="#1C69AB"/>
<stop offset="0.166" stop-color="#1B64A4"/>
<stop offset="0.242" stop-color="#1A63A1"/>
<stop offset="0.392" stop-color="#185D98"/>
<stop offset="0.685" stop-color="#0F4D80"/>
<stop offset="0.837" stop-color="#004472"/>
<stop offset="0.933" stop-color="#014472"/>
<stop offset="0.968" stop-color="#064271"/>
<stop offset="0.993" stop-color="#0D3F6F"/>
<stop offset="1" stop-color="#0F3D6E"/>
</radialGradient>
<linearGradient id="paint13_linear_72_11156" x1="32.8979" y1="9.01923" x2="24.3511" y2="0.6665" gradientUnits="userSpaceOnUse">
<stop offset="0.006" stop-color="#121209"/>
<stop offset="0.646" stop-color="#454441"/>
<stop offset="0.65" stop-color="#484845"/>
<stop offset="0.655" stop-color="#535350"/>
<stop offset="0.66" stop-color="#646561"/>
<stop offset="0.664" stop-color="#7B7B77"/>
<stop offset="0.669" stop-color="#969792"/>
<stop offset="0.674" stop-color="#BBBBB7"/>
<stop offset="0.678" stop-color="#E8E7E2"/>
<stop offset="0.68" stop-color="#FBFAF5"/>
<stop offset="0.682" stop-color="#F8F7F2"/>
<stop offset="0.684" stop-color="#F0F0EA"/>
<stop offset="0.685" stop-color="#E4E3DD"/>
<stop offset="0.686" stop-color="#D2D2CC"/>
<stop offset="0.687" stop-color="#BBBCB5"/>
<stop offset="0.689" stop-color="#83847D"/>
<stop offset="0.69" stop-color="#6D6D67"/>
<stop offset="0.706" stop-color="#5F5F5B"/>
<stop offset="0.732" stop-color="#4D4D4B"/>
<stop offset="0.762" stop-color="#3B3A3A"/>
<stop offset="0.8" stop-color="#242324"/>
<stop offset="0.853" stop-color="#101010"/>
<stop offset="1"/>
</linearGradient>
<radialGradient id="paint14_radial_72_11156" cx="0" cy="0" r="1" gradientUnits="userSpaceOnUse" gradientTransform="translate(32.2097 1.0368) scale(8.96065 9.16972)">
<stop stop-color="#575652"/>
<stop offset="1" stop-color="#52524E"/>
</radialGradient>
<linearGradient id="paint15_linear_72_11156" x1="25.7776" y1="0.0862542" x2="33.611" y2="0.0862542" gradientUnits="userSpaceOnUse">
<stop stop-color="#5D5E60"/>
<stop offset="0.019" stop-color="#5B5B5D"/>
<stop offset="0.205" stop-color="#484846"/>
<stop offset="0.41" stop-color="#343431"/>
<stop offset="0.649" stop-color="#222120"/>
<stop offset="1" stop-color="#1B1A19"/>
</linearGradient>
<linearGradient id="paint16_linear_72_11156" x1="33.5277" y1="8.07472" x2="33.5277" y2="0.00176571" gradientUnits="userSpaceOnUse">
<stop stop-color="#5D5E60"/>
<stop offset="0.386" stop-color="#464543"/>
<stop offset="0.742" stop-color="#2A2927"/>
<stop offset="1" stop-color="#1B1A19"/>
</linearGradient>
<linearGradient id="paint17_linear_72_11156" x1="4.54154" y1="10.0197" x2="9.70834" y2="16.8488" gradientUnits="userSpaceOnUse">
<stop stop-color="white"/>
<stop offset="0.109" stop-color="#D5DDF0"/>
<stop offset="0.338" stop-color="#94ADD9"/>
<stop offset="0.542" stop-color="#668FC9"/>
<stop offset="0.714" stop-color="#447DBF"/>
<stop offset="0.848" stop-color="#2A74BA"/>
<stop offset="0.927" stop-color="#1E71B8"/>
<stop offset="0.947" stop-color="#4079BC"/>
<stop offset="0.967" stop-color="#5580C0"/>
<stop offset="0.985" stop-color="#6085C2"/>
<stop offset="1" stop-color="#6486C3"/>
</linearGradient>
<clipPath id="clip0_72_11156">
<rect width="34" height="34" fill="white"/>
</clipPath>
</defs>
</svg>
