<svg width="16" height="16" viewBox="0 0 16 16" fill="none" xmlns="http://www.w3.org/2000/svg">
<circle cx="8" cy="8" r="7.5" stroke="#001C3C"/>
<path d="M8.13293 9.99476L6.90196 9.97306C6.5034 9.9655 6.10385 9.98059 5.7131 9.90226C5.11869 9.78523 5.07658 9.21141 5.03251 8.73007C4.9718 8.05338 4.9953 7.36441 5.10988 6.69336C5.17456 6.31684 5.42912 6.09216 5.82278 6.06771C7.15167 5.97898 8.48941 5.9895 9.81535 6.0309C9.95539 6.03469 10.0964 6.05543 10.2345 6.07904C10.9161 6.19419 10.9327 6.84446 10.9769 7.39187C11.021 7.94493 11.0023 8.50082 10.9181 9.05011C10.8506 9.50491 10.7213 9.8863 10.1757 9.92312C9.49215 9.97127 8.82427 10.01 8.13879 9.99769C8.13882 9.99476 8.13488 9.99476 8.13293 9.99476ZM7.40924 8.84334C7.92436 8.55829 8.42965 8.278 8.94183 7.99487C8.42575 7.70982 7.92141 7.42953 7.40924 7.14639V8.84334Z" fill="#001C3C"/>
</svg>
