<svg width="34" height="34" viewBox="0 0 34 34" fill="none" xmlns="http://www.w3.org/2000/svg">
<circle cx="17" cy="17" r="16.5" stroke="white"/>
<path d="M17.3102 21.9869L14.4379 21.9327C13.5079 21.9138 12.5756 21.9515 11.6639 21.7557C10.2769 21.4631 10.1787 20.0285 10.0759 18.8252C9.9342 17.1335 9.98904 15.411 10.2564 13.7334C10.4073 12.7921 11.0013 12.2304 11.9198 12.1693C15.0206 11.9475 18.1419 11.9737 21.2358 12.0772C21.5626 12.0867 21.8916 12.1386 22.2138 12.1976C23.8042 12.4855 23.843 14.1112 23.9461 15.4797C24.0489 16.8623 24.0055 18.2521 23.809 19.6253C23.6513 20.7623 23.3497 21.7158 22.0767 21.8078C20.4817 21.9282 18.9233 22.0251 17.3238 21.9942C17.3239 21.9869 17.3147 21.9869 17.3102 21.9869ZM15.6216 19.1083C16.8235 18.3957 18.0025 17.695 19.1976 16.9872C17.9934 16.2746 16.8166 15.5738 15.6216 14.866V19.1083Z" fill="white"/>
</svg>
